<svg width="25" height="9" viewBox="0 0 25 9" fill="none" xmlns="http://www.w3.org/2000/svg">
<path d="M4.25 0.5C1.90871 0.5 0 2.40871 0 4.75C0 7.09129 1.90871 9 4.25 9C5.29788 9 6.25776 8.61574 7 7.9834C7.74224 8.61574 8.70212 9 9.75 9C10.7979 9 11.7578 8.61574 12.5 7.9834C13.2422 8.61574 14.2021 9 15.25 9C16.2979 9 17.2578 8.61574 18 7.9834C18.7422 8.61574 19.7021 9 20.75 9C23.0913 9 25 7.09129 25 4.75C25 2.40871 23.0913 0.5 20.75 0.5C19.7021 0.5 18.7422 0.884255 18 1.5166C17.2578 0.884255 16.2979 0.5 15.25 0.5C14.2021 0.5 13.2422 0.884255 12.5 1.5166C11.7578 0.884255 10.7979 0.5 9.75 0.5C8.70212 0.5 7.74224 0.884255 7 1.5166C6.25776 0.884255 5.29788 0.5 4.25 0.5ZM4.25 1.5C5.04062 1.5 5.76302 1.77935 6.3252 2.24512C5.80896 2.9487 5.5 3.81357 5.5 4.75C5.5 5.68643 5.80896 6.5513 6.3252 7.25488C5.76302 7.72065 5.04062 8 4.25 8C2.44915 8 1 6.55085 1 4.75C1 2.94915 2.44915 1.5 4.25 1.5ZM9.75 1.5C10.5406 1.5 11.263 1.77935 11.8252 2.24512C11.309 2.9487 11 3.81357 11 4.75C11 5.68643 11.309 6.5513 11.8252 7.25488C11.263 7.72065 10.5406 8 9.75 8C8.95938 8 8.23698 7.72065 7.6748 7.25488C8.19104 6.5513 8.5 5.68643 8.5 4.75C8.5 3.81357 8.19104 2.9487 7.6748 2.24512C8.23698 1.77935 8.95938 1.5 9.75 1.5ZM15.25 1.5C16.0406 1.5 16.763 1.77935 17.3252 2.24512C16.809 2.9487 16.5 3.81357 16.5 4.75C16.5 5.68643 16.809 6.5513 17.3252 7.25488C16.763 7.72065 16.0406 8 15.25 8C14.4594 8 13.737 7.72065 13.1748 7.25488C13.691 6.5513 14 5.68643 14 4.75C14 3.81357 13.691 2.9487 13.1748 2.24512C13.737 1.77935 14.4594 1.5 15.25 1.5ZM20.75 1.5C22.5508 1.5 24 2.94915 24 4.75C24 6.55085 22.5508 8 20.75 8C19.9594 8 19.237 7.72065 18.6748 7.25488C19.191 6.5513 19.5 5.68643 19.5 4.75C19.5 3.81357 19.191 2.9487 18.6748 2.24512C19.237 1.77935 19.9594 1.5 20.75 1.5ZM7 3.01855C7.31527 3.51963 7.5 4.11168 7.5 4.75C7.5 5.38832 7.31527 5.98037 7 6.48145C6.68473 5.98037 6.5 5.38832 6.5 4.75C6.5 4.11168 6.68473 3.51963 7 3.01855ZM12.5 3.01855C12.8153 3.51963 13 4.11168 13 4.75C13 5.38832 12.8153 5.98037 12.5 6.48145C12.1847 5.98037 12 5.38832 12 4.75C12 4.11168 12.1847 3.51963 12.5 3.01855ZM18 3.01855C18.3153 3.51963 18.5 4.11168 18.5 4.75C18.5 5.38832 18.3153 5.98037 18 6.48145C17.6847 5.98037 17.5 5.38832 17.5 4.75C17.5 4.11168 17.6847 3.51963 18 3.01855Z" fill="black"/>
</svg>
