<svg width="25" height="25" viewBox="0 0 50 50" fill="none" xmlns="http://www.w3.org/2000/svg">
<path d="M8.5 17C3.81742 17 0 20.8174 0 25.5C0 30.1826 3.81742 34 8.5 34C10.5958 34 12.5155 33.2315 14 31.9668C15.4845 33.2315 17.4042 34 19.5 34C21.5958 34 23.5155 33.2315 25 31.9668C26.4845 33.2315 28.4042 34 30.5 34C32.5958 34 34.5155 33.2315 36 31.9668C37.4845 33.2315 39.4042 34 41.5 34C46.1826 34 50 30.1826 50 25.5C50 20.8174 46.1826 17 41.5 17C39.4042 17 37.4845 17.7685 36 19.0332C34.5155 17.7685 32.5958 17 30.5 17C28.4042 17 26.4845 17.7685 25 19.0332C23.5155 17.7685 21.5958 17 19.5 17C17.4042 17 15.4845 17.7685 14 19.0332C12.5155 17.7685 10.5958 17 8.5 17ZM8.5 19C10.0812 19 11.526 19.5587 12.6504 20.4902C11.6179 21.8974 11 23.6271 11 25.5C11 27.3729 11.6179 29.1026 12.6504 30.5098C11.526 31.4413 10.0812 32 8.5 32C4.8983 32 2 29.1017 2 25.5C2 21.8983 4.8983 19 8.5 19ZM19.5 19C21.0812 19 22.526 19.5587 23.6504 20.4902C22.6179 21.8974 22 23.6271 22 25.5C22 27.3729 22.6179 29.1026 23.6504 30.5098C22.526 31.4413 21.0812 32 19.5 32C17.9188 32 16.474 31.4413 15.3496 30.5098C16.3821 29.1026 17 27.3729 17 25.5C17 23.6271 16.3821 21.8974 15.3496 20.4902C16.474 19.5587 17.9188 19 19.5 19ZM30.5 19C32.0812 19 33.526 19.5587 34.6504 20.4902C33.6179 21.8974 33 23.6271 33 25.5C33 27.3729 33.6179 29.1026 34.6504 30.5098C33.526 31.4413 32.0812 32 30.5 32C28.9188 32 27.474 31.4413 26.3496 30.5098C27.3821 29.1026 28 27.3729 28 25.5C28 23.6271 27.3821 21.8974 26.3496 20.4902C27.474 19.5587 28.9188 19 30.5 19ZM41.5 19C45.1017 19 48 21.8983 48 25.5C48 29.1017 45.1017 32 41.5 32C39.9188 32 38.474 31.4413 37.3496 30.5098C38.3821 29.1026 39 27.3729 39 25.5C39 23.6271 38.3821 21.8974 37.3496 20.4902C38.474 19.5587 39.9188 19 41.5 19ZM14 22.0371C14.6305 23.0393 15 24.2234 15 25.5C15 26.7766 14.6305 27.9607 14 28.9629C13.3695 27.9607 13 26.7766 13 25.5C13 24.2234 13.3695 23.0393 14 22.0371ZM25 22.0371C25.6305 23.0393 26 24.2234 26 25.5C26 26.7766 25.6305 27.9607 25 28.9629C24.3695 27.9607 24 26.7766 24 25.5C24 24.2234 24.3695 23.0393 25 22.0371ZM36 22.0371C36.6305 23.0393 37 24.2234 37 25.5C37 26.7766 36.6305 27.9607 36 28.9629C35.3695 27.9607 35 26.7766 35 25.5C35 24.2234 35.3695 23.0393 36 22.0371Z" fill="black"/>
</svg>
