<svg width="25" height="25" viewBox="0 0 50 50" fill="none" xmlns="http://www.w3.org/2000/svg">
<g clip-path="url(#clip0_11120_1375)">
<path fill-rule="evenodd" clip-rule="evenodd" d="M25.0001 0C38.7696 0 50 11.2304 50 24.9999C50 38.7696 38.7696 49.9999 25.0001 49.9999C11.2305 49.9999 0 38.7696 0 24.9999C0 11.2304 11.2305 0 25.0001 0Z" fill="black"/>
<path d="M10.4754 17.5023L4.57617 12.4284L6.78517 9.86008C7.23473 9.33749 7.65551 8.9704 8.045 8.75654C8.437 8.54234 8.83355 8.4535 9.23567 8.48888C9.6362 8.52312 9.97405 8.65564 10.246 8.88952C10.4973 9.10566 10.6664 9.3897 10.7518 9.74041C10.8388 10.0895 10.8116 10.4849 10.6736 10.9232C11.1342 10.5988 11.5856 10.4353 12.0287 10.4285C12.4732 10.4228 12.8672 10.5676 13.2106 10.8629C13.482 11.0942 13.6874 11.3932 13.8059 11.7295C13.9269 12.0692 13.9656 12.3937 13.9235 12.7039C13.8814 13.0141 13.7623 13.347 13.5706 13.7032C13.3788 14.0594 13.0954 14.4559 12.7199 14.8925L10.4754 17.5023ZM7.83512 13.6542L9.10804 12.1743C9.45203 11.7742 9.6767 11.4658 9.78215 11.2516C9.92024 10.9715 9.97223 10.7138 9.93492 10.4794C9.89749 10.245 9.77657 10.0384 9.57045 9.8611C9.37547 9.69331 9.15581 9.59867 8.9142 9.57944C8.67008 9.56067 8.43404 9.62927 8.20653 9.78284C7.97766 9.938 7.65141 10.2615 7.22779 10.754L6.05214 12.1209L7.83512 13.6542ZM10.5587 15.9968L12.0236 14.2938C12.2756 14.0006 12.4429 13.7868 12.5264 13.6533C12.6729 13.4164 12.7687 13.1965 12.8137 12.9915C12.8602 12.7874 12.8491 12.5782 12.7844 12.3646C12.7169 12.1513 12.5918 11.9634 12.4036 11.8015C12.184 11.6125 11.9368 11.5135 11.6609 11.5037C11.3865 11.495 11.1163 11.5785 10.8502 11.7545C10.5871 11.93 10.2663 12.2362 9.89215 12.6712L8.53153 14.2532L10.5587 15.9968ZM20.2837 8.78612V2.11328H22.0429L24.1311 6.83785C24.3243 7.27762 24.4661 7.60694 24.5525 7.82603C24.6532 7.58362 24.8093 7.2262 25.023 6.7556L27.1357 2.11328H28.7079V8.78612H27.5818V3.20077L25.0168 8.78612H23.9626L21.4099 3.1059V8.78612H20.2837ZM36.2418 12.6826L40.3248 7.14635L40.8819 7.83399L38.1168 11.3525C37.8322 11.7183 37.5369 12.0755 37.2312 12.4239C37.8891 12.1057 38.2682 11.9236 38.3729 11.8777L42.6462 10.0111L43.3018 10.8203L41.2713 13.6672C40.7693 14.3748 40.2649 15.0005 39.7601 15.5445C40.1381 15.3437 40.5827 15.1242 41.0894 14.8853L45.0565 12.9855L45.6032 13.66L39.305 16.4625L38.7812 15.816L41.8568 11.5555C42.1143 11.1984 42.2735 10.9815 42.3348 10.9045C42.0543 11.0436 41.812 11.1579 41.6072 11.2477L36.7961 13.3664L36.2418 12.6826Z" fill="white"/>
<path fill-rule="evenodd" clip-rule="evenodd" d="M39.7679 25.248C39.7679 33.2457 33.2452 39.7684 25.2476 39.7684V25.248H39.7679Z" fill="#00ACEC"/>
<path fill-rule="evenodd" clip-rule="evenodd" d="M39.7679 24.7527C39.7679 16.7552 33.2452 10.2324 25.2476 10.2324V24.7527H39.7679Z" fill="white"/>
<path fill-rule="evenodd" clip-rule="evenodd" d="M10.2322 24.7527C10.2322 16.7552 16.7549 10.2324 24.7525 10.2324V24.7527H10.2322Z" fill="#00ACEC"/>
<path fill-rule="evenodd" clip-rule="evenodd" d="M10.2322 25.248C10.2322 33.2457 16.7549 39.7684 24.7525 39.7684V25.248H10.2322Z" fill="white"/>
</g>
<defs>
<clipPath id="clip0_11120_1375">
<rect width="50" height="50" fill="white"/>
</clipPath>
</defs>
</svg>
