<svg width="128" height="54" viewBox="0 0 128 54" fill="none" xmlns="http://www.w3.org/2000/svg">
<g clip-path="url(#clip0_11120_1382)">
<path d="M81.1161 47.2959C80.3475 49.9305 77.9432 51.0402 73.9182 51.0402C71.1864 51.0402 68.7835 50.5868 67.5474 49.5624C66.207 48.4758 66.0051 46.9767 66.0051 45.3747V37.5187H69.0636V45.2404C69.0636 46.9847 69.2372 48.0251 70.0618 48.7914C70.9981 49.6898 72.6155 49.9526 73.9796 49.9526C76.8649 49.9526 78.7869 49.1802 79.3087 47.0817C79.4293 46.5983 79.523 46.0061 79.523 45.0918V37.5186H81.4056V44.5626C81.4058 45.8779 81.3137 46.6207 81.1161 47.2959Z" fill="#01422D"/>
<path d="M81.1161 47.2959C80.3475 49.9305 77.9432 51.0402 73.9182 51.0402C71.1864 51.0402 68.7835 50.5868 67.5474 49.5624C66.207 48.4758 66.0051 46.9767 66.0051 45.3747V37.5187H69.0636V45.2404C69.0636 46.9847 69.2372 48.0251 70.0618 48.7914C70.9981 49.6898 72.6155 49.9526 73.9796 49.9526C76.8649 49.9526 78.7869 49.1802 79.3087 47.0817C79.4293 46.5983 79.523 46.0061 79.523 45.0918V37.5186H81.4056V44.5626C81.4058 45.8779 81.3137 46.6207 81.1161 47.2959" stroke="#01422D" stroke-width="0.575339"/>
<path d="M96.6131 40.026L93.0706 46.1316H99.9808L96.6131 40.026ZM102.503 50.7464L100.486 47.031H92.5477L90.3874 50.7464H88.4463L96.4299 37.5176H98.3322L106.144 50.7464H102.503Z" fill="#01422D"/>
<path d="M96.6131 40.026L93.0706 46.1316H99.9808L96.6131 40.026ZM102.503 50.7464L100.486 47.031H92.5477L90.3874 50.7464H88.4463L96.4299 37.5176H98.3322L106.144 50.7464H102.503Z" stroke="#01422D" stroke-width="0.575339"/>
<path d="M23.752 40.026L20.2124 46.1316H27.1242L23.752 40.026ZM29.6446 50.7464L27.6308 47.031H19.6907L17.5276 50.7464H15.5874L23.5711 37.5176H25.472L33.287 50.7464H29.6446Z" fill="#01422D"/>
<path d="M23.752 40.026L20.2124 46.1316H27.1242L23.752 40.026M29.6446 50.7464L27.6309 47.031H19.6907L17.5276 50.7464H15.5874L23.5711 37.5176H25.472L33.287 50.7464H29.6446Z" stroke="#01422D" stroke-width="0.575339"/>
<path d="M49.9477 51.0385C44.6624 51.0385 39.6394 49.5357 39.6394 44.4556C39.6394 42.8046 40.5258 41.1125 41.8646 39.9013C43.9631 38.0184 47.1496 37.2676 50.1587 37.2676C51.9782 37.2676 54.0859 37.6087 55.7258 38.2978V39.869C54.2396 38.9529 52.2828 38.3211 50.3746 38.3211C46.0269 38.3211 43.0284 40.5692 43.0284 44.2886C43.0284 47.6551 45.6743 49.9593 49.7444 49.9593C50.7802 49.9593 52.2137 49.807 53.1997 49.4946V44.665H56.2581V50.0578C54.4639 50.7256 51.9177 51.0385 49.9477 51.0385Z" fill="#01422D"/>
<path d="M49.9477 51.0385C44.6624 51.0385 39.6394 49.5357 39.6394 44.4556C39.6394 42.8046 40.5258 41.1125 41.8646 39.9013C43.9631 38.0184 47.1496 37.2676 50.1587 37.2676C51.9782 37.2676 54.0859 37.6087 55.7258 38.2978V39.869C54.2396 38.9529 52.2828 38.3211 50.3746 38.3211C46.0269 38.3211 43.0284 40.5692 43.0284 44.2886C43.0284 47.6551 45.6743 49.9593 49.7444 49.9593C50.7802 49.9593 52.2137 49.807 53.1997 49.4946V44.665H56.2581V50.0578C54.4639 50.7256 51.9177 51.0385 49.9477 51.0385" stroke="#01422D" stroke-width="0.575339"/>
<path d="M119.239 38.4368H116.99V44.7654H118.957C120.606 44.7654 121.592 44.511 122.361 43.999C123.172 43.4606 123.658 42.6347 123.658 41.5184C123.657 39.2828 121.692 38.4368 119.239 38.4368ZM124.437 50.7471L120.196 45.6673H116.99V50.7471H113.929V37.5186H119.718C122.067 37.5186 124.417 37.8001 125.726 38.9951C126.41 39.6195 126.782 40.488 126.782 41.6055C126.782 43.6501 124.917 44.8886 123.256 45.3758L127.96 50.7473L124.437 50.7471Z" fill="#01422D"/>
<path d="M119.239 38.4368H116.99V44.7654H118.957C120.606 44.7654 121.592 44.511 122.361 43.999C123.172 43.4606 123.658 42.6347 123.658 41.5184C123.657 39.2828 121.692 38.4368 119.239 38.4368M124.437 50.7471L120.196 45.6673H116.99V50.7471H113.929V37.5186H119.718C122.067 37.5186 124.417 37.8001 125.726 38.9951C126.41 39.6195 126.782 40.488 126.782 41.6055C126.782 43.6501 124.917 44.8886 123.256 45.3758L127.96 50.7473L124.437 50.7471V50.7471Z" stroke="#01422D" stroke-width="0.575339"/>
<path d="M2.66052 53.4664C1.85275 53.7803 0.96776 53.9882 0.0571289 53.9882C2.15402 52.735 3.04044 51.4602 3.34346 49.3494C3.52132 48.1782 3.52132 47.0069 3.52132 45.8368V37.5186H6.58154V47.5303C6.58186 49.9748 5.44353 52.3386 2.66052 53.4664Z" fill="#01422D"/>
<path d="M2.66052 53.4664C1.85275 53.7803 0.96776 53.9882 0.0571289 53.9882C2.15402 52.735 3.04044 51.4602 3.34346 49.3494C3.52132 48.1782 3.52132 47.0069 3.52132 45.8368V37.5186H6.58154V47.5303C6.58186 49.9748 5.44353 52.3386 2.66052 53.4664" stroke="#01422D" stroke-width="0.575339"/>
<path d="M21.8994 2.20382C22.9982 2.23119 23.942 1.89229 23.9451 1.84373C23.9482 1.79516 22.7285 1.69922 22.7285 1.69922C21.6115 1.73778 21.1561 2.08037 21.15 2.12038C21.1426 2.15881 21.4411 2.19118 21.8994 2.20382Z" fill="#241F20"/>
<path d="M14.4296 3.7672C14.4296 3.7672 14.496 3.57399 14.5246 3.53174C14.5533 3.48805 14.7132 3.04202 15.4848 2.99345C15.4848 2.99345 15.8736 2.96476 16.3215 3.07939C16.3215 3.07939 16.0638 3.62887 15.0087 3.71982C15.0085 3.71982 14.5938 3.77102 14.4296 3.7672ZM117.742 28.5395C117.48 29.0749 116.357 29.7569 115.038 30.1216C113.645 30.5064 110.737 30.5164 109.249 30.1079C109.249 30.1079 108.936 29.8261 107.889 29.5721C105.456 28.9805 104.669 28.568 103.434 27.6173C102.562 26.9458 101.601 26.1035 100.67 25.3096C100.255 24.9558 99.2468 24.1209 97.4741 23.8667C95.6246 23.6026 91.0853 23.3159 89.4137 22.8275C88.2891 22.4974 86.9562 21.8707 85.2833 19.8023C84.4813 18.8093 83.8737 18.5201 82.7159 17.9096C82.7159 17.9096 83.5995 18.4864 84.0639 19.1867C84.7346 20.2036 85.0558 20.9351 85.422 21.4756C85.7909 22.0202 86.218 22.5051 86.8842 22.9473C87.7103 23.4956 88.244 23.6164 89.1771 23.7721C90.0694 23.9217 93.1161 24.0327 95.7302 24.1173C98.3003 24.1996 99.3993 24.8575 100.203 25.4146C100.941 25.9303 102.119 27.4034 102.945 28.0062C104.05 28.8087 104.079 28.8199 105.361 29.4852C106.01 29.8215 106.581 30.0418 107.107 30.198C108.285 30.7698 107.798 31.7679 107.798 31.7679C107.46 32.5631 106.245 32.848 104.827 32.6822C102.683 32.5256 100.838 31.0476 99.2789 29.9872C98.4212 29.4027 98.118 29.1111 96.4642 28.1615C93.9483 26.7189 88.0361 26.8384 88.0361 26.8384L83.7035 26.8159C75.2645 26.9181 72.1769 21.3061 71.3344 20.1284C71.0435 19.7186 70.7737 19.3884 70.5172 19.1179C70.1238 18.6792 68.006 16.3942 65.737 15.5781C65.737 15.5781 67.9153 17.1356 67.6968 17.9879C67.2295 17.9829 66.6987 18.0077 66.0655 18.0227C57.5635 18.2285 55.7967 17.8395 54.4536 17.6178C53.1087 17.3947 50.8551 16.8415 48.6649 16.0079C48.6649 16.0079 48.9092 14.276 48.0393 12.8368C48.0393 12.8368 55.0569 14.8853 60.6402 14.3047C60.6402 14.3047 51.6287 13.9408 46.0074 10.2379C46.0074 10.2379 47.3945 14.1516 46.2983 15.7951C46.2983 15.7951 44.8212 18.7793 37.2458 16.7881C37.2458 16.7881 33.7619 15.6679 31.0529 15.6679C31.0529 15.6679 29.0134 15.7377 28.7694 16.6162C28.7694 16.6162 28.6365 17.0361 29.1688 17.2354C29.1688 17.2354 29.7597 17.3751 29.4807 17.7375C29.021 18.3369 28.383 18.8004 27.7501 19.062C25.6366 18.976 25.7933 17.5418 25.7933 17.5418C25.831 17.0334 26.0301 16.6783 26.2184 16.3282C27.5464 13.8724 32.2136 13.516 32.2136 13.516C37.1793 13.1061 42.3846 14.0916 42.3846 14.0916C38.6611 13.3576 37.3949 12.8193 36.3304 12.0855C34.8967 11.0961 33.5568 7.77189 33.5568 7.77189C32.9855 9.40164 33.6926 11.0489 34.1705 11.8949C33.4648 10.9641 32.4594 10.178 31.5625 9.58353C29.2696 8.06446 25.9409 7.57368 25.9409 7.57368C24.979 7.43773 24.5976 6.61423 24.5976 6.61423C23.3644 4.73771 21.9686 4.64926 21.9686 4.64926C22.6558 5.42801 22.5836 6.49341 22.5836 6.49341C22.5836 8.45719 19.5281 9.10893 19.5281 9.10893C17.2425 10.9866 16.8462 10.9466 16.3999 10.9741C15.9536 11.0003 15.6236 10.6177 15.6236 10.6177C15.4787 10.4382 15.72 10.2775 15.72 10.2775C16.1058 10.0781 16.4707 9.8178 16.4707 9.8178C18.6988 8.33874 19.0124 7.5825 18.8315 6.55066C18.4681 4.48962 16.4572 4.64176 16.4572 4.64176C15.5119 4.64176 15.0447 5.2373 15.0447 5.2373C14.6799 5.59621 13.8823 6.71873 13.8823 6.71873C13.1798 7.67831 12.5513 7.53735 12.5513 7.53735C11.7765 7.57855 11.2157 7.01025 11.2157 7.01025C11.1855 6.98801 11.1628 6.96168 11.1374 6.93931C10.5632 6.42958 11.0574 5.81416 11.0574 5.81416C12.0029 4.43355 13.6338 4.29786 13.8554 4.28654C14.0783 4.27535 14.8307 4.22916 14.8307 4.22916C16.6725 4.11834 17.8756 2.66297 17.8756 2.66297C17.0994 2.35277 15.7127 2.51728 15.7127 2.51728C14.3619 2.59204 14.006 3.77694 14.0032 3.77694C12.8333 3.91908 12.8921 3.17639 13.1424 2.98082C13.3398 2.78893 14.0361 1.85685 18.5149 1.30119C18.5149 1.30119 20.8908 0.912404 25.1102 1.295C25.2654 1.30869 25.4161 1.42095 25.2172 1.61521C24.6865 2.12995 23.0268 3.27115 20.3645 2.71917C20.3645 2.71917 20.3164 3.59887 23.2198 4.03871C23.2198 4.03871 25.8384 4.49962 30.1135 7.33809C30.1135 7.33809 28.0408 4.16954 24.4575 3.20377C24.4575 3.20377 24.1921 3.06426 24.4333 2.86368C24.4333 2.86368 26.1291 1.60758 29.1215 1.73972C29.1215 1.73972 39.0166 2.15969 44.5793 6.958C44.5793 6.958 44.3865 6.15806 43.5392 4.99803C43.5392 4.99803 43.3688 4.85971 43.4668 4.75889C43.4668 4.75889 43.5392 4.55819 44.507 4.71888C44.507 4.71888 48.039 5.19874 56.238 7.67818C56.238 7.67818 62.3841 9.45876 65.7354 10.6076C70.7734 12.3333 83.3952 16.5649 91.3672 20.212C92.7903 20.8624 98.7192 23.2834 98.7192 23.2834C103.151 25.5573 107.229 27.2033 107.229 27.2033C111.245 28.7373 114.165 28.0345 114.165 28.0345C115.098 27.744 116.88 26.9443 117.575 27.5122C117.929 27.803 117.95 28.1815 117.742 28.5395ZM118.741 27.2522C118.216 26.2418 116.527 26.4896 116.527 26.4896C115.754 26.5283 114.778 27.1972 113.423 27.4276C110.507 27.9248 108.278 27.1052 108.278 27.1052C103.982 25.5153 101.074 23.7833 99.1818 22.8886C97.2902 21.994 90.2879 18.9536 83.284 16.0442C83.284 16.0442 75.2611 12.6451 63.3911 8.5892C63.3911 8.5892 40.4893 0.000332552 24.0172 0.000332552C24.0172 0.000332552 15.485 -0.0882423 12.5953 2.62573C12.5953 2.62573 12.0857 2.97463 12.3343 3.40448C12.3343 3.40448 12.369 3.52293 12.262 3.59887C12.262 3.59887 10.9912 4.28917 9.95685 5.27968C9.95685 5.27968 9.40241 5.74822 9.84825 6.44721C9.84825 6.44721 10.4 7.24215 10.7484 7.58368C11.0996 7.92377 11.802 8.51944 12.8752 8.431C13.35 8.39112 13.3636 8.29281 13.3636 8.29281C13.8565 8.70396 14.7173 8.72884 14.7173 8.72884C14.6313 8.47601 14.3027 7.97497 14.274 7.68344C14.2423 7.35705 14.396 7.05421 14.396 7.05421C14.5754 6.6953 14.9117 6.25045 15.2541 6.02869C15.5585 5.8318 16.3136 5.62753 16.8774 5.95393C17.3299 6.21571 17.8105 7.05421 17.268 8.15817C17.268 8.15817 16.6575 9.03036 16.0937 9.12749L15.9372 9.13368C15.6144 9.12868 14.8955 8.80109 14.8955 8.80109C14.8955 8.80109 14.8654 8.87216 14.9452 9.1725C14.9918 9.34307 15.0582 9.53259 15.1141 9.67829L14.9648 9.77792C14.9648 9.77792 14.511 10.0796 14.7116 10.5144C14.7116 10.5144 15.1533 11.8875 16.3864 11.8875C17.4764 11.9175 18.3837 11.0627 18.3837 11.0627C20.722 8.97811 24.0172 8.69778 24.0172 8.69778C27.6696 8.49207 32.889 11.5835 34.3104 12.4757C28.9016 12.4271 26.7187 14.1428 26.7187 14.1428C23.6722 16.1029 24.8583 18.4679 24.8583 18.4679C25.0801 18.9823 25.7041 19.3574 26.1022 19.5019C26.6762 19.7087 27.1483 19.7174 27.5931 19.6763C27.9142 19.6476 28.2666 19.5492 28.446 19.4471C28.8607 19.245 29.6008 18.8452 29.9581 18.4202C30.1964 18.2071 30.4359 17.6852 30.2777 17.1879C30.2777 17.1879 30.1815 16.788 30.617 16.7069C30.617 16.7069 32.0504 16.4067 34.945 17.4634C34.945 17.4634 38.0896 18.9785 42.1687 19.2789C42.1687 19.2789 46.8074 19.6676 47.9276 17.5917C47.9276 17.5917 50.5926 18.4926 54.4926 18.8615C54.4926 18.8615 58.2927 19.1866 64.4571 18.8029C65.6703 18.7269 67.0949 18.8104 67.0949 18.8104C69.0682 19.006 70.3225 19.8547 70.8169 20.5188C72.8372 23.23 75.2474 28.5493 85.1171 28.3389L89.5838 28.2375C92.299 28.2375 94.51 28.2564 96.6809 29.2157C97.629 29.6357 100.133 31.6901 101.675 32.3841C106.241 34.9275 108.879 33.7451 108.879 33.7451C110.434 32.9964 110.311 31.6641 109.933 30.9181C109.466 30.7956 115.591 31.6604 118.202 28.826C118.82 28.1941 118.928 27.6149 118.741 27.2522Z" fill="#241F20"/>
</g>
<defs>
<clipPath id="clip0_11120_1382">
<rect width="128" height="54" fill="white"/>
</clipPath>
</defs>
</svg>
