<?xml version="1.0" standalone="no"?>
<!DOCTYPE svg PUBLIC "-//W3C//DTD SVG 20010904//EN"
 "http://www.w3.org/TR/2001/REC-SVG-20010904/DTD/svg10.dtd">
<svg version="1.0" xmlns="http://www.w3.org/2000/svg"
 width="25" height="25" viewBox="0 0 300.000000 260.000000"
 preserveAspectRatio="xMidYMid meet">

<g transform="translate(0.000000,260.000000) scale(0.100000,-0.100000)"
fill="#000000" stroke="none">
<path d="M1375 2594 c-371 -38 -673 -181 -931 -438 -221 -222 -352 -464 -414
-766 -23 -111 -38 -350 -26 -413 l7 -37 87 0 87 0 0 163 c1 117 6 185 19 246
114 533 511 932 1039 1042 131 28 350 30 483 6 407 -74 763 -338 949 -703 99
-193 152 -432 143 -642 l-5 -112 88 0 88 0 7 47 c11 73 -3 290 -25 400 -62
304 -194 548 -415 768 -224 223 -473 357 -775 415 -99 20 -323 33 -406 24z"/>
<path d="M310 1150 l0 -230 115 0 115 0 0 80 c0 44 4 80 8 80 5 0 19 -12 33
-26 13 -14 46 -44 72 -67 l48 -40 67 66 c37 37 70 67 72 67 3 0 5 -35 5 -77
l0 -78 115 0 115 0 0 225 0 225 -110 3 -110 3 -80 -87 -81 -87 -74 86 -75 85
-117 1 -118 1 0 -230z"/>
<path d="M1252 1153 l-152 -228 128 -3 c126 -3 127 -2 147 23 20 24 24 25 146
25 121 0 126 -1 149 -25 23 -24 28 -25 147 -25 68 0 123 4 123 9 0 5 -64 107
-143 227 l-143 219 -125 3 -125 3 -152 -228z m276 -61 c-22 -2 -42 -1 -45 1
-2 3 5 24 18 48 l22 43 22 -44 23 -45 -40 -3z"/>
<path d="M1970 1150 l0 -230 120 0 119 0 3 99 3 99 140 -99 140 -98 118 -1
117 0 0 230 0 230 -110 0 -110 0 0 -100 c0 -55 -2 -100 -5 -100 -2 0 -74 45
-160 100 l-155 100 -110 0 -110 0 0 -230z"/>
<path d="M1026 634 c-14 -13 -16 -55 -16 -308 0 -271 1 -294 18 -309 17 -15
65 -17 489 -17 443 0 471 1 486 18 15 16 17 53 17 310 0 251 -2 293 -16 306
-14 14 -72 16 -489 16 -417 0 -475 -2 -489 -16z m934 -309 l0 -265 -445 0
-445 0 0 265 0 265 445 0 445 0 0 -265z"/>
<path d="M1775 565 c-6 -7 -36 -45 -68 -84 l-58 -69 15 -88 c9 -48 17 -89 19
-91 3 -2 27 -7 55 -12 75 -12 98 6 111 84 16 90 14 105 -20 186 -36 86 -41 93
-54 74z"/>
<path d="M1810 573 c0 -4 14 -42 32 -85 27 -66 36 -78 55 -78 16 0 23 6 23 20
0 14 -7 20 -21 20 -12 0 -19 5 -16 13 2 6 14 12 26 11 18 -1 21 4 19 25 -2 20
-9 26 -28 26 -25 0 -60 26 -60 45 0 6 -7 10 -15 10 -8 0 -15 -3 -15 -7z"/>
<path d="M1510 390 c-63 -10 -119 -19 -125 -19 -5 -1 -32 -35 -59 -76 -31 -48
-55 -75 -67 -75 -10 0 -37 -22 -61 -50 -24 -27 -48 -50 -54 -50 -6 0 -19 -9
-29 -20 -18 -20 -17 -20 10 -20 18 0 40 11 58 28 l30 27 -5 -27 c-5 -28 -5
-28 48 -28 41 0 54 4 54 15 0 8 -4 15 -10 15 -21 0 -7 18 66 84 l75 69 92 -13
c51 -6 103 -14 116 -17 19 -5 22 -2 18 13 -3 11 -11 52 -17 92 -7 39 -15 71
-18 71 -4 -1 -59 -9 -122 -19z"/>
<path d="M1287 274 c-16 -19 -27 -38 -24 -40 3 -3 14 7 24 23 43 62 43 72 0
17z"/>
<path d="M1431 236 c-12 -14 -3 -16 90 -15 108 1 100 10 -22 24 -44 5 -58 3
-68 -9z"/>
<path d="M1687 167 c10 -84 17 -97 57 -97 43 0 54 15 26 38 -20 16 -20 19 -5
55 17 42 17 42 -47 50 l-37 6 6 -52z"/>
</g>
</svg>
