<svg width="25" height="25" viewBox="0 0 133 144" fill="none" xmlns="http://www.w3.org/2000/svg">
<path fill-rule="evenodd" clip-rule="evenodd" d="M66.4833 143.496C29.9305 143.479 0.306396 111.465 0.306396 71.9911C0.306396 32.4988 29.9473 0.48536 66.4833 0.502937C103.07 0.502937 132.694 32.5172 132.694 71.9911C132.694 111.483 103.053 143.496 66.4833 143.496ZM12.2056 106.288L13.3906 105.281C9.96725 98.4327 8.65129 93.8668 7.15319 88.7983C7.02152 88.4204 6.93959 88.168 6.7911 87.9522C6.69235 88.2391 6.74209 88.4923 6.75818 88.8151C7.71278 94.3517 10.017 101.327 12.2056 106.288ZM67.4049 7.60309L76.4074 64.7831L66.9938 70.8046L66.6815 7.62147C66.6815 6.86647 66.2207 6.86647 66.1219 7.62147L60.8054 67.5514L56.8561 65.0531L65.3151 7.62227C32.5309 7.83718 6.6426 36.5798 6.6426 72.0989C6.6426 83.3152 9.8685 95.1075 14.5091 104.292L55.8188 66.778L59.7842 69.2579L13.4067 105.658C12.2875 106.521 12.6167 106.935 13.8508 106.198L65.6435 73.5186V85.275L15.6276 106.126C26.0945 124.802 44.6591 136.702 66.3179 136.702C87.9278 136.702 106.805 124.785 117.272 106.144L67.3384 85.311V73.5546L117.157 104.939C118.291 105.622 118.621 105.245 117.551 104.418L73.1984 69.2771L77.1646 66.7964L118.441 104.346C123.181 95.1075 126.308 83.2976 126.308 71.9911C126.308 36.9209 99.6134 8.55623 67.4049 7.60309ZM129.518 59.0483C129.632 59.3902 129.73 59.6778 129.879 59.8752C129.978 59.5876 129.896 59.3359 129.879 59.0123C124.432 26.5131 98.6259 2.22864 66.6149 2.22864C30.7863 2.22864 1.80377 33.9553 1.80377 73.0688C1.80377 82.3078 3.96021 91.1168 6.88985 99.1869C8.23946 102.907 12.5509 111.392 13.6042 113.064C13.8347 113.422 13.9334 113.602 14.1967 113.819C14.1807 113.477 14.1646 113.315 13.9992 112.901C13.8178 112.56 10.1479 104.92 8.02513 99.2396C6.21468 94.3509 3.96021 84.6095 3.96021 73.3197C3.96021 35.3742 32.1528 4.58231 66.8944 4.58231C85.0647 4.59989 102.148 14.2886 112.614 26.8359C120.564 36.364 124.679 42.7635 129.518 59.0483ZM14.2458 106.683L12.8142 107.259C22.113 126.672 41.6154 140.783 66.4833 140.783C101.769 140.801 129.978 109.613 129.978 71.9911C129.978 62.7873 127.542 57.1436 126.176 53.0634C125.173 50.0075 123.016 45.3153 122.062 43.3923C121.864 43.0144 121.733 42.853 121.47 42.6197C121.485 42.9609 121.503 43.159 121.699 43.5369C122.441 45.1364 124.086 49.163 125.254 53.2072C126.834 58.5817 127.821 64.6033 127.821 71.9919C127.821 83.7291 124.448 95.7371 119.478 105.299C119.758 106.09 119.493 106.486 118.655 106.738C107.808 125.792 88.4705 138.266 66.4664 138.249C45.7951 138.249 29.2714 126.15 24.0544 119.878C19.8088 114.772 16.6655 110.98 14.2458 106.683ZM63.2084 69.0789L65.9405 70.8222L66.2865 24.4279C66.2865 23.4932 66.0239 23.4572 65.9573 24.392L63.2084 69.0789ZM67.9806 72.5839L104.731 96.0774C105.389 96.4913 105.521 96.2396 104.897 95.7906L70.7793 70.8222L67.9806 72.5839ZM62.3854 70.966L53.1525 79.2175C52.6426 79.684 52.8731 79.8997 53.4817 79.5235L65.002 72.5487L62.3854 70.966Z" fill="black"/>
</svg>
