<svg width="25" height="25" viewBox="0 0 52 53" fill="none" xmlns="http://www.w3.org/2000/svg">
<path d="M25.9998 4.47028H26.0003C31.9525 4.47028 37.3563 6.94463 41.2712 10.9351C45.1867 14.9256 47.6141 20.4325 47.6141 26.4989V26.5005C47.6141 32.567 45.1867 38.0747 41.2712 42.0649C37.3558 46.0551 31.9531 48.5292 26.0011 48.5294H25.9998C20.0475 48.5292 14.644 46.0551 10.7286 42.0646C6.81366 38.0741 4.38653 32.5672 4.38599 26.5008V26.4992C4.38626 20.4325 6.81366 14.9248 10.7291 10.9343C14.644 6.94408 20.0473 4.47 25.9992 4.46973H25.9998V4.47028ZM26.0003 4.99847H25.9987C20.19 4.99875 14.9162 7.41344 11.0949 11.3082C7.27335 15.2033 4.90395 20.5788 4.90395 26.4997V26.5014C4.90422 32.4218 7.27335 37.797 11.0947 41.6915C14.9162 45.5865 20.19 48.0015 25.9995 48.0015H26.0009C31.8096 48.0012 37.0833 45.5865 40.9049 41.692C44.7259 37.797 47.0953 32.4218 47.0959 26.5008V26.4992C47.0953 20.5785 44.7265 15.2033 40.9049 11.3085C37.0836 7.41344 31.8098 4.99875 26.0003 4.99847Z" fill="black"/>
<path fill-rule="evenodd" clip-rule="evenodd" d="M9.8459 13.4725L10.1262 13.1434L10.809 13.1186L10.7348 12.4293L11.0132 12.1027L11.4149 13.1415L10.912 13.7315L9.8459 13.4725ZM17.7747 13.4065L15.9932 9.68083L16.9786 9.19085L17.7877 10.8827L18.1341 8.61591L19.2941 8.03877L18.8134 10.5272L21.193 11.7059L19.9507 12.324L17.9606 11.244L18.7602 12.9163L17.7747 13.4065ZM25.5997 10.1441C25.9067 10.1441 26.1606 10.0292 26.3613 9.79906C26.562 9.5681 26.6626 9.27719 26.6626 8.92662C26.6626 8.57962 26.5609 8.28954 26.3575 8.05665C26.1538 7.82486 25.9008 7.70882 25.5995 7.70882C25.2925 7.70882 25.0383 7.82486 24.8376 8.05582C24.6366 8.28651 24.5363 8.57742 24.5363 8.92662C24.5363 9.28131 24.6348 9.57305 24.8328 9.80126C25.031 10.03 25.2868 10.1441 25.5997 10.1441ZM27.77 8.92634C27.7719 9.21381 27.7171 9.49873 27.6087 9.76414C27.5001 10.0271 27.3406 10.2651 27.1398 10.4639C26.9349 10.666 26.6938 10.8261 26.4295 10.9355C26.163 11.0455 25.8865 11.101 25.5995 11.101C25.3136 11.1019 25.0304 11.0457 24.7659 10.9355C24.5037 10.8272 24.2653 10.6669 24.0645 10.4639C23.8604 10.2651 23.6982 10.026 23.588 9.76112C23.4801 9.49936 23.4262 9.2211 23.4262 8.92634C23.4262 8.62966 23.4801 8.35113 23.588 8.08937C23.697 7.82843 23.8554 7.59444 24.0645 7.38905C24.2652 7.18586 24.5036 7.02546 24.7659 6.91722C25.0304 6.8071 25.3137 6.75095 25.5995 6.75197C25.8881 6.75197 26.166 6.80696 26.4333 6.91722C26.6971 7.02544 26.9372 7.1858 27.1398 7.38905C27.3412 7.58869 27.5009 7.82781 27.6092 8.09201C27.7175 8.35621 27.7722 8.64002 27.77 8.92634ZM32.1101 11.2091L32.2809 11.2833C32.6812 11.4565 33.009 11.5 33.2631 11.4114C33.5164 11.324 33.7188 11.0974 33.8712 10.7317C34.0228 10.3671 34.043 10.0597 33.9292 9.81006C33.8159 9.5604 33.5588 9.34785 33.1584 9.17463L32.9877 9.10039L32.1101 11.2091ZM30.7456 11.627L32.3332 7.81166L33.112 8.14903C33.6926 8.40035 34.0927 8.60629 34.3101 8.76632C34.5167 8.91459 34.693 9.1025 34.8291 9.31953C34.9932 9.58416 35.0862 9.88803 35.0989 10.2008C35.1121 10.5173 35.0482 10.8445 34.9082 11.1807C34.7679 11.5181 34.5815 11.7922 34.3492 12.0023C34.1201 12.2106 33.8411 12.3534 33.5404 12.4164C33.299 12.4666 33.0503 12.469 32.808 12.4235C32.5531 12.3776 32.1827 12.2495 31.6963 12.0386L31.5239 11.9644L30.7456 11.627ZM36.1499 14.4926L40.1644 12.924L41.0565 14.0087L38.8463 17.7701L38.1381 16.9095L38.5633 16.2713L37.5517 15.042L36.8584 15.3538L36.1499 14.4926ZM38.3108 14.7098L39.0195 15.5707L39.7802 14.3681C39.8029 14.3318 39.8415 14.2748 39.8973 14.1979L40.1096 13.9012C40.0174 13.9487 39.93 13.9922 39.8447 14.0334C39.7608 14.0752 39.6799 14.1132 39.6003 14.1495L38.3108 14.7098ZM12.8843 16.3659C13.1333 16.364 13.3462 16.3324 13.5205 16.2708C13.6955 16.2097 13.835 16.1182 13.9394 15.9958C14.0363 15.882 14.0864 15.761 14.0886 15.6351C14.0915 15.576 14.0808 15.517 14.0575 15.4628C14.0342 15.4086 13.9988 15.3606 13.9542 15.3227C13.8523 15.232 13.7468 15.1938 13.6378 15.2083C13.5285 15.2229 13.3489 15.3158 13.0999 15.4871C12.7583 15.7217 12.4678 15.8446 12.2299 15.857C11.9919 15.8685 11.7599 15.7739 11.5339 15.5735C11.2409 15.3136 11.0863 15.0013 11.072 14.6364C11.0569 14.2724 11.1861 13.9311 11.4581 13.6122C11.5985 13.4452 11.7623 13.3001 11.9442 13.1816C12.1239 13.0667 12.3197 12.9805 12.525 12.9259L12.8986 13.726C12.7467 13.7477 12.599 13.7933 12.4608 13.8613C12.3397 13.9218 12.2313 14.0059 12.1419 14.1088C12.0542 14.2116 12.0076 14.3164 12.0008 14.423C11.9941 14.5295 12.0289 14.6169 12.1039 14.6832C12.181 14.7516 12.2668 14.7777 12.3604 14.7623C12.4549 14.7472 12.5911 14.6774 12.7702 14.5545L12.8137 14.5256C13.2016 14.2589 13.4978 14.1203 13.7012 14.1088C13.8433 14.1021 13.9852 14.1265 14.1172 14.1805C14.2637 14.2408 14.3988 14.3264 14.5167 14.4335C14.8421 14.7222 15.0112 15.0629 15.0225 15.4558C15.0349 15.8495 14.8863 16.2273 14.5766 16.5903C14.3907 16.8086 14.1852 16.9744 13.961 17.0893C13.7357 17.2029 13.4751 17.2746 13.1792 17.3021L12.8843 16.3659ZM25.9493 44.7453C27.1679 45.3221 27.9675 46.1008 28.6425 47.2224C28.6767 46.0161 27.9653 45.2124 27.0438 44.5214C27.36 44.5146 27.6756 44.5071 27.9907 44.5005C28.7404 44.9649 29.5392 45.3931 30.683 45.5721C32.0856 45.4002 33.1789 44.9138 33.9645 44.1139C33.3055 43.7136 32.5763 43.5992 31.6925 44.1139C30.7267 44.4909 29.9943 44.4945 29.421 44.2429C30.2552 43.9784 31.0898 43.7136 31.9237 43.4496C32.3583 43.3207 32.7937 43.192 33.2278 43.0639C33.7468 43.2497 34.2653 43.4353 34.7843 43.6207C35.0789 43.9638 35.3455 44.0496 35.5837 43.8783C35.8783 43.7494 35.9204 43.4777 35.7102 43.0639C35.4577 42.8629 35.2055 42.8343 34.953 42.9778L33.859 42.592L34.8054 42.1848C35.9557 42.4565 37.0631 42.4427 38.2134 41.7991C39.03 41.209 39.773 40.509 40.4218 39.634C39.7295 39.4245 39.1371 39.5568 38.6129 39.9769C37.7947 40.8807 36.7529 41.2332 35.8783 41.3918C36.8389 40.5557 37.9469 39.6555 38.9075 38.8193L40.1701 38.9909C40.5062 39.0767 40.787 39.0478 41.0109 38.9054C41.4903 38.0877 41.0336 38.025 40.4431 38.0687C40.3098 38.1902 40.2186 38.3544 40.0859 38.4759C39.8892 38.4047 39.4616 38.4831 39.2655 38.4121C39.5458 38.1405 40.0158 37.6755 40.296 37.4044C41.7444 37.0436 42.7534 36.0574 43.6401 34.8962C43.3598 34.8245 43.079 34.753 42.7987 34.6818C42.8688 34.4959 43.0226 34.3389 43.2619 34.2105L43.7877 33.9311C43.928 33.3306 43.7035 33.1024 43.1143 33.2451L42.7777 33.9311C42.5948 34.1745 42.462 34.2677 42.3361 34.3386C42.3293 34.0166 42.3218 33.6952 42.315 33.3735L41.5578 33.8027C41.465 33.3378 41.6689 33.0735 41.9155 32.8376C41.8238 32.1879 41.5645 32.0523 41.1372 32.4304C41.2456 32.9347 41.1577 33.2385 40.8742 33.3416L40.4638 32.9019C39.6826 34.1057 39.5561 35.5064 39.7276 36.9969L38.8228 38.0904L38.6127 36.8471L38.8652 36.5465C38.753 35.6876 38.0521 35.687 37.9399 36.2897C37.8686 36.4599 37.8476 36.6521 38.1711 36.9969C38.2274 37.4971 38.2833 37.9975 38.3391 38.4976C37.4065 39.2912 36.495 40.2334 35.5629 41.0275C35.5486 40.9558 35.5138 40.7341 35.4998 40.6629C35.936 39.9104 36.3533 39.1564 37.1826 38.6907C37.4424 38.0965 37.6037 37.5749 37.4351 37.0612C36.3013 37.8699 35.3719 38.7954 34.7428 39.8911C34.6516 40.3981 34.5599 40.9057 34.4693 41.4133C34.1183 41.6418 33.7679 41.87 33.4177 42.099C33.4244 41.7919 33.6001 41.4842 33.6068 41.1774C34.4398 40.0943 33.2137 39.6599 32.9124 40.6409C33.0184 41.2772 33.0179 41.7919 32.7864 42.3138C31.5592 42.8062 30.4586 43.2998 29.2314 43.7928C29.2246 43.6853 29.3646 43.3856 29.3579 43.2781C30.0593 42.592 30.6836 42.3138 31.7769 42.1419C32.2463 41.7487 32.436 41.3415 32.3448 40.8342C31.3405 41.0185 30.3415 41.3006 29.5049 41.8843C28.7199 42.3776 28.2087 43.0422 28.0959 43.8783C27.619 43.9209 27.1423 43.9641 26.6653 44.0073C26.9667 43.671 27.268 43.3355 27.5701 42.9995C27.7315 42.9206 27.8925 42.8423 28.0538 42.7639C28.2594 41.8252 27.8234 41.8403 27.2966 41.9918C27.1347 42.1733 27.0727 42.3952 27.0859 42.6349C26.7498 43.007 26.4131 43.3782 25.9491 43.6094L24.812 42.3534C24.8579 42.1095 24.788 41.8956 24.6016 41.7103C24.0744 41.5585 23.639 41.5436 23.8443 42.4826C24.0183 42.6517 24.1832 42.7567 24.328 42.718C24.6294 43.0545 24.931 43.39 25.2326 43.7257C24.7558 43.6831 24.279 43.6401 23.8022 43.5967C23.6895 42.7606 23.1783 42.096 22.393 41.6033C21.5564 41.019 20.5574 40.7369 19.5533 40.553C19.4622 41.06 19.6515 41.4672 20.1212 41.8604C21.2143 42.032 21.8388 42.3108 22.5402 42.9965C22.533 43.104 22.6735 43.404 22.6665 43.5115C21.439 43.0182 20.3386 42.5252 19.1117 42.032C18.8803 41.5104 18.88 40.9956 18.9855 40.3599C18.6844 39.3786 17.458 39.8133 18.2914 40.8958C18.2984 41.2032 18.4734 41.5101 18.4807 41.8175C18.13 41.5893 17.7793 41.3602 17.4289 41.1317L17.1553 39.6096C16.526 38.5144 15.5969 37.5883 14.463 36.7797C14.2942 37.2933 14.4552 37.8149 14.7155 38.4091C15.5445 38.8746 15.9616 39.6291 16.3981 40.3814C16.3841 40.4531 16.349 40.6742 16.335 40.746C15.4024 39.9527 14.4911 39.0093 13.5585 38.2161L13.7268 36.7153C14.0503 36.3708 14.0292 36.1784 13.958 36.0082C13.8455 35.406 13.1447 35.4065 13.0324 36.2652L13.2849 36.5655L13.0748 37.8089L12.17 36.7153C12.3418 35.2248 12.2153 33.8244 11.4338 32.6207C11.2967 32.7669 11.16 32.9135 11.0234 33.06C10.7399 32.9569 10.6522 32.6531 10.7607 32.1494C10.3334 31.7708 10.0739 31.9063 9.9824 32.5563C10.229 32.7917 10.4324 33.0559 10.3398 33.5214C10.0876 33.3782 9.83511 33.2355 9.5826 33.0925L9.56156 34.0568C9.43612 33.9858 9.30285 33.8929 9.11968 33.6496C9.00772 33.4211 8.8955 33.1923 8.783 32.9638C8.19436 32.8208 7.96991 33.0496 8.10992 33.6496C8.28527 33.743 8.46062 33.836 8.63571 33.9289C8.87472 34.057 9.02849 34.2146 9.09863 34.4002L8.25722 34.6147C9.14395 35.7758 10.1532 36.7626 11.6016 37.1228C11.8821 37.3945 12.3521 37.8589 12.6324 38.1306C12.436 38.202 12.0084 38.1237 11.812 38.1946C11.679 38.0734 11.5878 37.9089 11.4543 37.7877C10.864 37.7434 10.407 37.8067 10.8864 38.6238C11.1106 38.7663 11.3911 38.7951 11.7278 38.7096C12.1487 38.6524 12.5692 38.595 12.9898 38.5383C13.9505 39.3739 15.0584 40.2744 16.0188 41.1108C15.1442 40.9519 14.1023 40.5994 13.2844 39.6956C12.7605 39.2755 12.1681 39.1432 11.4753 39.3528C12.1238 40.2282 12.8671 40.928 13.6839 41.5181C14.834 42.1617 15.9416 42.1755 17.0914 41.9041L18.038 42.311C17.6733 42.4394 17.3088 42.5684 16.9444 42.6971C16.6916 42.5538 16.4396 42.5822 16.1869 42.7829C15.9767 43.1964 16.0185 43.4681 16.3131 43.597C16.5516 43.7683 16.8181 43.6828 17.1125 43.3402C17.6312 43.1538 18.1503 42.9682 18.669 42.7829L19.9731 43.1684C20.8075 43.4326 21.6416 43.6977 22.476 43.9616C21.9028 44.2135 21.1703 44.2096 20.2046 43.8332C19.3213 43.3179 18.5919 43.4326 17.9328 43.8332C18.7181 44.6325 19.8118 45.1189 21.2143 45.2908C22.3582 45.1126 23.1569 44.6842 23.9069 44.2193C24.222 44.2264 24.5376 44.233 24.8533 44.2404C23.9323 44.9314 23.2209 45.7351 23.2549 46.9419C23.9306 45.8192 24.7305 45.0403 25.9493 44.7453Z" fill="black"/>
<path fill-rule="evenodd" clip-rule="evenodd" d="M36.8223 33.8402C36.4119 32.8286 32.9033 30.321 32.4468 32.8773L31.1838 32.6329C33.9009 26.735 33.0776 15.6013 26.7172 14.5095C25.7479 14.3475 21.7974 15.4119 23.6037 16.7746C24.8234 17.6946 25.4943 18.2805 26.1083 19.7087L25.5733 20.026C24.5633 18.6688 23.3639 17.2684 21.9805 16.4727C20.5003 15.6662 17.0432 19.6419 17.4732 19.8253C18.8566 20.4863 20.6444 21.34 21.663 22.089L21.2233 22.8042C19.8197 21.9735 17.5773 20.8357 16.4494 20.905C15.871 20.9903 14.6212 25.121 15.2516 25.2816C16.5549 25.3918 18.9961 26.7295 20.1175 27.3108C20.9033 27.947 23.3043 32.0675 22.3361 32.6551C22.0253 32.844 21.0568 32.626 20.077 32.1302C15.5729 30.2652 15.2314 32.3395 16.0777 32.9771C16.7567 33.4085 16.5239 34.1707 16.5571 34.3651C16.5214 35.5175 17.7324 36.4259 20.0684 34.805C24.8579 34.8694 27.5818 34.9714 32.378 35.0442C32.8189 36.4784 35.8443 35.0277 36.8223 33.8402ZM29.3957 28.3685C29.9299 28.9127 29.9401 29.7912 29.4173 30.3238C28.895 30.8561 28.0337 30.8462 27.499 30.3015C26.9648 29.7571 26.9551 28.8786 27.4779 28.3465C27.9999 27.8139 28.8613 27.8238 29.3957 28.3685Z" fill="black"/>
<path d="M26.1255 12.0322H26.1261C30.0701 12.0322 33.6502 13.6715 36.2441 16.3158C38.8379 18.9595 40.446 22.6082 40.4466 26.6273V26.629C40.446 30.6486 38.8379 34.2979 36.2435 36.9416C33.6497 39.5853 30.0698 41.2246 26.1266 41.2249H26.125C22.1812 41.2246 18.6008 39.5853 16.0069 36.9413C13.4131 34.2976 11.805 30.6486 11.8044 26.6298V26.6279C11.8047 22.6083 13.4131 18.9593 16.0072 16.3153C18.6011 13.6715 22.1809 12.0325 26.1244 12.0322H26.1255ZM26.1261 12.5604H26.1244C22.3242 12.5607 18.8738 14.1406 16.3733 16.6887C13.873 19.237 12.3227 22.754 12.3227 26.6279V26.6298C12.3227 30.5031 13.8728 34.0199 16.373 36.5682C18.8735 39.1168 22.3242 40.697 26.1247 40.697H26.1263C29.9269 40.6967 33.377 39.1168 35.8772 36.5685C38.3774 34.0199 39.9281 30.5029 39.9281 26.6293V26.6273C39.9275 22.754 38.378 19.2373 35.8777 16.6889C33.3775 14.1406 29.9269 12.5604 26.1261 12.5604Z" fill="black"/>
</svg>
