<svg width="17" height="12" viewBox="0 0 17 12" fill="none" xmlns="http://www.w3.org/2000/svg">
<path d="M15.8952 9.69223H4.60484C4.44443 9.69223 4.29058 9.61929 4.17715 9.48946C4.06372 9.35963 4 9.18354 4 8.99992C4 8.81631 4.06372 8.64022 4.17715 8.51039C4.29058 8.38056 4.44443 8.30762 4.60484 8.30762H15.8952C16.0556 8.30762 16.2094 8.38056 16.3228 8.51039C16.4363 8.64022 16.5 8.81631 16.5 8.99992C16.5 9.18354 16.4363 9.35963 16.3228 9.48946C16.2094 9.61929 16.0556 9.69223 15.8952 9.69223Z" fill="#304CD9"/>
<path d="M15.8952 7.38462H4.60484C4.44443 7.38462 4.29058 7.31168 4.17715 7.18184C4.06372 7.05201 4 6.87592 4 6.69231C4 6.5087 4.06372 6.33261 4.17715 6.20277C4.29058 6.07294 4.44443 6 4.60484 6H15.8952C16.0556 6 16.2094 6.07294 16.3228 6.20277C16.4363 6.33261 16.5 6.5087 16.5 6.69231C16.5 6.87592 16.4363 7.05201 16.3228 7.18184C16.2094 7.31168 16.0556 7.38462 15.8952 7.38462Z" fill="#304CD9"/>
<path d="M15.8952 11.9998H4.60484C4.44443 11.9998 4.29058 11.9269 4.17715 11.7971C4.06372 11.6672 4 11.4912 4 11.3075C4 11.1239 4.06372 10.9478 4.17715 10.818C4.29058 10.6882 4.44443 10.6152 4.60484 10.6152H15.8952C16.0556 10.6152 16.2094 10.6882 16.3228 10.818C16.4363 10.9478 16.5 11.1239 16.5 11.3075C16.5 11.4912 16.4363 11.6672 16.3228 11.7971C16.2094 11.9269 16.0556 11.9998 15.8952 11.9998Z" fill="#304CD9"/>
<rect x="0.5" y="0.5" width="16" height="4" rx="0.5" stroke="#304CD9"/>
<path d="M13.0042 2.19286C13.0052 2.16697 13.0117 2.14156 13.0235 2.11818C13.0352 2.0948 13.0518 2.07394 13.0723 2.05689C13.1105 2.02093 13.1621 2.00085 13.2159 2.00105C13.2697 2.00126 13.3212 2.02173 13.3591 2.05797L14.1678 2.83212L14.9824 2.06411C15.0214 2.04901 15.0644 2.04582 15.1054 2.055C15.1465 2.06417 15.1835 2.08525 15.2113 2.11531C15.2392 2.14537 15.2565 2.18291 15.2608 2.22273C15.2652 2.26255 15.2564 2.30267 15.2357 2.33752L14.2854 3.23353C14.2472 3.26949 14.1955 3.28957 14.1418 3.28936C14.088 3.28916 14.0365 3.26869 13.9986 3.23245L13.0713 2.32933C13.0509 2.31212 13.0344 2.29114 13.0229 2.26767C13.0113 2.2442 13.005 2.21874 13.0042 2.19286Z" fill="#304CD9"/>
</svg>
