<svg width="18" height="12" viewBox="0 0 18 12" fill="none" xmlns="http://www.w3.org/2000/svg">
<path d="M15.947 9.69223H5.55993C5.41235 9.69223 5.27081 9.61929 5.16646 9.48946C5.0621 9.35963 5.00348 9.18354 5.00348 8.99992C5.00348 8.81631 5.0621 8.64022 5.16646 8.51039C5.27081 8.38056 5.41235 8.30762 5.55993 8.30762H15.947C16.0946 8.30762 16.2361 8.38056 16.3405 8.51039C16.4449 8.64022 16.5035 8.81631 16.5035 8.99992C16.5035 9.18354 16.4449 9.35963 16.3405 9.48946C16.2361 9.61929 16.0946 9.69223 15.947 9.69223Z" fill="#304CD9"/>
<path d="M15.947 7.38462H5.55993C5.41235 7.38462 5.27081 7.31168 5.16646 7.18184C5.0621 7.05201 5.00348 6.87592 5.00348 6.69231C5.00348 6.5087 5.0621 6.33261 5.16646 6.20277C5.27081 6.07294 5.41235 6 5.55993 6H15.947C16.0946 6 16.2361 6.07294 16.3405 6.20277C16.4449 6.33261 16.5035 6.5087 16.5035 6.69231C16.5035 6.87592 16.4449 7.05201 16.3405 7.18184C16.2361 7.31168 16.0946 7.38462 15.947 7.38462Z" fill="#304CD9"/>
<path d="M15.947 11.9998H5.55993C5.41235 11.9998 5.27081 11.9269 5.16646 11.7971C5.0621 11.6672 5.00348 11.4912 5.00348 11.3075C5.00348 11.1239 5.0621 10.9478 5.16646 10.818C5.27081 10.6882 5.41235 10.6152 5.55993 10.6152H15.947C16.0946 10.6152 16.2361 10.6882 16.3405 10.818C16.4449 10.9478 16.5035 11.1239 16.5035 11.3075C16.5035 11.4912 16.4449 11.6672 16.3405 11.7971C16.2361 11.9269 16.0946 11.9998 15.947 11.9998Z" fill="#304CD9"/>
<rect x="0.503479" y="0.5" width="16" height="4" rx="0.5" stroke="#304CD9"/>
<path d="M13.0076 2.19286C13.0086 2.16697 13.0152 2.14156 13.0269 2.11818C13.0387 2.0948 13.0553 2.07394 13.0758 2.05689C13.114 2.02093 13.1656 2.00085 13.2194 2.00105C13.2732 2.00126 13.3247 2.02173 13.3626 2.05797L14.1713 2.83212L14.9859 2.06411C15.0249 2.04901 15.0679 2.04582 15.1089 2.055C15.1499 2.06417 15.187 2.08525 15.2148 2.11531C15.2426 2.14537 15.2599 2.18291 15.2643 2.22273C15.2687 2.26255 15.2599 2.30267 15.2392 2.33752L14.2888 3.23353C14.2507 3.26949 14.199 3.28957 14.1452 3.28936C14.0915 3.28916 14.04 3.26869 14.0021 3.23245L13.0748 2.32933C13.0544 2.31212 13.0379 2.29114 13.0264 2.26767C13.0148 2.2442 13.0084 2.21874 13.0076 2.19286Z" fill="#304CD9"/>
</svg>
