<svg width="18" height="12" viewBox="0 0 18 12" fill="none" xmlns="http://www.w3.org/2000/svg">
<path d="M16.9435 9.69223H6.55645C6.40887 9.69223 6.26734 9.61929 6.16298 9.48946C6.05863 9.35963 6 9.18354 6 8.99992C6 8.81631 6.05863 8.64022 6.16298 8.51039C6.26734 8.38056 6.40887 8.30762 6.55645 8.30762H16.9435C17.0911 8.30762 17.2327 8.38056 17.337 8.51039C17.4414 8.64022 17.5 8.81631 17.5 8.99992C17.5 9.18354 17.4414 9.35963 17.337 9.48946C17.2327 9.61929 17.0911 9.69223 16.9435 9.69223Z" fill="#304CD9"/>
<path d="M16.9435 7.38462H6.55645C6.40887 7.38462 6.26734 7.31168 6.16298 7.18184C6.05863 7.05201 6 6.87592 6 6.69231C6 6.5087 6.05863 6.33261 6.16298 6.20277C6.26734 6.07294 6.40887 6 6.55645 6H16.9435C17.0911 6 17.2327 6.07294 17.337 6.20277C17.4414 6.33261 17.5 6.5087 17.5 6.69231C17.5 6.87592 17.4414 7.05201 17.337 7.18184C17.2327 7.31168 17.0911 7.38462 16.9435 7.38462Z" fill="#304CD9"/>
<path d="M16.9435 11.9998H6.55645C6.40887 11.9998 6.26734 11.9269 6.16298 11.7971C6.05863 11.6672 6 11.4912 6 11.3075C6 11.1239 6.05863 10.9478 6.16298 10.818C6.26734 10.6882 6.40887 10.6152 6.55645 10.6152H16.9435C17.0911 10.6152 17.2327 10.6882 17.337 10.818C17.4414 10.9478 17.5 11.1239 17.5 11.3075C17.5 11.4912 17.4414 11.6672 17.337 11.7971C17.2327 11.9269 17.0911 11.9998 16.9435 11.9998Z" fill="#304CD9"/>
<rect x="1.5" y="0.5" width="16" height="4" rx="0.5" stroke="#304CD9"/>
<path d="M14.0042 2.19286C14.0052 2.16697 14.0117 2.14156 14.0235 2.11818C14.0352 2.0948 14.0518 2.07394 14.0723 2.05689C14.1105 2.02093 14.1621 2.00085 14.2159 2.00105C14.2697 2.00126 14.3212 2.02173 14.3591 2.05797L15.1678 2.83212L15.9824 2.06411C16.0214 2.04901 16.0644 2.04582 16.1054 2.055C16.1465 2.06417 16.1835 2.08525 16.2113 2.11531C16.2392 2.14537 16.2565 2.18291 16.2608 2.22273C16.2652 2.26255 16.2564 2.30267 16.2357 2.33752L15.2854 3.23353C15.2472 3.26949 15.1955 3.28957 15.1418 3.28936C15.088 3.28916 15.0365 3.26869 14.9986 3.23245L14.0713 2.32933C14.0509 2.31212 14.0344 2.29114 14.0229 2.26767C14.0113 2.2442 14.005 2.21874 14.0042 2.19286Z" fill="#304CD9"/>
<path d="M3.28385 9.81443L4.96555 8.34388C4.98449 8.32854 5.00011 8.30965 5.01147 8.28831C5.02284 8.26698 5.02972 8.24362 5.03172 8.21962L5.1329 6.40505C5.13459 6.38064 5.13127 6.35614 5.12312 6.33299C5.11498 6.30983 5.10218 6.2885 5.08548 6.27024C5.06878 6.25199 5.04852 6.23718 5.02589 6.22669C5.00326 6.2162 4.97873 6.21024 4.95373 6.20918L3.09812 6.10571C3.04852 6.10338 2.99992 6.11967 2.96228 6.15125L1.28304 7.62194C1.17351 7.71809 1.10751 7.85286 1.09948 7.99675C1.09146 8.14064 1.14207 8.28191 1.24023 8.38964L2.49905 9.76585C2.59695 9.87381 2.7345 9.93955 2.88159 9.94866C3.02869 9.95776 3.17333 9.9095 3.28385 9.81443ZM2.77388 9.53011L1.51506 8.1539C1.48285 8.11745 1.46635 8.07022 1.46903 8.02218C1.4717 7.97414 1.49336 7.92904 1.52942 7.89639L3.15402 6.47577L4.74876 6.56469L4.66181 8.12416L3.03721 9.54479C3.00001 9.5762 2.95177 9.59222 2.90264 9.58948C2.85351 9.58674 2.80735 9.56546 2.77388 9.53011Z" fill="#304CD9"/>
<path d="M3.66778 7.22355C3.65851 7.38969 3.78873 7.53205 3.95863 7.54153C4.12853 7.551 4.27377 7.424 4.28303 7.25786C4.29229 7.09172 4.16208 6.94935 3.99218 6.93988C3.82228 6.93041 3.67704 7.05741 3.66778 7.22355Z" fill="#304CD9"/>
</svg>
