<svg width="17" height="16" viewBox="0 0 17 16" fill="none" xmlns="http://www.w3.org/2000/svg">
<path d="M14.0125 6.56383C14.0125 6.16551 13.6676 5.84082 13.2443 5.84082C12.8211 5.84082 12.4761 6.16551 12.4761 6.56383C12.4761 8.62911 10.6908 10.3061 8.49998 10.3061C6.30918 10.3061 4.52383 8.62576 4.52383 6.56383C4.52383 6.16551 4.17885 5.84082 3.75563 5.84082C3.33241 5.84082 2.98743 6.16551 2.98743 6.56383C2.98743 9.18141 5.05374 11.3504 7.73178 11.7019V14.5538H5.75437C5.33115 14.5538 4.98617 14.8785 4.98617 15.2768C4.98617 15.6751 5.33115 15.9998 5.75437 15.9998H11.2491C11.6724 15.9998 12.0173 15.6751 12.0173 15.2768C12.0173 14.8785 11.6724 14.5538 11.2491 14.5538H9.27174V11.7019C11.9462 11.3504 14.0125 9.17806 14.0125 6.56383Z" fill="#304CD9"/>
<path d="M8.49996 0C6.84975 0 5.51251 1.25858 5.51251 2.81172V6.51715C5.51251 8.07029 6.84975 9.32887 8.49996 9.32887C10.1502 9.32887 11.4874 8.07029 11.4874 6.51715V2.81172C11.4874 1.25858 10.1502 0 8.49996 0ZM8.50352 1.87113C7.96649 1.87113 7.52904 2.28285 7.52904 2.78828C7.52904 3.01925 7.32988 3.20669 7.08448 3.20669C6.83908 3.20669 6.63992 3.01925 6.63992 2.78828C6.63992 1.82092 7.47569 1.03431 8.50352 1.03431C8.74891 1.03431 8.94808 1.22176 8.94808 1.45272C8.94808 1.68368 8.74891 1.87113 8.50352 1.87113Z" fill="#304CD9"/>
</svg>
