<svg width="23" height="23" viewBox="0 0 23 23" fill="none" xmlns="http://www.w3.org/2000/svg">
<path d="M15.302 15.8858C15.1663 15.7653 15.0812 15.598 15.0635 15.4175C14.8669 13.6459 14.0238 12.0092 12.6955 10.8206C11.3672 9.63206 9.64711 8.97527 7.86469 8.97602C7.76608 8.97601 7.66843 8.95655 7.57735 8.91876C7.48626 8.88097 7.40352 8.82558 7.33387 8.75578C7.26421 8.68597 7.209 8.60311 7.17141 8.51195C7.13381 8.42078 7.11457 8.32309 7.11477 8.22448C7.11914 8.026 7.201 7.83712 7.34284 7.69822C7.48468 7.55932 7.67524 7.48143 7.87376 7.48122C10.023 7.47501 12.0985 8.26459 13.7002 9.69775C15.3019 11.1309 16.3164 13.1062 16.5481 15.243C16.5699 15.4403 16.5136 15.6383 16.3913 15.7946C16.2689 15.951 16.0903 16.0533 15.8935 16.0796C15.7869 16.089 15.6795 16.0767 15.5779 16.0434C15.4762 16.0101 15.3823 15.9565 15.302 15.8858Z" fill="#304CD9"/>
<path d="M19.1373 15.5733C18.9971 15.4466 18.9092 15.2722 18.8906 15.0842C18.669 12.3002 17.3844 9.70827 15.3031 7.84598C13.2219 5.98369 10.5037 4.99392 7.71225 5.08194C7.60638 5.09703 7.49851 5.08931 7.39588 5.0593C7.29324 5.02928 7.1982 4.97766 7.11715 4.9079C7.0361 4.83814 6.9709 4.75186 6.92593 4.65484C6.88096 4.55781 6.85726 4.4523 6.85642 4.34536C6.85557 4.23843 6.87761 4.13255 6.92104 4.03483C6.96448 3.93711 7.0283 3.84981 7.10825 3.77878C7.18819 3.70775 7.2824 3.65464 7.38455 3.62301C7.4867 3.59138 7.59444 3.58196 7.70053 3.59538C10.8615 3.50561 13.9367 4.63081 16.2932 6.73945C18.6498 8.84809 20.1086 11.7798 20.3693 14.9313C20.3833 15.0797 20.3527 15.229 20.2814 15.3599C20.2101 15.4909 20.1014 15.5977 19.9692 15.6666C19.837 15.7355 19.6872 15.7634 19.539 15.7468C19.3908 15.7302 19.251 15.6698 19.1373 15.5733Z" fill="#304CD9"/>
<path d="M7.46218 12.6952C7.37541 12.6176 7.30791 12.5208 7.26502 12.4126C7.22214 12.3043 7.20504 12.1876 7.21509 12.0716C7.22229 11.973 7.24917 11.8768 7.29415 11.7887C7.33913 11.7007 7.40131 11.6226 7.47699 11.5589C7.55268 11.4953 7.64035 11.4475 7.73482 11.4184C7.82929 11.3892 7.92865 11.3792 8.02703 11.3891C9.13534 11.4744 10.1847 11.9222 11.0131 12.6634C11.8415 13.4046 12.4027 14.398 12.6101 15.49C12.6295 15.5866 12.6296 15.6861 12.6104 15.7827C12.5913 15.8793 12.5534 15.9712 12.4987 16.0531C12.4441 16.1351 12.3739 16.2055 12.292 16.2603C12.2102 16.3151 12.1184 16.3532 12.0218 16.3725C11.827 16.4088 11.6258 16.3677 11.4609 16.2578C11.2961 16.1479 11.1807 15.9779 11.1393 15.7842C10.9908 15.0125 10.5933 14.3109 10.0078 13.7869C9.42219 13.263 8.68087 12.9456 7.89755 12.8835C7.7364 12.8675 7.58424 12.8017 7.46218 12.6952Z" fill="#304CD9"/>
<path d="M7.34086 16.7595C7.19262 16.6269 7.10315 16.4408 7.09212 16.2422C7.0811 16.0436 7.14942 15.8488 7.28205 15.7005C7.41469 15.5523 7.60078 15.4628 7.79939 15.4518C7.998 15.4408 8.19285 15.5091 8.34108 15.6417C8.48932 15.7744 8.57879 15.9604 8.58982 16.159C8.60084 16.3577 8.53252 16.5525 8.39989 16.7007C8.26725 16.849 8.08116 16.9384 7.88255 16.9495C7.68394 16.9605 7.48909 16.8922 7.34086 16.7595Z" fill="#304CD9"/>
</svg>
