<svg width="16" height="11" viewBox="0 0 16 11" fill="none" xmlns="http://www.w3.org/2000/svg">
<path d="M14.75 6H0.75C0.551088 6 0.360322 5.92098 0.21967 5.78033C0.0790175 5.63968 0 5.44891 0 5.25C0 5.05109 0.0790175 4.86032 0.21967 4.71967C0.360322 4.57902 0.551088 4.5 0.75 4.5H14.75C14.9489 4.5 15.1397 4.57902 15.2803 4.71967C15.421 4.86032 15.5 5.05109 15.5 5.25C15.5 5.44891 15.421 5.63968 15.2803 5.78033C15.1397 5.92098 14.9489 6 14.75 6Z" fill="#304CD9"/>
<path d="M14.75 1.5H0.75C0.551088 1.5 0.360322 1.42098 0.21967 1.28033C0.0790175 1.13968 0 0.948912 0 0.75C0 0.551088 0.0790175 0.360322 0.21967 0.21967C0.360322 0.0790175 0.551088 0 0.75 0H14.75C14.9489 0 15.1397 0.0790175 15.2803 0.21967C15.421 0.360322 15.5 0.551088 15.5 0.75C15.5 0.948912 15.421 1.13968 15.2803 1.28033C15.1397 1.42098 14.9489 1.5 14.75 1.5Z" fill="#304CD9"/>
<path d="M14.75 10.5H0.75C0.551088 10.5 0.360322 10.421 0.21967 10.2803C0.0790175 10.1397 0 9.94891 0 9.75C0 9.55109 0.0790175 9.36032 0.21967 9.21967C0.360322 9.07902 0.551088 9 0.75 9H14.75C14.9489 9 15.1397 9.07902 15.2803 9.21967C15.421 9.36032 15.5 9.55109 15.5 9.75C15.5 9.94891 15.421 10.1397 15.2803 10.2803C15.1397 10.421 14.9489 10.5 14.75 10.5Z" fill="#304CD9"/>
</svg>
