<svg width="10" height="9" viewBox="0 0 10 9" fill="none" xmlns="http://www.w3.org/2000/svg">
<path d="M5.58545 8.50296C5.52386 8.50325 5.46284 8.49123 5.40595 8.46762C5.34907 8.44401 5.29748 8.40928 5.2542 8.36546C5.16642 8.27757 5.11711 8.15843 5.11711 8.03421C5.11711 7.90999 5.16642 7.79085 5.2542 7.70296L8.67295 4.28421L5.2542 0.865456C5.1714 0.776597 5.12632 0.659067 5.12846 0.537629C5.13061 0.416191 5.1798 0.300325 5.26569 0.214442C5.35157 0.128559 5.46743 0.0793641 5.58887 0.0772215C5.71031 0.0750788 5.82784 0.120156 5.9167 0.202956L9.6667 3.95296C9.75448 4.04085 9.80379 4.15999 9.80379 4.28421C9.80379 4.40842 9.75448 4.52757 9.6667 4.61546L5.9167 8.36546C5.87342 8.40928 5.82183 8.44401 5.76494 8.46762C5.70806 8.49123 5.64704 8.50325 5.58545 8.50296Z" fill="#304CD9"/>
<path d="M9.33545 4.75293H0.585449C0.461129 4.75293 0.341901 4.70354 0.253993 4.61564C0.166085 4.52773 0.116699 4.4085 0.116699 4.28418C0.116699 4.15986 0.166085 4.04063 0.253993 3.95272C0.341901 3.86482 0.461129 3.81543 0.585449 3.81543H9.33545C9.45977 3.81543 9.579 3.86482 9.66691 3.95272C9.75481 4.04063 9.8042 4.15986 9.8042 4.28418C9.8042 4.4085 9.75481 4.52773 9.66691 4.61564C9.579 4.70354 9.45977 4.75293 9.33545 4.75293Z" fill="#304CD9"/>
</svg>
