<svg width="11" height="10" viewBox="0 0 11 10" fill="none" xmlns="http://www.w3.org/2000/svg">
<path d="M4.64795 0.651341C4.70954 0.651051 4.77056 0.663063 4.82744 0.686675C4.88433 0.710286 4.93592 0.745021 4.9792 0.78884C5.06698 0.876732 5.11629 0.995872 5.11629 1.12009C5.11629 1.24431 5.06698 1.36345 4.9792 1.45134L1.56045 4.87009L4.9792 8.28884C5.062 8.3777 5.10708 8.49523 5.10493 8.61667C5.10279 8.73811 5.0536 8.85397 4.96771 8.93985C4.88183 9.02574 4.76596 9.07493 4.64453 9.07708C4.52309 9.07922 4.40556 9.03414 4.3167 8.95134L0.566699 5.20134C0.478917 5.11345 0.429612 4.99431 0.429612 4.87009C0.429612 4.74587 0.478917 4.62673 0.566699 4.53884L4.3167 0.78884C4.35998 0.745021 4.41157 0.710286 4.46845 0.686675C4.52534 0.663063 4.58636 0.651051 4.64795 0.651341Z" fill="#304CD9"/>
<path d="M0.897949 4.40137L9.64795 4.40137C9.77227 4.40137 9.8915 4.45075 9.97941 4.53866C10.0673 4.62657 10.1167 4.7458 10.1167 4.87012C10.1167 4.99444 10.0673 5.11367 9.97941 5.20157C9.8915 5.28948 9.77227 5.33887 9.64795 5.33887L0.897949 5.33887C0.773629 5.33887 0.6544 5.28948 0.566492 5.20157C0.478585 5.11367 0.429199 4.99444 0.429199 4.87012C0.429199 4.7458 0.478585 4.62657 0.566492 4.53866C0.6544 4.45075 0.773629 4.40137 0.897949 4.40137Z" fill="#304CD9"/>
</svg>
