<svg width="50" height="17" viewBox="0 0 50 17" fill="none" xmlns="http://www.w3.org/2000/svg">
<path d="M8.5 0C3.81742 0 0 3.81742 0 8.5C0 13.1826 3.81742 17 8.5 17C10.5958 17 12.5155 16.2315 14 14.9668C15.4845 16.2315 17.4042 17 19.5 17C21.5958 17 23.5155 16.2315 25 14.9668C26.4845 16.2315 28.4042 17 30.5 17C32.5958 17 34.5155 16.2315 36 14.9668C37.4845 16.2315 39.4042 17 41.5 17C46.1826 17 50 13.1826 50 8.5C50 3.81742 46.1826 0 41.5 0C39.4042 0 37.4845 0.76851 36 2.0332C34.5155 0.76851 32.5958 0 30.5 0C28.4042 0 26.4845 0.76851 25 2.0332C23.5155 0.76851 21.5958 0 19.5 0C17.4042 0 15.4845 0.76851 14 2.0332C12.5155 0.76851 10.5958 0 8.5 0ZM8.5 2C10.0812 2 11.526 2.5587 12.6504 3.49023C11.6179 4.8974 11 6.62714 11 8.5C11 10.3729 11.6179 12.1026 12.6504 13.5098C11.526 14.4413 10.0812 15 8.5 15C4.8983 15 2 12.1017 2 8.5C2 4.8983 4.8983 2 8.5 2ZM19.5 2C21.0812 2 22.526 2.5587 23.6504 3.49023C22.6179 4.8974 22 6.62714 22 8.5C22 10.3729 22.6179 12.1026 23.6504 13.5098C22.526 14.4413 21.0812 15 19.5 15C17.9188 15 16.474 14.4413 15.3496 13.5098C16.3821 12.1026 17 10.3729 17 8.5C17 6.62714 16.3821 4.8974 15.3496 3.49023C16.474 2.5587 17.9188 2 19.5 2ZM30.5 2C32.0812 2 33.526 2.5587 34.6504 3.49023C33.6179 4.8974 33 6.62714 33 8.5C33 10.3729 33.6179 12.1026 34.6504 13.5098C33.526 14.4413 32.0812 15 30.5 15C28.9188 15 27.474 14.4413 26.3496 13.5098C27.3821 12.1026 28 10.3729 28 8.5C28 6.62714 27.3821 4.8974 26.3496 3.49023C27.474 2.5587 28.9188 2 30.5 2ZM41.5 2C45.1017 2 48 4.8983 48 8.5C48 12.1017 45.1017 15 41.5 15C39.9188 15 38.474 14.4413 37.3496 13.5098C38.3821 12.1026 39 10.3729 39 8.5C39 6.62714 38.3821 4.8974 37.3496 3.49023C38.474 2.5587 39.9188 2 41.5 2ZM14 5.03711C14.6305 6.03926 15 7.22336 15 8.5C15 9.77664 14.6305 10.9607 14 11.9629C13.3695 10.9607 13 9.77664 13 8.5C13 7.22336 13.3695 6.03926 14 5.03711ZM25 5.03711C25.6305 6.03926 26 7.22336 26 8.5C26 9.77664 25.6305 10.9607 25 11.9629C24.3695 10.9607 24 9.77664 24 8.5C24 7.22336 24.3695 6.03926 25 5.03711ZM36 5.03711C36.6305 6.03926 37 7.22336 37 8.5C37 9.77664 36.6305 10.9607 36 11.9629C35.3695 10.9607 35 9.77664 35 8.5C35 7.22336 35.3695 6.03926 36 5.03711Z" fill="black"/>
</svg>
