<svg width="10" height="10" viewBox="0 0 16 16" fill="none" xmlns="http://www.w3.org/2000/svg">
<path d="M13 15.2913H3C2.39221 15.2913 1.80932 15.0499 1.37955 14.6201C0.949775 14.1904 0.708332 13.6075 0.708332 12.9997V2.99967C0.708332 2.39189 0.949775 1.80899 1.37955 1.37922C1.80932 0.94945 2.39221 0.708008 3 0.708008H10.3833C10.5491 0.708008 10.7081 0.773856 10.8253 0.891066C10.9425 1.00828 11.0083 1.16725 11.0083 1.33301C11.0083 1.49877 10.9425 1.65774 10.8253 1.77495C10.7081 1.89216 10.5491 1.95801 10.3833 1.95801H3C2.72373 1.95801 2.45878 2.06775 2.26343 2.2631C2.06808 2.45846 1.95833 2.72341 1.95833 2.99967V12.9997C1.95833 13.2759 2.06808 13.5409 2.26343 13.7362C2.45878 13.9316 2.72373 14.0413 3 14.0413H13C13.2763 14.0413 13.5412 13.9316 13.7366 13.7362C13.9319 13.5409 14.0417 13.2759 14.0417 12.9997V6.57467C14.0417 6.40891 14.1075 6.24994 14.2247 6.13273C14.3419 6.01552 14.5009 5.94967 14.6667 5.94967C14.8324 5.94967 14.9914 6.01552 15.1086 6.13273C15.2258 6.24994 15.2917 6.40891 15.2917 6.57467V12.9997C15.2917 13.6075 15.0502 14.1904 14.6205 14.6201C14.1907 15.0499 13.6078 15.2913 13 15.2913Z" fill="#1EA97C"/>
<path d="M6.75 10.7082C6.58921 10.6959 6.43964 10.6211 6.33333 10.4998L3.83333 7.99982C3.77763 7.88319 3.75946 7.75217 3.78131 7.62478C3.80317 7.4974 3.86398 7.37992 3.95537 7.28853C4.04676 7.19714 4.16424 7.13633 4.29162 7.11447C4.41901 7.09262 4.55004 7.11079 4.66667 7.16649L6.725 9.22482L13.8333 2.16649C13.95 2.11079 14.081 2.09261 14.2084 2.11447C14.3358 2.13633 14.4532 2.19714 14.5446 2.28853C14.636 2.37992 14.6968 2.4974 14.7187 2.62478C14.7405 2.75217 14.7224 2.88319 14.6667 2.99982L7.16667 10.4998C7.06036 10.6211 6.91078 10.6959 6.75 10.7082V10.7082Z" fill="#1EA97C"/>
</svg>
