<svg width="18" height="18" viewBox="0 0 18 18" fill="none" xmlns="http://www.w3.org/2000/svg">
<path d="M7.47339 12.2515C7.28084 12.2367 7.10171 12.147 6.9744 12.0015L3.98043 9.00161C3.91372 8.86167 3.89195 8.70444 3.91813 8.55158C3.9443 8.39873 4.01713 8.25776 4.12658 8.1481C4.23603 8.03843 4.37672 7.96547 4.52927 7.93924C4.68183 7.91301 4.83874 7.93482 4.97842 8.00166L7.44345 10.4715L15.9563 2.00193C16.096 1.93509 16.2529 1.91329 16.4055 1.93951C16.558 1.96574 16.6987 2.03871 16.8082 2.14837C16.9176 2.25804 16.9904 2.399 17.0166 2.55186C17.0428 2.70471 17.021 2.86194 16.9543 3.00189L7.97239 12.0015C7.84508 12.147 7.66595 12.2367 7.47339 12.2515V12.2515Z" fill="#1EA97C"/>
<path d="M8.97033 18C7.36503 17.9974 5.78975 17.5638 4.40844 16.7443C3.02712 15.9248 1.89025 14.7493 1.11614 13.3402C0.527711 12.2902 0.164036 11.129 0.0482923 9.93037C-0.134359 8.17253 0.203589 6.39971 1.01998 4.83306C1.83637 3.26642 3.09507 1.9753 4.63905 1.12077C5.68696 0.531179 6.84597 0.166788 8.0422 0.0508166C9.23395 -0.0776294 10.4393 0.0380417 11.5851 0.390801C11.6873 0.411272 11.7842 0.452923 11.8694 0.513086C11.9547 0.573248 12.0264 0.650595 12.0801 0.740167C12.1338 0.829739 12.1682 0.92956 12.1811 1.03323C12.1941 1.1369 12.1852 1.24214 12.1552 1.34219C12.1252 1.44225 12.0746 1.53491 12.0068 1.61424C11.9389 1.69358 11.8553 1.75783 11.7612 1.80288C11.6671 1.84794 11.5647 1.8728 11.4604 1.87587C11.3562 1.87895 11.2525 1.86017 11.1559 1.82074C10.1865 1.52867 9.1686 1.43348 8.16196 1.54075C7.16696 1.64283 6.20286 1.94556 5.32766 2.43071C4.48449 2.89679 3.73901 3.52152 3.13208 4.27062C2.5072 5.03375 2.04058 5.91414 1.75954 6.86022C1.47849 7.80631 1.38869 8.79908 1.49538 9.78037C1.59726 10.7773 1.89939 11.7433 2.38359 12.6202C2.84876 13.4651 3.47226 14.212 4.21989 14.8201C4.98152 15.4463 5.86018 15.9138 6.80441 16.1954C7.74864 16.477 8.73945 16.567 9.71882 16.4601C10.7138 16.358 11.6779 16.0553 12.5531 15.5701C13.3963 15.104 14.1418 14.4793 14.7487 13.7302C15.3736 12.9671 15.8402 12.0867 16.1212 11.1406C16.4023 10.1945 16.4921 9.20174 16.3854 8.22045C16.3756 8.11736 16.3861 8.01335 16.4164 7.91434C16.4467 7.81534 16.4961 7.72328 16.5619 7.64343C16.6277 7.56357 16.7086 7.49748 16.7999 7.44894C16.8912 7.40039 16.9911 7.37033 17.094 7.36048C17.1969 7.35064 17.3007 7.36119 17.3995 7.39154C17.4983 7.42189 17.5902 7.47144 17.6699 7.53736C17.7496 7.60329 17.8155 7.6843 17.864 7.77577C17.9124 7.86724 17.9424 7.96737 17.9522 8.07045C18.134 9.82934 17.7945 11.6029 16.9763 13.1696C16.1581 14.7364 14.8973 16.0269 13.3515 16.88C12.2925 17.4938 11.1156 17.8755 9.89846 18C9.58909 18 9.26973 18 8.97033 18Z" fill="#1EA97C"/>
</svg>
