<svg width="22" height="20" viewBox="0 0 25 24" fill="none" xmlns="http://www.w3.org/2000/svg">
<path d="M12.4741 20.75C12.1817 20.7487 11.8924 20.6896 11.6229 20.5762C11.3534 20.4628 11.109 20.2973 10.9037 20.0892C10.6983 19.881 10.5361 19.6344 10.4263 19.3634C10.3166 19.0924 10.2614 18.8024 10.2641 18.51C10.2601 18.4198 10.2308 18.3326 10.1795 18.2583C10.1282 18.184 10.057 18.1257 9.97407 18.09C9.8823 18.0479 9.7801 18.034 9.68041 18.05C9.58071 18.066 9.48802 18.1112 9.41407 18.18C8.99889 18.592 8.439 18.8253 7.85407 18.83C7.26546 18.8338 6.6986 18.6077 6.27407 18.2C6.06786 17.9938 5.90428 17.7491 5.79267 17.4797C5.68107 17.2103 5.62363 16.9216 5.62363 16.63C5.62363 16.3384 5.68107 16.0497 5.79267 15.7803C5.90428 15.5109 6.06786 15.2662 6.27407 15.06C6.3446 14.9957 6.39525 14.9126 6.42006 14.8205C6.44487 14.7283 6.44279 14.631 6.41407 14.54C6.36535 14.4556 6.29544 14.3854 6.21125 14.3363C6.12707 14.2872 6.03153 14.2609 5.93407 14.26C5.3457 14.2577 4.7812 14.027 4.3596 13.6166C3.93799 13.2062 3.69221 12.6481 3.67407 12.06C3.67538 11.7685 3.7341 11.48 3.84688 11.2112C3.95966 10.9424 4.12428 10.6984 4.33136 10.4931C4.53843 10.2879 4.7839 10.1255 5.05375 10.0152C5.3236 9.9048 5.61254 9.84868 5.90407 9.85C5.99427 9.84605 6.08152 9.81675 6.15581 9.76545C6.2301 9.71415 6.28842 9.64294 6.32407 9.56C6.36619 9.46823 6.38012 9.36603 6.3641 9.26633C6.34808 9.16664 6.30282 9.07395 6.23407 9C5.82203 8.58481 5.58874 8.02492 5.58407 7.44C5.57896 7.14801 5.63203 6.85792 5.7402 6.58665C5.84836 6.31538 6.00945 6.06836 6.21407 5.86C6.42023 5.65379 6.66499 5.49021 6.93437 5.3786C7.20375 5.267 7.49248 5.20955 7.78407 5.20955C8.07566 5.20955 8.36439 5.267 8.63377 5.3786C8.90316 5.49021 9.14792 5.65379 9.35407 5.86C9.42607 5.9285 9.51447 5.97735 9.61078 6.00187C9.70709 6.02638 9.80808 6.02574 9.90407 6C9.99158 5.95207 10.0658 5.88308 10.1199 5.79927C10.174 5.71546 10.2064 5.61947 10.2141 5.52C10.2138 4.92989 10.4433 4.36287 10.854 3.93912C11.2647 3.51537 11.8242 3.2682 12.4141 3.25C12.7056 3.25261 12.9938 3.31263 13.2621 3.42662C13.5305 3.5406 13.7737 3.70633 13.978 3.91434C14.1823 4.12234 14.3436 4.36855 14.4528 4.63891C14.5619 4.90926 14.6167 5.19846 14.6141 5.49C14.6179 5.5815 14.6458 5.67038 14.6949 5.74764C14.7441 5.8249 14.8128 5.88781 14.8941 5.93C14.9823 5.96241 15.0779 5.96927 15.1699 5.94982C15.2619 5.93036 15.3465 5.88537 15.4141 5.82C15.8293 5.40796 16.3891 5.17467 16.9741 5.17C17.2666 5.16083 17.5578 5.21204 17.8297 5.32044C18.1015 5.42883 18.3481 5.59208 18.5541 5.8C18.7603 6.00615 18.9239 6.25091 19.0355 6.5203C19.1471 6.78968 19.2045 7.07841 19.2045 7.37C19.2045 7.66159 19.1471 7.95032 19.0355 8.2197C18.9239 8.48909 18.7603 8.73385 18.5541 8.94C18.4907 9.01489 18.4474 9.10463 18.4282 9.20082C18.4089 9.29701 18.4144 9.3965 18.4441 9.49C18.492 9.57751 18.561 9.65168 18.6448 9.70581C18.7286 9.75994 18.8246 9.79231 18.9241 9.8C19.509 9.80745 20.0684 10.0404 20.4858 10.4503C20.9031 10.8602 21.1461 11.4153 21.1641 12C21.1615 12.2915 21.1014 12.5797 20.9875 12.848C20.8735 13.1164 20.7077 13.3597 20.4997 13.5639C20.2917 13.7682 20.0455 13.9296 19.7752 14.0387C19.5048 14.1478 19.2156 14.2026 18.9241 14.2C18.8326 14.2038 18.7437 14.2317 18.6664 14.2809C18.5892 14.33 18.5263 14.3987 18.4841 14.48C18.4517 14.5683 18.4448 14.6638 18.4643 14.7558C18.4837 14.8478 18.5287 14.9324 18.5941 15C19.0061 15.4152 19.2394 15.9751 19.2441 16.56C19.2492 16.852 19.1961 17.1421 19.0879 17.4133C18.9798 17.6846 18.8187 17.9316 18.6141 18.14C18.4079 18.3462 18.1632 18.5098 17.8938 18.6214C17.6244 18.733 17.3357 18.7904 17.0441 18.7904C16.7525 18.7904 16.4638 18.733 16.1944 18.6214C15.925 18.5098 15.6802 18.3462 15.4741 18.14C15.4065 18.0746 15.3219 18.0296 15.2299 18.0102C15.1379 17.9907 15.0423 17.9976 14.9541 18.03C14.8697 18.0787 14.7994 18.1486 14.7503 18.2328C14.7012 18.317 14.6749 18.4125 14.6741 18.51C14.6666 19.0949 14.4337 19.6544 14.0238 20.0717C13.6139 20.489 13.0587 20.732 12.4741 20.75ZM9.76407 16.54C10.0293 16.5369 10.292 16.5915 10.5341 16.7C10.8913 16.8489 11.1976 17.0982 11.4159 17.4177C11.6342 17.7372 11.7552 18.1131 11.7641 18.5C11.7613 18.6929 11.834 18.8792 11.9666 19.0193C12.0992 19.1594 12.2813 19.2422 12.4741 19.25C12.6668 19.2348 12.8465 19.1466 12.9765 19.0036C13.1066 18.8605 13.1772 18.6733 13.1741 18.48C13.1764 18.0918 13.2885 17.7121 13.4973 17.3848C13.706 17.0575 14.003 16.7958 14.3541 16.63C14.7192 16.4781 15.1213 16.4379 15.5093 16.5144C15.8973 16.5909 16.2539 16.7808 16.5341 17.06C16.6667 17.1926 16.8465 17.2671 17.0341 17.2671C17.2216 17.2671 17.4015 17.1926 17.5341 17.06C17.6667 16.9274 17.7412 16.7475 17.7412 16.56C17.7412 16.3725 17.6667 16.1926 17.5341 16.06C17.2566 15.7788 17.0686 15.4216 16.9938 15.0336C16.9191 14.6456 16.9609 14.2442 17.1141 13.88C17.2718 13.5291 17.5274 13.2311 17.8502 13.0218C18.173 12.8126 18.5494 12.7008 18.9341 12.7C19.1243 12.7028 19.3081 12.6311 19.4463 12.5004C19.5846 12.3696 19.6663 12.1901 19.6741 12C19.6612 11.8064 19.5738 11.6253 19.4302 11.4947C19.2866 11.3642 19.098 11.2944 18.9041 11.3C18.5126 11.2894 18.132 11.1695 17.805 10.9539C17.4781 10.7383 17.218 10.4356 17.0541 10.08C16.9044 9.71114 16.8654 9.30669 16.9417 8.91602C17.0181 8.52535 17.2065 8.16536 17.4841 7.88C17.5497 7.81434 17.6018 7.73639 17.6374 7.6506C17.6729 7.56481 17.6912 7.47286 17.6912 7.38C17.6912 7.28714 17.6729 7.19519 17.6374 7.1094C17.6018 7.02361 17.5497 6.94566 17.4841 6.88C17.4184 6.81434 17.3405 6.76225 17.2547 6.72672C17.1689 6.69118 17.0769 6.67289 16.9841 6.67289C16.8912 6.67289 16.7993 6.69118 16.7135 6.72672C16.6277 6.76225 16.5497 6.81434 16.4841 6.88C16.2029 7.14113 15.8526 7.31587 15.4749 7.38337C15.0971 7.45088 14.708 7.4083 14.3538 7.26072C13.9996 7.11314 13.6953 6.86679 13.4773 6.55105C13.2592 6.2353 13.1366 5.86351 13.1241 5.48C13.1268 5.28976 13.0552 5.10595 12.9245 4.96773C12.7937 4.82951 12.6142 4.7478 12.4241 4.74C12.2304 4.75286 12.0493 4.84026 11.9188 4.98385C11.7883 5.12744 11.7185 5.31603 11.7241 5.51C11.7134 5.90145 11.5935 6.28212 11.378 6.60903C11.1624 6.93593 10.8597 7.19605 10.5041 7.36C10.1352 7.50966 9.73076 7.54869 9.34009 7.47233C8.94942 7.39598 8.58943 7.20753 8.30407 6.93C8.23841 6.86434 8.16046 6.81225 8.07467 6.77672C7.98888 6.74118 7.89693 6.72289 7.80407 6.72289C7.71121 6.72289 7.61926 6.74118 7.53347 6.77672C7.44768 6.81225 7.36973 6.86434 7.30407 6.93C7.23841 6.99566 7.18633 7.07361 7.15079 7.1594C7.11526 7.24519 7.09697 7.33714 7.09697 7.43C7.09697 7.52286 7.11526 7.61481 7.15079 7.7006C7.18633 7.78639 7.23841 7.86434 7.30407 7.93C7.57991 8.21235 7.76603 8.57002 7.83899 8.95795C7.91195 9.34588 7.86849 9.74673 7.71407 10.11C7.56519 10.4672 7.31589 10.7735 6.9964 10.9918C6.6769 11.2101 6.30093 11.3311 5.91407 11.34C5.72118 11.3372 5.53483 11.4099 5.39473 11.5425C5.25464 11.6752 5.17187 11.8572 5.16407 12.05C5.17931 12.2427 5.26742 12.4224 5.41048 12.5525C5.55353 12.6825 5.74077 12.7531 5.93407 12.75C6.32229 12.7524 6.70194 12.8644 7.02926 13.0732C7.35658 13.282 7.61823 13.579 7.78407 13.93C7.93598 14.2952 7.97621 14.6972 7.89967 15.0852C7.82313 15.4732 7.63327 15.8299 7.35407 16.11C7.28841 16.1757 7.23633 16.2536 7.20079 16.3394C7.16526 16.4252 7.14697 16.5171 7.14697 16.61C7.14697 16.7029 7.16526 16.7948 7.20079 16.8806C7.23633 16.9664 7.28841 17.0443 7.35407 17.11C7.41973 17.1757 7.49768 17.2277 7.58347 17.2633C7.66926 17.2988 7.76121 17.3171 7.85407 17.3171C7.94693 17.3171 8.03888 17.2988 8.12467 17.2633C8.21046 17.2277 8.28841 17.1757 8.35407 17.11C8.73416 16.7471 9.23857 16.5432 9.76407 16.54Z" fill="#304CD9"/>
<path d="M12.9053 8.83789L10.7812 15H9.49707L12.1729 7.89062H12.9932L12.9053 8.83789ZM14.6826 15L12.5537 8.83789L12.4609 7.89062H13.2861L15.9717 15H14.6826ZM14.5801 12.3633V13.335H10.7129V12.3633H14.5801Z" fill="#304CD9"/>
</svg>
