<svg width="28" height="28" viewBox="0 0 28 28" fill="none" xmlns="http://www.w3.org/2000/svg">
<path d="M21.6183 10.4993L15.1667 4.04768C15.0027 3.88354 14.7803 3.79122 14.5483 3.79102H9.33333C8.48243 3.79102 7.66638 4.12904 7.0647 4.73071C6.46302 5.33239 6.125 6.14845 6.125 6.99935V20.9993C6.125 21.8503 6.46302 22.6663 7.0647 23.268C7.66638 23.8697 8.48243 24.2077 9.33333 24.2077H18.6667C19.5176 24.2077 20.3336 23.8697 20.9353 23.268C21.537 22.6663 21.875 21.8503 21.875 20.9993V11.0827C21.8658 10.8629 21.7742 10.6546 21.6183 10.4993ZM15.4583 6.77768L18.8883 10.2077H15.4583V6.77768ZM18.6667 22.4577H9.33333C8.94656 22.4577 8.57563 22.304 8.30214 22.0305C8.02865 21.7571 7.875 21.3861 7.875 20.9993V6.99935C7.875 6.61257 8.02865 6.24164 8.30214 5.96815C8.57563 5.69466 8.94656 5.54102 9.33333 5.54102H13.7083V11.0827C13.7114 11.3138 13.8045 11.5346 13.968 11.6981C14.1314 11.8615 14.3522 11.9547 14.5833 11.9577H20.125V20.9993C20.125 21.3861 19.9714 21.7571 19.6979 22.0305C19.4244 22.304 19.0534 22.4577 18.6667 22.4577Z" fill="#304CD9"/>
<path d="M19.007 17.3913H12.0556C11.9299 17.3913 11.8093 17.3413 11.7204 17.2525C11.6315 17.1636 11.5816 17.043 11.5816 16.9173C11.5816 16.7916 11.6315 16.6711 11.7204 16.5822C11.8093 16.4933 11.9299 16.4434 12.0556 16.4434H19.007C19.1327 16.4434 19.2532 16.4933 19.3421 16.5822C19.431 16.6711 19.4809 16.7916 19.4809 16.9173C19.4809 17.043 19.431 17.1636 19.3421 17.2525C19.2532 17.3413 19.1327 17.3913 19.007 17.3913Z" fill="#304CD9"/>
<path d="M19.007 14.5475H12.0556C11.9299 14.5475 11.8093 14.4976 11.7204 14.4087C11.6315 14.3198 11.5816 14.1993 11.5816 14.0736C11.5816 13.9479 11.6315 13.8273 11.7204 13.7384C11.8093 13.6495 11.9299 13.5996 12.0556 13.5996H19.007C19.1327 13.5996 19.2532 13.6495 19.3421 13.7384C19.431 13.8273 19.4809 13.9479 19.4809 14.0736C19.4809 14.1993 19.431 14.3198 19.3421 14.4087C19.2532 14.4976 19.1327 14.5475 19.007 14.5475Z" fill="#304CD9"/>
<path d="M19.007 20.235H12.0556C11.9299 20.235 11.8093 20.1851 11.7204 20.0962C11.6315 20.0073 11.5816 19.8868 11.5816 19.7611C11.5816 19.6354 11.6315 19.5148 11.7204 19.4259C11.8093 19.337 11.9299 19.2871 12.0556 19.2871H19.007C19.1327 19.2871 19.2532 19.337 19.3421 19.4259C19.431 19.5148 19.4809 19.6354 19.4809 19.7611C19.4809 19.8868 19.431 20.0073 19.3421 20.0962C19.2532 20.1851 19.1327 20.235 19.007 20.235Z" fill="#304CD9"/>
<path d="M10.1598 14.7061C10.0776 14.7071 9.99607 14.692 9.91966 14.6618C9.84415 14.6252 9.77399 14.5784 9.71112 14.5228C9.65255 14.4637 9.60621 14.3937 9.57477 14.3167C9.54332 14.2397 9.52738 14.1573 9.52786 14.0741C9.53019 13.9068 9.59564 13.7465 9.71112 13.6254C9.77044 13.5669 9.84153 13.5217 9.91966 13.4927C10.0735 13.4295 10.2461 13.4295 10.3999 13.4927C10.4775 13.5228 10.5484 13.5679 10.6085 13.6254C10.724 13.7465 10.7894 13.9068 10.7917 14.0741C10.7922 14.1573 10.7763 14.2397 10.7448 14.3167C10.7134 14.3937 10.6671 14.4637 10.6085 14.5228C10.5456 14.5784 10.4755 14.6252 10.3999 14.6618C10.3235 14.692 10.242 14.7071 10.1598 14.7061Z" fill="#304CD9"/>
<path d="M10.1597 17.5493C10.0771 17.5483 9.99553 17.5311 9.91956 17.4988C9.84297 17.4667 9.77244 17.4219 9.71101 17.366C9.65245 17.307 9.60611 17.237 9.57466 17.16C9.54321 17.083 9.52727 17.0005 9.52775 16.9174C9.53008 16.75 9.59554 16.5898 9.71101 16.4687C9.77244 16.4129 9.84297 16.368 9.91956 16.336C10.034 16.2829 10.1616 16.2653 10.2861 16.2854L10.3998 16.3233L10.5136 16.3802C10.5467 16.4035 10.5783 16.4289 10.6084 16.456C10.7268 16.5803 10.7925 16.7457 10.7916 16.9174C10.7916 17.085 10.7251 17.2457 10.6065 17.3642C10.488 17.4827 10.3273 17.5493 10.1597 17.5493Z" fill="#304CD9"/>
<path d="M10.1597 20.3936C10.0776 20.3946 9.996 20.3796 9.91959 20.3494C9.84407 20.3127 9.77391 20.266 9.71104 20.2103C9.65522 20.1489 9.61034 20.0784 9.57834 20.0018C9.5449 19.9262 9.52763 19.8444 9.52763 19.7617C9.52763 19.679 9.5449 19.5972 9.57834 19.5215C9.61034 19.4449 9.65522 19.3744 9.71104 19.313C9.79991 19.2253 9.91276 19.1659 10.0353 19.1423C10.1579 19.1187 10.2848 19.1319 10.3999 19.1803C10.4774 19.2103 10.5483 19.2554 10.6084 19.313C10.6642 19.3744 10.7091 19.4449 10.7411 19.5215C10.7745 19.5972 10.7918 19.679 10.7918 19.7617C10.7918 19.8444 10.7745 19.9262 10.7411 20.0018C10.7091 20.0784 10.6642 20.1489 10.6084 20.2103C10.5494 20.2689 10.4793 20.3152 10.4023 20.3467C10.3253 20.3781 10.2429 20.3941 10.1597 20.3936Z" fill="#304CD9"/>
</svg>
