<svg width="17" height="15" viewBox="0 0 17 15" fill="none" xmlns="http://www.w3.org/2000/svg">
<path d="M14.1666 15H2.83333C2.08188 15 1.36122 14.7003 0.829863 14.1668C0.298511 13.6333 0 12.9097 0 12.1552V2.84483C0 2.09034 0.298511 1.36674 0.829863 0.833233C1.36122 0.299725 2.08188 2.98115e-06 2.83333 2.98115e-06H5.40908C5.51951 -0.000300339 5.62878 0.0225458 5.72991 0.0670792C5.83103 0.111613 5.92178 0.176852 5.99636 0.258624L8.85029 3.61035H14.1666C14.5396 3.61034 14.9089 3.68427 15.2533 3.82788C15.5977 3.97149 15.9105 4.18197 16.1738 4.44723C16.437 4.71249 16.6455 5.02733 16.7873 5.37367C16.9291 5.72002 17.0013 6.09106 17 6.46552V12.1552C17 12.9097 16.7015 13.6333 16.1701 14.1668C15.6388 14.7003 14.9181 15 14.1666 15ZM2.83333 1.55173C2.49176 1.55173 2.16419 1.68796 1.92266 1.93047C1.68114 2.17297 1.54545 2.50188 1.54545 2.84483V12.1552C1.54545 12.4981 1.68114 12.827 1.92266 13.0695C2.16419 13.312 2.49176 13.4483 2.83333 13.4483H14.1666C14.5082 13.4483 14.8358 13.312 15.0773 13.0695C15.3188 12.827 15.4545 12.4981 15.4545 12.1552V6.46552C15.4545 6.12257 15.3188 5.79366 15.0773 5.55116C14.8358 5.30865 14.5082 5.17242 14.1666 5.17242H8.49999C8.38879 5.17141 8.27905 5.14695 8.17788 5.10061C8.07671 5.05428 7.98637 4.9871 7.91272 4.90345L5.05878 1.55173H2.83333Z" fill="white"/>
<path d="M9 12.0011C8.95835 12.0013 8.91707 11.9936 8.8786 11.9785C8.84013 11.9634 8.80523 11.9412 8.77596 11.9131L7.08509 10.3131C7.02909 10.2562 6.9986 10.181 7.00005 10.1033C7.0015 10.0256 7.03477 9.95143 7.09286 9.89646C7.15095 9.8415 7.22931 9.81001 7.31145 9.80864C7.39358 9.80727 7.47307 9.83612 7.53317 9.88911L9 11.2771L10.4668 9.88911C10.5269 9.83612 10.6064 9.80727 10.6886 9.80864C10.7707 9.81001 10.8491 9.8415 10.9071 9.89646C10.9652 9.95143 10.9985 10.0256 11 10.1033C11.0014 10.181 10.9709 10.2562 10.9149 10.3131L9.22404 11.9131C9.19477 11.9412 9.15987 11.9634 9.1214 11.9785C9.08293 11.9936 9.04165 12.0013 9 12.0011V12.0011Z" fill="white"/>
<path d="M9.00002 12C8.91628 11.999 8.83627 11.967 8.77705 11.911C8.71783 11.8549 8.68408 11.7792 8.68298 11.7V7.3C8.68298 7.22044 8.71639 7.14413 8.77584 7.08787C8.8353 7.03161 8.91594 7 9.00002 7C9.08411 7 9.16475 7.03161 9.2242 7.08787C9.28366 7.14413 9.31706 7.22044 9.31706 7.3V11.7C9.31596 11.7792 9.28221 11.8549 9.22299 11.911C9.16377 11.967 9.08376 11.999 9.00002 12V12Z" fill="white"/>
</svg>
