<svg width="16" height="13" viewBox="0 0 16 13" fill="none" xmlns="http://www.w3.org/2000/svg">
<path d="M12.4446 11H0.555435C0.458055 10.9997 0.362406 10.9753 0.277775 10.9292C0.193145 10.8831 0.12241 10.8169 0.072439 10.7369C0.0249358 10.6554 0 10.5636 0 10.4702C0 10.3769 0.0249358 10.2851 0.072439 10.2036L6.017 0.248062C6.06987 0.171786 6.14165 0.109217 6.22592 0.0659342C6.3102 0.0226513 6.40436 0 6.5 0C6.59564 0 6.6898 0.0226513 6.77408 0.0659342C6.85835 0.109217 6.93013 0.171786 6.983 0.248062L12.9276 10.2036C12.9751 10.2851 13 10.3769 13 10.4702C13 10.5636 12.9751 10.6554 12.9276 10.7369C12.8776 10.8169 12.8069 10.8831 12.7222 10.9292C12.6376 10.9753 12.5419 10.9997 12.4446 11ZM1.514 9.93334H11.486L6.5 1.58494L1.514 9.93334Z" fill="#CD0000"/>
<path d="M6.5 7.08874C6.35279 7.0869 6.21215 7.03011 6.10805 6.93049C6.00395 6.83087 5.94462 6.69628 5.9427 6.55541V4.06653C5.9427 3.92509 6.00141 3.78943 6.10593 3.68941C6.21044 3.58939 6.35219 3.5332 6.5 3.5332C6.6478 3.5332 6.78956 3.58939 6.89407 3.68941C6.99859 3.78943 7.0573 3.92509 7.0573 4.06653V6.55541C7.05538 6.69628 6.99604 6.83087 6.89194 6.93049C6.78784 7.03011 6.64721 7.0869 6.5 7.08874Z" fill="#CD0000"/>
<path d="M6.5 9.22202C6.35279 9.22018 6.21215 9.1634 6.10805 9.06377C6.00395 8.96415 5.94462 8.82956 5.9427 8.68869V8.33313C5.9427 8.19169 6.00141 8.05603 6.10593 7.95601C6.21044 7.85599 6.35219 7.7998 6.5 7.7998C6.6478 7.7998 6.78956 7.85599 6.89407 7.95601C6.99859 8.05603 7.0573 8.19169 7.0573 8.33313V8.68869C7.05538 8.82956 6.99604 8.96415 6.89194 9.06377C6.78784 9.1634 6.64721 9.22018 6.5 9.22202Z" fill="#CD0000"/>
<path d="M12 5C11.2089 5 10.4355 5.2346 9.77772 5.67412C9.11992 6.11365 8.60723 6.73836 8.30448 7.46927C8.00173 8.20017 7.92252 9.00444 8.07686 9.78036C8.2312 10.5563 8.61216 11.269 9.17157 11.8284C9.73098 12.3878 10.4437 12.7688 11.2196 12.9231C11.9956 13.0775 12.7998 12.9983 13.5307 12.6955C14.2616 12.3928 14.8864 11.8801 15.3259 11.2223C15.7654 10.5645 16 9.79112 16 9C16 7.93913 15.5786 6.92172 14.8284 6.17157C14.0783 5.42143 13.0609 5 12 5Z" fill="#CD0000"/>
<path d="M11.5879 10.5142V11H9.80322V10.5142H11.5879ZM9.97412 7.44531V11H9.36133V7.44531H9.97412ZM14 9.84277H14.6104C14.5908 10.0755 14.5257 10.283 14.415 10.4653C14.3044 10.646 14.1489 10.7884 13.9487 10.8926C13.7485 10.9967 13.5052 11.0488 13.2188 11.0488C12.999 11.0488 12.8013 11.0098 12.6255 10.9316C12.4497 10.8519 12.2992 10.7396 12.1738 10.5947C12.0485 10.4482 11.9525 10.2716 11.8857 10.0649C11.8206 9.85824 11.7881 9.62712 11.7881 9.37158V9.07617C11.7881 8.82064 11.8215 8.58952 11.8882 8.38281C11.9565 8.17611 12.0542 7.99951 12.1812 7.85303C12.3081 7.70492 12.4603 7.5918 12.6377 7.51367C12.8167 7.43555 13.0177 7.39648 13.2407 7.39648C13.5239 7.39648 13.7632 7.44857 13.9585 7.55273C14.1538 7.6569 14.3052 7.80094 14.4126 7.98486C14.5216 8.16878 14.5884 8.37956 14.6128 8.61719H14.0024C13.9862 8.46419 13.9504 8.33317 13.895 8.22412C13.8413 8.11507 13.7616 8.03206 13.6558 7.9751C13.55 7.9165 13.4116 7.88721 13.2407 7.88721C13.1007 7.88721 12.9787 7.91325 12.8745 7.96533C12.7703 8.01742 12.6833 8.09391 12.6133 8.19482C12.5433 8.29574 12.4904 8.42025 12.4546 8.56836C12.4204 8.71484 12.4033 8.88249 12.4033 9.07129V9.37158C12.4033 9.55062 12.4188 9.71338 12.4497 9.85986C12.4823 10.0047 12.5311 10.1292 12.5962 10.2334C12.6629 10.3376 12.7476 10.4181 12.8501 10.4751C12.9526 10.5321 13.0755 10.5605 13.2188 10.5605C13.3929 10.5605 13.5337 10.5329 13.6411 10.4775C13.7502 10.4222 13.8324 10.3416 13.8877 10.2358C13.9447 10.1284 13.9821 9.9974 14 9.84277Z" fill="white"/>
</svg>
