<svg width="16" height="14" viewBox="0 0 16 14" fill="none" xmlns="http://www.w3.org/2000/svg">
<path d="M6.49999 8.078C6.35278 8.07615 6.21215 8.01937 6.10805 7.91975C6.00395 7.82013 5.94461 7.68554 5.94269 7.54467V5.05579C5.94269 4.91434 6.0014 4.77869 6.10592 4.67867C6.21043 4.57865 6.35219 4.52246 6.49999 4.52246C6.6478 4.52246 6.78955 4.57865 6.89406 4.67867C6.99858 4.77869 7.05729 4.91434 7.05729 5.05579V7.54467C7.05537 7.68554 6.99604 7.82013 6.89194 7.91975C6.78784 8.01937 6.6472 8.07615 6.49999 8.078Z" fill="#CD0000"/>
<path d="M6.49999 10.2113C6.35278 10.2095 6.21215 10.1527 6.10805 10.0531C6.00395 9.95345 5.94461 9.81886 5.94269 9.67799V9.32243C5.94269 9.18099 6.0014 9.04533 6.10592 8.94531C6.21043 8.84529 6.35219 8.7891 6.49999 8.7891C6.6478 8.7891 6.78955 8.84529 6.89406 8.94531C6.99858 9.04533 7.05729 9.18099 7.05729 9.32243V9.67799C7.05537 9.81886 6.99604 9.95345 6.89194 10.0531C6.78784 10.1527 6.6472 10.2095 6.49999 10.2113Z" fill="#CD0000"/>
<path d="M8.5359 11.9893C8.34427 11.6573 8.20055 11.2983 8.11042 10.9226H1.514L6.5 2.5742L9.21423 7.11881C9.3871 6.95104 9.57556 6.79846 9.77772 6.66338C9.88405 6.59233 9.99341 6.52664 10.1054 6.46642L6.983 1.23732C6.93013 1.16104 6.85835 1.09847 6.77408 1.05519C6.6898 1.01191 6.59564 0.989258 6.5 0.989258C6.40436 0.989258 6.3102 1.01191 6.22592 1.05519C6.14165 1.09847 6.06987 1.16104 6.017 1.23732L0.0724392 11.1928C0.0249357 11.2743 0 11.3661 0 11.4595C0 11.5528 0.0249357 11.6446 0.0724392 11.7261C0.12241 11.8061 0.193145 11.8724 0.277775 11.9185C0.362405 11.9646 0.458055 11.989 0.555435 11.9893H8.5359Z" fill="#CD0000"/>
<path d="M11.3656 10.4072H12.6146L11.9894 8.59762L11.3656 10.4072Z" fill="#CD0000"/>
<path fill-rule="evenodd" clip-rule="evenodd" d="M9.77772 6.66338C10.4355 6.22385 11.2089 5.98926 12 5.98926C13.0609 5.98926 14.0783 6.41069 14.8284 7.16083C15.5786 7.91098 16 8.92839 16 9.98926C16 10.7804 15.7654 11.5537 15.3259 12.2115C14.8864 12.8693 14.2616 13.382 13.5307 13.6848C12.7998 13.9875 11.9956 14.0667 11.2196 13.9124C10.4437 13.7581 9.73098 13.3771 9.17157 12.8177C8.61216 12.2583 8.2312 11.5455 8.07686 10.7696C7.92252 9.99369 8.00173 9.18943 8.30448 8.45852C8.60723 7.72762 9.11992 7.1029 9.77772 6.66338ZM12.3232 7.72363L13.9346 11.9893H13.1611L12.816 10.9902H11.1647L10.8203 11.9893H10.0498L11.6553 7.72363H12.3232Z" fill="#CD0000"/>
</svg>
