<svg width="16" height="18" viewBox="0 0 16 18" fill="none" xmlns="http://www.w3.org/2000/svg">
<path d="M6.28418 5.9082L2.46094 17H0.149414L4.96582 4.20312H6.44238L6.28418 5.9082ZM9.4834 17L5.65137 5.9082L5.48438 4.20312H6.96973L11.8037 17H9.4834ZM9.29883 12.2539V14.0029H2.33789V12.2539H9.29883Z" fill="#CD0000"/>
<path d="M15.6582 17.4688H8.34181C8.28188 17.4687 8.22302 17.4543 8.17094 17.4272C8.11886 17.4001 8.07533 17.3611 8.04458 17.3141C8.01535 17.2662 8 17.2122 8 17.1573C8 17.1024 8.01535 17.0484 8.04458 17.0005L11.7028 11.1459C11.7353 11.101 11.7795 11.0642 11.8313 11.0388C11.8832 11.0133 11.9411 11 12 11C12.0589 11 12.1168 11.0133 12.1687 11.0388C12.2205 11.0642 12.2647 11.101 12.2972 11.1459L15.9554 17.0005C15.9847 17.0484 16 17.1024 16 17.1573C16 17.2122 15.9847 17.2662 15.9554 17.3141C15.9247 17.3611 15.8811 17.4001 15.8291 17.4272C15.777 17.4543 15.7181 17.4687 15.6582 17.4688Z" fill="#CD0000"/>
<path d="M12 15.1691C11.9094 15.168 11.8229 15.1346 11.7588 15.076C11.6947 15.0174 11.6582 14.9383 11.657 14.8554V13.3918C11.657 13.3086 11.6932 13.2288 11.7575 13.17C11.8218 13.1112 11.909 13.0781 12 13.0781C12.091 13.0781 12.1782 13.1112 12.2425 13.17C12.3068 13.2288 12.343 13.3086 12.343 13.3918V14.8554C12.3418 14.9383 12.3053 15.0174 12.2412 15.076C12.1771 15.1346 12.0906 15.168 12 15.1691Z" fill="white"/>
<path d="M12 16.4233C11.9094 16.4222 11.8229 16.3888 11.7588 16.3302C11.6947 16.2716 11.6582 16.1925 11.657 16.1096V15.9006C11.657 15.8174 11.6932 15.7376 11.7575 15.6788C11.8218 15.62 11.909 15.5869 12 15.5869C12.091 15.5869 12.1782 15.62 12.2425 15.6788C12.3068 15.7376 12.343 15.8174 12.343 15.9006V16.1096C12.3418 16.1925 12.3053 16.2716 12.2412 16.3302C12.1771 16.3888 12.0906 16.4222 12 16.4233Z" fill="white"/>
</svg>
