<svg width="13" height="11" viewBox="0 0 13 11" fill="none" xmlns="http://www.w3.org/2000/svg">
<path d="M12.4446 11H0.555435C0.458055 10.9997 0.362406 10.9753 0.277775 10.9292C0.193145 10.8831 0.12241 10.8169 0.072439 10.7369C0.0249358 10.6554 0 10.5636 0 10.4702C0 10.3769 0.0249358 10.2851 0.072439 10.2036L6.017 0.248062C6.06987 0.171786 6.14165 0.109217 6.22592 0.0659342C6.3102 0.0226513 6.40436 0 6.5 0C6.59564 0 6.6898 0.0226513 6.77408 0.0659342C6.85835 0.109217 6.93013 0.171786 6.983 0.248062L12.9276 10.2036C12.9751 10.2851 13 10.3769 13 10.4702C13 10.5636 12.9751 10.6554 12.9276 10.7369C12.8776 10.8169 12.8069 10.8831 12.7222 10.9292C12.6376 10.9753 12.5419 10.9997 12.4446 11ZM1.514 9.93334H11.486L6.5 1.58494L1.514 9.93334Z" fill="#CD0000"/>
<path d="M6.5 7.08874C6.35279 7.0869 6.21215 7.03011 6.10805 6.93049C6.00395 6.83087 5.94462 6.69628 5.9427 6.55541V4.06653C5.9427 3.92509 6.00141 3.78943 6.10593 3.68941C6.21044 3.58939 6.35219 3.5332 6.5 3.5332C6.6478 3.5332 6.78956 3.58939 6.89407 3.68941C6.99859 3.78943 7.0573 3.92509 7.0573 4.06653V6.55541C7.05538 6.69628 6.99604 6.83087 6.89194 6.93049C6.78784 7.03011 6.64721 7.0869 6.5 7.08874Z" fill="#CD0000"/>
<path d="M6.5 9.22202C6.35279 9.22018 6.21215 9.1634 6.10805 9.06377C6.00395 8.96415 5.94462 8.82956 5.9427 8.68869V8.33313C5.9427 8.19169 6.00141 8.05603 6.10593 7.95601C6.21044 7.85599 6.35219 7.7998 6.5 7.7998C6.6478 7.7998 6.78956 7.85599 6.89407 7.95601C6.99859 8.05603 7.0573 8.19169 7.0573 8.33313V8.68869C7.05538 8.82956 6.99604 8.96415 6.89194 9.06377C6.78784 9.1634 6.64721 9.22018 6.5 9.22202Z" fill="#CD0000"/>
</svg>
