<svg width="13" height="18" viewBox="0 0 13 18" fill="none" xmlns="http://www.w3.org/2000/svg">
<path d="M12.4446 11H0.555435C0.458055 10.9997 0.362406 10.9753 0.277775 10.9292C0.193145 10.8831 0.12241 10.8169 0.072439 10.7369C0.0249358 10.6554 0 10.5636 0 10.4702C0 10.3769 0.0249358 10.2851 0.072439 10.2036L6.017 0.248062C6.06987 0.171786 6.14165 0.109217 6.22592 0.0659342C6.3102 0.0226513 6.40436 0 6.5 0C6.59564 0 6.6898 0.0226513 6.77408 0.0659342C6.85835 0.109217 6.93013 0.171786 6.983 0.248062L12.9276 10.2036C12.9751 10.2851 13 10.3769 13 10.4702C13 10.5636 12.9751 10.6554 12.9276 10.7369C12.8776 10.8169 12.8069 10.8831 12.7222 10.9292C12.6376 10.9753 12.5419 10.9997 12.4446 11ZM1.514 9.93334H11.486L6.5 1.58494L1.514 9.93334Z" fill="#CD0000"/>
<path d="M6.5 7.08874C6.35279 7.0869 6.21215 7.03011 6.10805 6.93049C6.00395 6.83087 5.94462 6.69628 5.9427 6.55541V4.06653C5.9427 3.92509 6.00141 3.78943 6.10593 3.68941C6.21044 3.58939 6.35219 3.5332 6.5 3.5332C6.6478 3.5332 6.78956 3.58939 6.89407 3.68941C6.99859 3.78943 7.0573 3.92509 7.0573 4.06653V6.55541C7.05538 6.69628 6.99604 6.83087 6.89194 6.93049C6.78784 7.03011 6.64721 7.0869 6.5 7.08874Z" fill="#CD0000"/>
<path d="M6.5 9.22202C6.35279 9.22018 6.21215 9.1634 6.10805 9.06377C6.00395 8.96415 5.94462 8.82956 5.9427 8.68869V8.33313C5.9427 8.19169 6.00141 8.05603 6.10593 7.95601C6.21044 7.85599 6.35219 7.7998 6.5 7.7998C6.6478 7.7998 6.78956 7.85599 6.89407 7.95601C6.99859 8.05603 7.0573 8.19169 7.0573 8.33313V8.68869C7.05538 8.82956 6.99604 8.96415 6.89194 9.06377C6.78784 9.1634 6.64721 9.22018 6.5 9.22202Z" fill="#CD0000"/>
<path d="M1.30502 10.2796L1.28611 12.719C1.28534 12.8201 1.36667 12.9021 1.46782 12.9022L11.5104 12.9038C11.6116 12.9038 11.6942 12.8219 11.695 12.7207L11.7139 10.2814C11.7143 10.2308 11.6941 10.185 11.6613 10.1519C11.6284 10.1188 11.5828 10.0982 11.5322 10.0982L1.48955 10.0966C1.44101 10.0965 1.39428 10.1158 1.35966 10.1502C1.32503 10.1845 1.30538 10.2311 1.30502 10.2796ZM11.3462 10.4644L11.3302 12.5376L10.2643 12.5374L10.2673 12.1508C10.2677 12.1002 10.2475 12.0544 10.2146 12.0213C10.1818 11.9881 10.1361 11.9676 10.0856 11.9676C9.98445 11.9676 9.90181 12.0496 9.90104 12.1507L9.89805 12.5374L8.83218 12.5372L8.83779 11.8122C8.83818 11.7616 8.81804 11.7159 8.78516 11.6827C8.75228 11.6496 8.70666 11.6291 8.65609 11.6291C8.55496 11.6291 8.47234 11.711 8.47155 11.8122L8.46593 12.5371L7.40006 12.537L7.40307 12.1503C7.40346 12.0997 7.38331 12.0539 7.35043 12.0208C7.31755 11.9877 7.27193 11.9671 7.22137 11.9672C7.12024 11.9671 7.03762 12.0491 7.03682 12.1502L7.03383 12.5369L5.96795 12.5367L5.97536 11.5803C5.97575 11.5297 5.95561 11.4839 5.92273 11.4508C5.88985 11.4176 5.84424 11.3971 5.79366 11.3971C5.69253 11.3971 5.60991 11.4791 5.60912 11.5802L5.60171 12.5367L4.53581 12.5365L4.53882 12.1499C4.53921 12.0993 4.51906 12.0535 4.48618 12.0204C4.45331 11.9872 4.40769 11.9667 4.35712 11.9667C4.25599 11.9667 4.17337 12.0487 4.17258 12.1498L4.16959 12.5365L3.10369 12.5363L3.11111 11.5798C3.11151 11.5292 3.09136 11.4835 3.05848 11.4503C3.0256 11.4172 2.97998 11.3967 2.92942 11.3967C2.82828 11.3967 2.74566 11.4786 2.74488 11.5798L2.73747 12.5362L1.65373 12.536L1.66978 10.4628L11.3462 10.4644Z" fill="#CD0000"/>
</svg>
