<svg width="16" height="18" viewBox="0 0 16 18" fill="none" xmlns="http://www.w3.org/2000/svg">
<path d="M14.9025 5.66569L9.83334 1.05736C9.70454 0.940113 9.52979 0.874169 9.34751 0.874023H7.08334C6.41478 0.874023 5.77359 1.11547 5.30084 1.54524C4.8281 1.97501 4.56251 2.5579 4.56251 3.16569V4.20736H3.41668C2.74811 4.20736 2.10693 4.4488 1.63418 4.87857C1.16143 5.30834 0.895844 5.89124 0.895844 6.49902V14.8324C0.895844 15.4401 1.16143 16.023 1.63418 16.4528C2.10693 16.8826 2.74811 17.124 3.41668 17.124H9.83334C10.5019 17.124 11.1431 16.8826 11.6158 16.4528C12.0886 16.023 12.3542 15.4401 12.3542 14.8324V13.7907H12.5833C13.2519 13.7907 13.8931 13.5492 14.3658 13.1195C14.8386 12.6897 15.1042 12.1068 15.1042 11.499V6.08236C15.097 5.92536 15.025 5.77659 14.9025 5.66569ZM10.0625 3.00736L12.7575 5.45736H10.0625V3.00736ZM10.9792 14.8324C10.9792 15.1086 10.8585 15.3736 10.6436 15.5689C10.4287 15.7643 10.1372 15.874 9.83334 15.874H3.41668C3.11278 15.874 2.82134 15.7643 2.60645 15.5689C2.39156 15.3736 2.27084 15.1086 2.27084 14.8324V6.49902C2.27084 6.22276 2.39156 5.9578 2.60645 5.76245C2.82134 5.5671 3.11278 5.45736 3.41668 5.45736H4.56251V11.499C4.56251 12.1068 4.8281 12.6897 5.30084 13.1195C5.77359 13.5492 6.41478 13.7907 7.08334 13.7907H10.9792V14.8324ZM12.5833 12.5407H7.08334C6.77945 12.5407 6.488 12.4309 6.27312 12.2356C6.05823 12.0402 5.93751 11.7753 5.93751 11.499V3.16569C5.93751 2.88942 6.05823 2.62447 6.27312 2.42912C6.488 2.23377 6.77945 2.12402 7.08334 2.12402H8.68751V6.08236C8.68988 6.24745 8.76308 6.40517 8.8915 6.52191C9.01992 6.63866 9.19341 6.7052 9.37501 6.70736H13.7292V11.499C13.7292 11.7753 13.6085 12.0402 13.3936 12.2356C13.1787 12.4309 12.8872 12.5407 12.5833 12.5407Z" fill="#304CD9"/>
</svg>
