<svg width="18" height="18" viewBox="0 0 18 18" fill="none" xmlns="http://www.w3.org/2000/svg">
<path d="M6.81818 8.45486H4.63636C4.20237 8.45486 3.78616 8.28244 3.47928 7.97555C3.1724 7.66865 3 7.25241 3 6.8184V4.63646C3 4.20244 3.1724 3.7862 3.47928 3.47931C3.78616 3.17241 4.20237 3 4.63636 3H6.81818C7.25218 3 7.66839 3.17241 7.97527 3.47931C8.28215 3.7862 8.45455 4.20244 8.45455 4.63646V6.8184C8.45455 7.25241 8.28215 7.66865 7.97527 7.97555C7.66839 8.28244 7.25218 8.45486 6.81818 8.45486ZM4.63636 4.09097C4.49229 4.09285 4.35464 4.15093 4.25275 4.25282C4.15087 4.35472 4.09279 4.49237 4.09091 4.63646V6.8184C4.09279 6.96249 4.15087 7.10014 4.25275 7.20203C4.35464 7.30393 4.49229 7.362 4.63636 7.36388H6.81818C6.96226 7.362 7.09991 7.30393 7.2018 7.20203C7.30368 7.10014 7.36176 6.96249 7.36364 6.8184V4.63646C7.36176 4.49237 7.30368 4.35472 7.2018 4.25282C7.09991 4.15093 6.96226 4.09285 6.81818 4.09097H4.63636Z" fill="#418BFB"/>
<path d="M6.81818 14.9998H4.63636C4.20237 14.9998 3.78616 14.8274 3.47928 14.5205C3.1724 14.2136 3 13.7973 3 13.3633V11.1814C3 10.7474 3.1724 10.3311 3.47928 10.0242C3.78616 9.71733 4.20237 9.54492 4.63636 9.54492H6.81818C7.25218 9.54492 7.66839 9.71733 7.97527 10.0242C8.28215 10.3311 8.45455 10.7474 8.45455 11.1814V13.3633C8.45455 13.7973 8.28215 14.2136 7.97527 14.5205C7.66839 14.8274 7.25218 14.9998 6.81818 14.9998ZM4.63636 10.6359C4.49229 10.6378 4.35464 10.6959 4.25275 10.7977C4.15087 10.8996 4.09279 11.0373 4.09091 11.1814V13.3633C4.09279 13.5074 4.15087 13.6451 4.25275 13.747C4.35464 13.8488 4.49229 13.9069 4.63636 13.9088H6.81818C6.96226 13.9069 7.09991 13.8488 7.2018 13.747C7.30368 13.6451 7.36176 13.5074 7.36364 13.3633V11.1814C7.36176 11.0373 7.30368 10.8996 7.2018 10.7977C7.09991 10.6959 6.96226 10.6378 6.81818 10.6359H4.63636Z" fill="#418BFB"/>
<path d="M13.3636 8.45486H11.1818C10.7478 8.45486 10.3316 8.28244 10.0247 7.97555C9.71781 7.66865 9.54541 7.25241 9.54541 6.8184V4.63646C9.54541 4.20244 9.71781 3.7862 10.0247 3.47931C10.3316 3.17241 10.7478 3 11.1818 3H13.3636C13.7976 3 14.2138 3.17241 14.5207 3.47931C14.8276 3.7862 15 4.20244 15 4.63646V6.8184C15 7.25241 14.8276 7.66865 14.5207 7.97555C14.2138 8.28244 13.7976 8.45486 13.3636 8.45486ZM11.1818 4.09097C11.0377 4.09285 10.9001 4.15093 10.7982 4.25282C10.6963 4.35472 10.6382 4.49237 10.6363 4.63646V6.8184C10.6382 6.96249 10.6963 7.10014 10.7982 7.20203C10.9001 7.30393 11.0377 7.362 11.1818 7.36388H13.3636C13.5077 7.362 13.6453 7.30393 13.7472 7.20203C13.8491 7.10014 13.9072 6.96249 13.909 6.8184V4.63646C13.9072 4.49237 13.8491 4.35472 13.7472 4.25282C13.6453 4.15093 13.5077 4.09285 13.3636 4.09097H11.1818Z" fill="#418BFB"/>
<path d="M13.3636 14.9998H11.1818C10.7478 14.9998 10.3316 14.8274 10.0247 14.5205C9.71781 14.2136 9.54541 13.7973 9.54541 13.3633V11.1814C9.54541 10.7474 9.71781 10.3311 10.0247 10.0242C10.3316 9.71733 10.7478 9.54492 11.1818 9.54492H13.3636C13.7976 9.54492 14.2138 9.71733 14.5207 10.0242C14.8276 10.3311 15 10.7474 15 11.1814V13.3633C15 13.7973 14.8276 14.2136 14.5207 14.5205C14.2138 14.8274 13.7976 14.9998 13.3636 14.9998ZM11.1818 10.6359C11.0377 10.6378 10.9001 10.6959 10.7982 10.7977C10.6963 10.8996 10.6382 11.0373 10.6363 11.1814V13.3633C10.6382 13.5074 10.6963 13.6451 10.7982 13.747C10.9001 13.8488 11.0377 13.9069 11.1818 13.9088H13.3636C13.5077 13.9069 13.6453 13.8488 13.7472 13.747C13.8491 13.6451 13.9072 13.5074 13.909 13.3633V11.1814C13.9072 11.0373 13.8491 10.8996 13.7472 10.7977C13.6453 10.6959 13.5077 10.6378 13.3636 10.6359H11.1818Z" fill="#418BFB"/>
<path d="M14.8065 18H3.19355C2.34657 18 1.53427 17.6635 0.935368 17.0646C0.336462 16.4657 0 15.6534 0 14.8065V3.19355C0 2.34657 0.336462 1.53427 0.935368 0.935368C1.53427 0.336462 2.34657 0 3.19355 0H14.8065C15.6534 0 16.4657 0.336462 17.0646 0.935368C17.6635 1.53427 18 2.34657 18 3.19355V14.8065C18 15.6534 17.6635 16.4657 17.0646 17.0646C16.4657 17.6635 15.6534 18 14.8065 18ZM3.19355 1.74194C2.80856 1.74194 2.43933 1.89487 2.1671 2.1671C1.89487 2.43933 1.74194 2.80856 1.74194 3.19355V14.8065C1.74194 15.1914 1.89487 15.5607 2.1671 15.8329C2.43933 16.1051 2.80856 16.2581 3.19355 16.2581H14.8065C15.1914 16.2581 15.5607 16.1051 15.8329 15.8329C16.1051 15.5607 16.2581 15.1914 16.2581 14.8065V3.19355C16.2581 2.80856 16.1051 2.43933 15.8329 2.1671C15.5607 1.89487 15.1914 1.74194 14.8065 1.74194H3.19355Z" fill="#304CD9"/>
</svg>
