<svg width="18" height="16" viewBox="0 0 18 16" fill="none" xmlns="http://www.w3.org/2000/svg">
<path d="M9.00004 8.27562C8.13874 8.27562 7.29677 8.03295 6.58062 7.57828C5.86448 7.12361 5.3063 6.47737 4.9767 5.72128C4.64709 4.9652 4.56085 4.13322 4.72888 3.33057C4.89691 2.52791 5.31167 1.79062 5.92071 1.21194C6.52974 0.633255 7.3057 0.239167 8.15046 0.0795087C8.99521 -0.0801496 9.87082 0.00179286 10.6666 0.314974C11.4623 0.628155 12.1424 1.15851 12.621 1.83897C13.0995 2.51943 13.3549 3.31943 13.3549 4.13781C13.3549 5.23523 12.8961 6.2877 12.0794 7.06369C11.2627 7.83968 10.155 8.27562 9.00004 8.27562ZM9.00004 1.65513C8.48326 1.65513 7.97808 1.80073 7.54839 2.07353C7.1187 2.34634 6.7838 2.73408 6.58604 3.18773C6.38827 3.64138 6.33653 4.14057 6.43735 4.62216C6.53817 5.10375 6.78702 5.54613 7.15244 5.89334C7.51786 6.24055 7.98344 6.477 8.49029 6.57279C8.99714 6.66859 9.52251 6.61942 9.99996 6.43152C10.4774 6.24361 10.8855 5.9254 11.1726 5.51712C11.4597 5.10884 11.6129 4.62884 11.6129 4.13781C11.6129 3.47936 11.3377 2.84788 10.8476 2.38229C10.3576 1.91669 9.69303 1.65513 9.00004 1.65513Z" fill="#304CD9"/>
<path d="M17.129 15.9995C16.899 15.9966 16.6792 15.9085 16.5165 15.7539C16.3538 15.5993 16.2611 15.3905 16.2581 15.1719C16.2581 13.0202 15.0271 11.5858 9 11.5858C2.9729 11.5858 1.74194 13.0202 1.74194 15.1719C1.74194 15.3914 1.65017 15.6019 1.48684 15.7571C1.3235 15.9123 1.10196 15.9995 0.870968 15.9995C0.639973 15.9995 0.418439 15.9123 0.2551 15.7571C0.0917623 15.6019 0 15.3914 0 15.1719C0 9.93066 6.30581 9.93066 9 9.93066C11.6942 9.93066 18 9.93066 18 15.1719C17.997 15.3905 17.9043 15.5993 17.7416 15.7539C17.5789 15.9085 17.3591 15.9966 17.129 15.9995Z" fill="#304CD9"/>
</svg>

