<svg width="20" height="20" viewBox="0 0 20 20" fill="none" xmlns="http://www.w3.org/2000/svg">
<path d="M10.378 10.4868H11.108C11.0933 10.7261 11.0274 10.9385 10.9102 11.124C10.7947 11.3096 10.6327 11.4544 10.4244 11.5586C10.2177 11.6628 9.96865 11.7148 9.67731 11.7148C9.44944 11.7148 9.24518 11.6758 9.06451 11.5977C8.88385 11.5179 8.72923 11.404 8.60065 11.2559C8.47369 11.1077 8.37685 10.9287 8.31012 10.7188C8.24339 10.5088 8.21002 10.2736 8.21002 10.0132V9.7666C8.21002 9.50618 8.2442 9.271 8.31256 9.06104C8.38255 8.84945 8.48183 8.6696 8.61041 8.52148C8.74062 8.37337 8.89606 8.25944 9.07672 8.17969C9.25739 8.09993 9.45921 8.06006 9.68219 8.06006C9.97841 8.06006 10.2283 8.11377 10.4317 8.22119C10.6368 8.32861 10.7955 8.47673 10.9078 8.66553C11.0217 8.85433 11.0901 9.06917 11.1129 9.31006H10.3804C10.3723 9.16683 10.3438 9.04557 10.295 8.94629C10.2462 8.84538 10.1721 8.76969 10.0728 8.71924C9.97516 8.66715 9.84495 8.64111 9.68219 8.64111C9.56012 8.64111 9.45351 8.6639 9.36237 8.70947C9.27122 8.75505 9.19472 8.82422 9.13287 8.91699C9.07102 9.00977 9.02464 9.12695 8.99371 9.26855C8.96442 9.40853 8.94977 9.57292 8.94977 9.76172V10.0132C8.94977 10.1971 8.9636 10.359 8.99127 10.499C9.01894 10.6374 9.06126 10.7546 9.11823 10.8506C9.17682 10.945 9.25169 11.0166 9.34283 11.0654C9.43561 11.1126 9.5471 11.1362 9.67731 11.1362C9.8303 11.1362 9.95644 11.1118 10.0557 11.063C10.155 11.0142 10.2307 10.9417 10.2828 10.8457C10.3365 10.7497 10.3682 10.63 10.378 10.4868Z" fill="#304CD9"/>
<path d="M18.9655 20H7.11724C6.84286 20 6.57976 19.891 6.38576 19.697C6.19176 19.503 6.08276 19.2399 6.08276 18.9655V13.9172H1.03448C0.760121 13.9172 0.496997 13.8082 0.302993 13.6142C0.10899 13.4202 0 13.1571 0 12.8828V1.03448C0 0.760121 0.10899 0.496997 0.302993 0.302993C0.496997 0.10899 0.760121 0 1.03448 0H12.8828C13.1571 0 13.4202 0.10899 13.6142 0.302993C13.8082 0.496997 13.9172 0.760121 13.9172 1.03448V6.08276H18.9655C19.2399 6.08276 19.503 6.19176 19.697 6.38576C19.891 6.57976 20 6.84286 20 7.11724V18.9655C20 19.2399 19.891 19.503 19.697 19.697C19.503 19.891 19.2399 20 18.9655 20ZM1.03448 0.689655C0.943028 0.689655 0.855321 0.725986 0.790652 0.790652C0.725986 0.855321 0.689655 0.943028 0.689655 1.03448V12.8828C0.689655 12.9742 0.725986 13.0619 0.790652 13.1266C0.855321 13.1912 0.943028 13.2276 1.03448 13.2276H6.42759C6.51903 13.2276 6.60676 13.2639 6.67141 13.3286C6.73607 13.3932 6.77241 13.481 6.77241 13.5724V18.9655C6.77241 19.057 6.80876 19.1447 6.87341 19.2093C6.93807 19.274 7.02579 19.3103 7.11724 19.3103H18.9655C19.057 19.3103 19.1447 19.274 19.2093 19.2093C19.274 19.1447 19.3103 19.057 19.3103 18.9655V7.11724C19.3103 7.02579 19.274 6.93807 19.2093 6.87341C19.1447 6.80876 19.057 6.77241 18.9655 6.77241H13.5724C13.481 6.77241 13.3932 6.73607 13.3286 6.67141C13.2639 6.60676 13.2276 6.51903 13.2276 6.42759V1.03448C13.2276 0.943028 13.1912 0.855321 13.1266 0.790652C13.0619 0.725986 12.9742 0.689655 12.8828 0.689655H1.03448Z" fill="#304CD9"/>
<path d="M13.5555 14.2856H12.4444C12.3265 14.2856 12.2135 14.241 12.1301 14.1616C12.0467 14.0822 11.9999 13.9746 11.9999 13.8623C11.9999 13.75 12.0467 13.6424 12.1301 13.563C12.2135 13.4836 12.3265 13.4391 12.4444 13.4391H13.1111V12.8041C13.1111 12.6918 13.1579 12.5842 13.2412 12.5048C13.3246 12.4254 13.4376 12.3809 13.5555 12.3809C13.6734 12.3809 13.7864 12.4254 13.8698 12.5048C13.9531 12.5842 13.9999 12.6918 13.9999 12.8041V13.8623C13.9999 13.9746 13.9531 14.0822 13.8698 14.1616C13.7864 14.241 13.6734 14.2856 13.5555 14.2856Z" fill="#418BFB"/>
<path d="M10.7238 14.2864H9.27624C9.20298 14.2864 9.13271 14.2362 9.08091 14.1469C9.02909 14.0576 9 13.9365 9 13.8102C9 13.6838 9.02909 13.5627 9.08091 13.4734C9.13271 13.3841 9.20298 13.334 9.27624 13.334H10.7238C10.797 13.334 10.8673 13.3841 10.9191 13.4734C10.9709 13.5627 11 13.6838 11 13.8102C11 13.9365 10.9709 14.0576 10.9191 14.1469C10.8673 14.2362 10.797 14.2864 10.7238 14.2864Z" fill="#418BFB"/>
<path d="M7.55556 14.2856H6.44444C6.32658 14.2856 6.21356 14.241 6.13018 14.1616C6.04684 14.0822 6 13.9746 6 13.8623V12.8041C6 12.6918 6.04684 12.5842 6.13018 12.5048C6.21356 12.4254 6.32658 12.3809 6.44444 12.3809C6.56236 12.3809 6.67538 12.4254 6.75871 12.5048C6.84209 12.5842 6.88889 12.6918 6.88889 12.8041V13.4391H7.55556C7.67347 13.4391 7.78649 13.4836 7.86982 13.563C7.9532 13.6424 8 13.75 8 13.8623C8 13.9746 7.9532 14.0822 7.86982 14.1616C7.78649 14.241 7.67347 14.2856 7.55556 14.2856Z" fill="#418BFB"/>
<path d="M6.5 11.4284C6.3674 11.4284 6.24025 11.3868 6.14645 11.3128C6.0527 11.2389 6 11.1385 6 11.0338V8.96592C6 8.86127 6.0527 8.76087 6.14645 8.68688C6.24025 8.61284 6.3674 8.57129 6.5 8.57129C6.63265 8.57129 6.7598 8.61284 6.85355 8.68688C6.94735 8.76087 7 8.86127 7 8.96592V11.0338C7 11.1385 6.94735 11.2389 6.85355 11.3128C6.7598 11.3868 6.63265 11.4284 6.5 11.4284Z" fill="#418BFB"/>
<path d="M6.44444 7.61961C6.32658 7.61961 6.21356 7.57503 6.13018 7.49567C6.04684 7.41626 6 7.30862 6 7.19633V6.13812C6 6.02587 6.04684 5.91823 6.13018 5.83882C6.21356 5.75946 6.32658 5.71484 6.44444 5.71484H7.55556C7.67347 5.71484 7.78649 5.75946 7.86982 5.83882C7.9532 5.91823 8 6.02587 8 6.13812C8 6.25042 7.9532 6.35806 7.86982 6.43747C7.78649 6.51683 7.67347 6.5614 7.55556 6.5614H6.88889V7.19633C6.88889 7.30862 6.84209 7.41626 6.75871 7.49567C6.67538 7.57503 6.56236 7.61961 6.44444 7.61961Z" fill="#418BFB"/>
<path d="M10.7238 6.66722H9.27624C9.20298 6.66722 9.13271 6.61708 9.08091 6.5278C9.02909 6.43846 9 6.31737 9 6.19103C9 6.06475 9.02909 5.94365 9.08091 5.85432C9.13271 5.76503 9.20298 5.71484 9.27624 5.71484H10.7238C10.797 5.71484 10.8673 5.76503 10.9191 5.85432C10.9709 5.94365 11 6.06475 11 6.19103C11 6.31737 10.9709 6.43846 10.9191 6.5278C10.8673 6.61708 10.797 6.66722 10.7238 6.66722Z" fill="#418BFB"/>
<path d="M13.5555 7.61961C13.4376 7.61961 13.3246 7.57503 13.2412 7.49567C13.1579 7.41626 13.1111 7.30862 13.1111 7.19633V6.5614H12.4444C12.3265 6.5614 12.2135 6.51683 12.1301 6.43747C12.0467 6.35806 11.9999 6.25042 11.9999 6.13812C11.9999 6.02587 12.0467 5.91823 12.1301 5.83882C12.2135 5.75946 12.3265 5.71484 12.4444 5.71484H13.5555C13.6734 5.71484 13.7864 5.75946 13.8698 5.83882C13.9531 5.91823 13.9999 6.02587 13.9999 6.13812V7.19633C13.9999 7.30862 13.9531 7.41626 13.8698 7.49567C13.7864 7.57503 13.6734 7.61961 13.5555 7.61961Z" fill="#418BFB"/>
<path d="M13.5001 11.4284C13.3674 11.4284 13.2403 11.3868 13.1465 11.3128C13.0527 11.2389 13.0001 11.1385 13.0001 11.0338V8.96592C13.0001 8.86127 13.0527 8.76087 13.1465 8.68688C13.2403 8.61284 13.3674 8.57129 13.5001 8.57129C13.6327 8.57129 13.7598 8.61284 13.8536 8.68688C13.9474 8.76087 14.0001 8.86127 14.0001 8.96592V11.0338C14.0001 11.1385 13.9474 11.2389 13.8536 11.3128C13.7598 11.3868 13.6327 11.4284 13.5001 11.4284Z" fill="#418BFB"/>
</svg>
