<svg width="22" height="20" viewBox="0 0 22 20" fill="none" xmlns="http://www.w3.org/2000/svg">
<path d="M18.5 0.3125H3.5C2.58832 0.3125 1.71398 0.674664 1.06932 1.31932C0.424664 1.96398 0.0625 2.83832 0.0625 3.75V16.25C0.0625 17.1617 0.424664 18.036 1.06932 18.6807C1.71398 19.3253 2.58832 19.6875 3.5 19.6875H18.5C19.4117 19.6875 20.286 19.3253 20.9307 18.6807C21.5753 18.036 21.9375 17.1617 21.9375 16.25V3.75C21.9375 2.83832 21.5753 1.96398 20.9307 1.31932C20.286 0.674664 19.4117 0.3125 18.5 0.3125ZM3.5 2.1875H18.5C18.9144 2.1875 19.3118 2.35212 19.6049 2.64515C19.8979 2.93817 20.0625 3.3356 20.0625 3.75V13.9875L16.6625 10.5875C16.5736 10.4925 16.4646 10.4185 16.3436 10.371C16.2225 10.3234 16.0923 10.3034 15.9625 10.3125C15.8312 10.3201 15.7028 10.3539 15.5847 10.4119C15.4666 10.4698 15.3613 10.5508 15.275 10.65L13.6625 12.5875L7.9125 6.8375C7.82777 6.74746 7.72492 6.67639 7.61072 6.62899C7.49653 6.58159 7.37359 6.55893 7.25 6.5625C7.1187 6.57014 6.99026 6.60393 6.8722 6.66189C6.75414 6.71984 6.64885 6.8008 6.5625 6.9L1.9375 12.4125V3.75C1.9375 3.3356 2.10212 2.93817 2.39515 2.64515C2.68817 2.35212 3.0856 2.1875 3.5 2.1875ZM1.9375 16.25V15.3375L7.3125 8.8875L12.4625 14.0375L9.3125 17.7875H3.5C3.08989 17.7876 2.69621 17.6264 2.40389 17.3387C2.11157 17.0511 1.94406 16.6601 1.9375 16.25ZM18.5 17.8125H11.75L16.0625 12.6375L20 16.575C19.9309 16.9225 19.7438 17.2355 19.4705 17.461C19.1972 17.6865 18.8543 17.8107 18.5 17.8125Z" fill="black"/>
</svg>
