<svg width="30" height="30" viewBox="0 0 30 30" fill="none" xmlns="http://www.w3.org/2000/svg">
<path d="M22.5 5.3125H7.5C6.58832 5.3125 5.71398 5.67466 5.06932 6.31932C4.42466 6.96398 4.0625 7.83832 4.0625 8.75V21.25C4.0625 22.1617 4.42466 23.036 5.06932 23.6807C5.71398 24.3253 6.58832 24.6875 7.5 24.6875H22.5C23.4117 24.6875 24.286 24.3253 24.9307 23.6807C25.5753 23.036 25.9375 22.1617 25.9375 21.25V8.75C25.9375 7.83832 25.5753 6.96398 24.9307 6.31932C24.286 5.67466 23.4117 5.3125 22.5 5.3125ZM7.5 7.1875H22.5C22.9144 7.1875 23.3118 7.35212 23.6049 7.64515C23.8979 7.93817 24.0625 8.3356 24.0625 8.75V18.9875L20.6625 15.5875C20.5736 15.4925 20.4646 15.4185 20.3436 15.371C20.2225 15.3234 20.0923 15.3034 19.9625 15.3125C19.8312 15.3201 19.7028 15.3539 19.5847 15.4119C19.4666 15.4698 19.3613 15.5508 19.275 15.65L17.6625 17.5875L11.9125 11.8375C11.8278 11.7475 11.7249 11.6764 11.6107 11.629C11.4965 11.5816 11.3736 11.5589 11.25 11.5625C11.1187 11.5701 10.9903 11.6039 10.8722 11.6619C10.7541 11.7198 10.6488 11.8008 10.5625 11.9L5.9375 17.4125V8.75C5.9375 8.3356 6.10212 7.93817 6.39515 7.64515C6.68817 7.35212 7.0856 7.1875 7.5 7.1875ZM5.9375 21.25V20.3375L11.3125 13.8875L16.4625 19.0375L13.3125 22.7875H7.5C7.08989 22.7876 6.69621 22.6264 6.40389 22.3387C6.11157 22.0511 5.94406 21.6601 5.9375 21.25ZM22.5 22.8125H15.75L20.0625 17.6375L24 21.575C23.9309 21.9225 23.7438 22.2355 23.4705 22.461C23.1972 22.6865 22.8543 22.8107 22.5 22.8125Z" fill="black"/>
</svg>

