<svg width="18" height="18" viewBox="0 0 18 18" fill="none" xmlns="http://www.w3.org/2000/svg">
<path d="M10.8214 15.9074L16.6317 8.82073C16.698 8.74594 16.7486 8.65867 16.7806 8.56404C16.8127 8.46941 16.8255 8.36933 16.8183 8.26968L16.0758 0.76633C16.0671 0.665201 16.0383 0.56683 15.991 0.477023C15.9437 0.387216 15.8789 0.307793 15.8004 0.243439C15.7219 0.179086 15.6313 0.131106 15.534 0.102332C15.4367 0.073558 15.3345 0.0645725 15.2337 0.0759056L7.73034 0.818475C7.53002 0.840099 7.34554 0.937439 7.21463 1.09059L1.41426 8.17628C1.03606 8.63935 0.856777 9.23343 0.91566 9.82841C0.974542 10.4234 1.2668 10.9708 1.72842 11.3508L7.64492 16.2017C8.10562 16.5828 8.69858 16.7658 9.29393 16.7106C9.88929 16.6555 10.4385 16.3667 10.8214 15.9074ZM8.59734 15.0623L2.68085 10.2114C2.52869 10.0822 2.43265 9.89897 2.41299 9.70033C2.39333 9.50168 2.45159 9.30316 2.57547 9.14663L8.18853 2.30056L14.637 1.66238L15.2752 8.11088L9.66214 14.957C9.53293 15.1091 9.34969 15.2052 9.15104 15.2248C8.95239 15.2445 8.75387 15.1862 8.59734 15.0623Z" fill="#304CD9"/>
<path d="M10.7212 5.04433C10.7892 5.73133 11.4012 6.23314 12.0882 6.16515C12.7752 6.09716 13.277 5.48512 13.209 4.79812C13.1411 4.11112 12.529 3.60932 11.842 3.6773C11.155 3.74529 10.6532 4.35733 10.7212 5.04433Z" fill="#304CD9"/>
</svg>
