<svg width="16" height="11" viewBox="0 0 16 11" fill="none" xmlns="http://www.w3.org/2000/svg">
<path d="M15.0002 6.24512H4.00024C3.80133 6.24512 3.61057 6.1661 3.46991 6.02545C3.32926 5.88479 3.25024 5.69403 3.25024 5.49512C3.25024 5.2962 3.32926 5.10544 3.46991 4.96479C3.61057 4.82414 3.80133 4.74512 4.00024 4.74512H15.0002C15.1992 4.74512 15.3899 4.82414 15.5306 4.96479C15.6712 5.10544 15.7502 5.2962 15.7502 5.49512C15.7502 5.69403 15.6712 5.88479 15.5306 6.02545C15.3899 6.1661 15.1992 6.24512 15.0002 6.24512Z" fill="#304CD9"/>
<path d="M15.0002 1.74512H4.00024C3.80133 1.74512 3.61057 1.6661 3.46991 1.52545C3.32926 1.38479 3.25024 1.19403 3.25024 0.995117C3.25024 0.796205 3.32926 0.605439 3.46991 0.464787C3.61057 0.324135 3.80133 0.245117 4.00024 0.245117H15.0002C15.1992 0.245117 15.3899 0.324135 15.5306 0.464787C15.6712 0.605439 15.7502 0.796205 15.7502 0.995117C15.7502 1.19403 15.6712 1.38479 15.5306 1.52545C15.3899 1.6661 15.1992 1.74512 15.0002 1.74512Z" fill="#304CD9"/>
<path d="M15.0002 10.7451H4.00024C3.80133 10.7451 3.61057 10.6661 3.46991 10.5254C3.32926 10.3848 3.25024 10.194 3.25024 9.99512C3.25024 9.7962 3.32926 9.60544 3.46991 9.46479C3.61057 9.32414 3.80133 9.24512 4.00024 9.24512H15.0002C15.1992 9.24512 15.3899 9.32414 15.5306 9.46479C15.6712 9.60544 15.7502 9.7962 15.7502 9.99512C15.7502 10.194 15.6712 10.3848 15.5306 10.5254C15.3899 10.6661 15.1992 10.7451 15.0002 10.7451Z" fill="#304CD9"/>
<path d="M1.00026 1.99501C0.870248 1.99661 0.741172 1.97283 0.620261 1.92501C0.500766 1.86703 0.389742 1.79302 0.290261 1.70501C0.197579 1.61157 0.124254 1.50076 0.0744896 1.37892C0.024725 1.25708 -0.000500038 1.12662 0.000260855 0.995014C0.00394434 0.730247 0.107527 0.476647 0.290261 0.285014C0.38413 0.192411 0.496617 0.120828 0.620261 0.0750135C0.863722 -0.0250045 1.1368 -0.0250045 1.38026 0.0750135C1.50301 0.122608 1.61516 0.193973 1.71026 0.285014C1.89299 0.476647 1.99658 0.730247 2.00026 0.995014C2.00102 1.12662 1.9758 1.25708 1.92603 1.37892C1.87627 1.50076 1.80294 1.61157 1.71026 1.70501C1.61078 1.79302 1.49976 1.86703 1.38026 1.92501C1.25935 1.97283 1.13027 1.99661 1.00026 1.99501Z" fill="#304CD9"/>
<path d="M1.00026 6.4952C0.869584 6.49362 0.740483 6.46644 0.620261 6.4152C0.499076 6.36456 0.387462 6.29353 0.290261 6.2052C0.197579 6.11176 0.124254 6.00094 0.0744896 5.87911C0.024725 5.75727 -0.000500038 5.62681 0.000260855 5.4952C0.00394434 5.23043 0.107527 4.97683 0.290261 4.7852C0.387462 4.69687 0.499076 4.62584 0.620261 4.5752C0.801283 4.49127 1.00328 4.4634 1.20026 4.4952L1.38026 4.5552L1.56026 4.6452C1.61265 4.68212 1.66274 4.7222 1.71026 4.7652C1.89773 4.96185 2.00168 5.22351 2.00026 5.4952C2.00026 5.76042 1.8949 6.01477 1.70737 6.20231C1.51983 6.38984 1.26548 6.4952 1.00026 6.4952Z" fill="#304CD9"/>
<path d="M1.00023 10.9953C0.87022 10.9968 0.741144 10.9731 0.620233 10.9253C0.500738 10.8673 0.389714 10.7933 0.290233 10.7053C0.201902 10.6081 0.130874 10.4964 0.0802326 10.3753C0.0273274 10.2556 0 10.1261 0 9.99526C0 9.86439 0.0273274 9.73496 0.0802326 9.61526C0.130874 9.49407 0.201902 9.38246 0.290233 9.28526C0.430856 9.1465 0.60943 9.0525 0.803419 9.01513C0.997409 8.97775 1.19812 8.99868 1.38023 9.07526C1.50298 9.12285 1.61513 9.19422 1.71023 9.28526C1.79856 9.38246 1.86959 9.49407 1.92023 9.61526C1.97314 9.73496 2.00047 9.86439 2.00047 9.99526C2.00047 10.1261 1.97314 10.2556 1.92023 10.3753C1.86959 10.4964 1.79856 10.6081 1.71023 10.7053C1.61679 10.7979 1.50598 10.8713 1.38414 10.921C1.2623 10.9708 1.13184 10.996 1.00023 10.9953Z" fill="#304CD9"/>
</svg>


