<svg width="20" height="20" viewBox="0 0 14 16" fill="none" xmlns="http://www.w3.org/2000/svg">
<path d="M11.4001 6.61849H11.1918V4.74349C11.1918 3.69367 10.7747 2.68686 10.0324 1.94453C9.29006 1.20219 8.28324 0.785156 7.23343 0.785156C6.18361 0.785156 5.1768 1.20219 4.43446 1.94453C3.69213 2.68686 3.2751 3.69367 3.2751 4.74349V6.61849H3.06676C2.45897 6.61849 1.87608 6.85993 1.44631 7.2897C1.01654 7.71947 0.775095 8.30237 0.775095 8.91016V13.0768C0.775095 13.6846 1.01654 14.2675 1.44631 14.6973C1.87608 15.127 2.45897 15.3685 3.06676 15.3685H11.4001C12.0079 15.3685 12.5908 15.127 13.0205 14.6973C13.4503 14.2675 13.6918 13.6846 13.6918 13.0768V8.91016C13.6918 8.30237 13.4503 7.71947 13.0205 7.2897C12.5908 6.85993 12.0079 6.61849 11.4001 6.61849ZM4.5251 4.74349C4.5251 4.02519 4.81044 3.33632 5.31835 2.82841C5.82626 2.3205 6.51513 2.03516 7.23343 2.03516C7.95172 2.03516 8.6406 2.3205 9.14851 2.82841C9.65642 3.33632 9.94176 4.02519 9.94176 4.74349V6.61849H4.5251V4.74349ZM12.4418 13.0768C12.4418 13.3531 12.332 13.618 12.1367 13.8134C11.9413 14.0087 11.6764 14.1185 11.4001 14.1185H3.06676C2.79049 14.1185 2.52554 14.0087 2.33019 13.8134C2.13484 13.618 2.0251 13.3531 2.0251 13.0768V8.91016C2.0251 8.63389 2.13484 8.36894 2.33019 8.17359C2.52554 7.97824 2.79049 7.86849 3.06676 7.86849H11.4001C11.6764 7.86849 11.9413 7.97824 12.1367 8.17359C12.332 8.36894 12.4418 8.63389 12.4418 8.91016V13.0768Z" fill="#1BB1D2"/>
</svg>
