<svg width="26" height="26" viewBox="0 0 26 26" fill="none" xmlns="http://www.w3.org/2000/svg">
<rect width="26" height="26" rx="5" fill="#83B5FF" fill-opacity="0.18"/>
<path d="M10.75 17.5C10.5519 17.4974 10.3626 17.4176 10.2225 17.2775C10.0824 17.1374 10.0026 16.9481 10 16.75V11.75C10 11.5511 10.079 11.3603 10.2197 11.2197C10.3603 11.079 10.5511 11 10.75 11C10.9489 11 11.1397 11.079 11.2803 11.2197C11.421 11.3603 11.5 11.5511 11.5 11.75V16.75C11.4974 16.9481 11.4176 17.1374 11.2775 17.2775C11.1374 17.4176 10.9481 17.4974 10.75 17.5Z" fill="#304CD9"/>
<path d="M10.75 10C10.5519 9.99741 10.3626 9.91756 10.2225 9.77747C10.0824 9.63737 10.0026 9.44811 10 9.25V8.75C10 8.55109 10.079 8.36032 10.2197 8.21967C10.3603 8.07902 10.5511 8 10.75 8C10.9489 8 11.1397 8.07902 11.2803 8.21967C11.421 8.36032 11.5 8.55109 11.5 8.75V9.25C11.4974 9.44811 11.4176 9.63737 11.2775 9.77747C11.1374 9.91756 10.9481 9.99741 10.75 10Z" fill="#304CD9"/>
<path d="M14.7493 17.3457C14.6486 17.3423 14.5497 17.3184 14.4585 17.2754C14.3674 17.2324 14.286 17.1712 14.2193 17.0957C14.0789 16.955 14 16.7644 14 16.5657C14 16.3669 14.0789 16.1763 14.2193 16.0357L17.2193 13.0357L14.2193 10.0357C14.16 9.89166 14.147 9.73275 14.1821 9.581C14.2172 9.42926 14.2987 9.2922 14.4152 9.18886C14.5317 9.08552 14.6775 9.02102 14.8324 9.00432C14.9872 8.98762 15.1435 9.01955 15.2793 9.09567L18.7793 12.5957C18.9198 12.7363 18.9987 12.9269 18.9987 13.1257C18.9987 13.3244 18.9198 13.515 18.7793 13.6557L15.2793 17.0957C15.2127 17.1712 15.1313 17.2324 15.0401 17.2754C14.949 17.3184 14.85 17.3423 14.7493 17.3457Z" fill="#304CD9"/>
<path d="M13 22C11.22 22 9.47991 21.4722 7.99987 20.4832C6.51983 19.4943 5.36628 18.0887 4.68509 16.4442C4.0039 14.7996 3.82567 12.99 4.17294 11.2442C4.5202 9.49836 5.37737 7.89472 6.63604 6.63604C7.89472 5.37737 9.49836 4.5202 11.2442 4.17294C12.99 3.82567 14.7996 4.0039 16.4442 4.68509C18.0887 5.36628 19.4943 6.51983 20.4832 7.99987C21.4722 9.47991 22 11.22 22 13C22 15.387 21.0518 17.6761 19.364 19.364C17.6761 21.0518 15.387 22 13 22ZM13 5.5C11.5166 5.5 10.0666 5.93987 8.83323 6.76398C7.59986 7.58809 6.63856 8.75943 6.07091 10.1299C5.50325 11.5003 5.35473 13.0083 5.64411 14.4632C5.9335 15.918 6.64781 17.2544 7.6967 18.3033C8.7456 19.3522 10.082 20.0665 11.5368 20.3559C12.9917 20.6453 14.4997 20.4968 15.8701 19.9291C17.2406 19.3614 18.4119 18.4001 19.236 17.1668C20.0601 15.9334 20.5 14.4834 20.5 13C20.5 11.0109 19.7098 9.10323 18.3033 7.6967C16.8968 6.29018 14.9891 5.5 13 5.5Z" fill="#304CD9"/>
</svg>
