<svg width="18" height="13" viewBox="0 0 18 13" fill="none" xmlns="http://www.w3.org/2000/svg">
<path d="M3.97985 12.4712C2.9201 12.4747 1.90228 12.0575 1.14985 11.3112C0.385992 10.4997 -0.0267421 9.41947 0.00134511 8.30535C0.0294323 7.19122 0.496071 6.1332 1.29985 5.36119L5.05985 1.57119C5.87714 0.727528 6.99543 0.242096 8.16985 0.221191C8.6974 0.224707 9.21903 0.332544 9.70473 0.538492C10.1904 0.74444 10.6306 1.04443 10.9999 1.42119C11.7741 2.23748 12.1931 3.32747 12.165 4.4522C12.1369 5.57692 11.6639 6.64461 10.8499 7.42119L9.58985 8.68119C9.52119 8.75488 9.43839 8.81398 9.34639 8.85497C9.25439 8.89596 9.15508 8.91801 9.05438 8.91978C8.95367 8.92156 8.85365 8.90304 8.76026 8.86531C8.66687 8.82759 8.58203 8.77145 8.51082 8.70023C8.4396 8.62901 8.38345 8.54418 8.34573 8.45079C8.30801 8.3574 8.28949 8.25737 8.29126 8.15667C8.29304 8.05597 8.31508 7.95665 8.35607 7.86465C8.39707 7.77265 8.45617 7.68985 8.52985 7.62119L9.74985 6.32119C10.2746 5.82877 10.5836 5.1491 10.6098 4.42999C10.6361 3.71089 10.3773 3.01052 9.88985 2.48119C9.35696 2.01649 8.66654 1.77316 7.96005 1.80105C7.25355 1.82894 6.58446 2.12593 6.08985 2.63119L2.35985 6.41119C1.84498 6.90244 1.54143 7.57474 1.51343 8.28582C1.48544 8.9969 1.73519 9.69098 2.20985 10.2212C2.47073 10.479 2.78514 10.6763 3.13077 10.799C3.47641 10.9217 3.84482 10.9668 4.20985 10.9312C4.30711 10.9216 4.40532 10.9313 4.4988 10.9598C4.59228 10.9883 4.67918 11.0351 4.75449 11.0974C4.82981 11.1597 4.89203 11.2363 4.93758 11.3227C4.98312 11.4092 5.01109 11.5038 5.01985 11.6012C5.03941 11.7987 4.97987 11.9959 4.85429 12.1496C4.7287 12.3033 4.54731 12.401 4.34985 12.4212L3.97985 12.4712Z" fill="#304CD9"/>
<path d="M9.32985 12.2213C8.80231 12.2178 8.28067 12.11 7.79498 11.904C7.30929 11.6981 6.86913 11.3981 6.49985 11.0213C5.72559 10.205 5.30658 9.11504 5.3347 7.99031C5.36282 6.86558 5.83577 5.79789 6.64985 5.02132L7.90985 3.76132C7.97851 3.68763 8.06131 3.62853 8.15331 3.58754C8.24531 3.54654 8.34463 3.5245 8.44533 3.52273C8.54603 3.52095 8.64606 3.53947 8.73945 3.57719C8.83284 3.61492 8.91767 3.67106 8.98889 3.74228C9.06011 3.8135 9.11625 3.89833 9.15397 3.99172C9.1917 4.08511 9.21022 4.18514 9.20844 4.28584C9.20667 4.38654 9.18462 4.48586 9.14363 4.57786C9.10264 4.66985 9.04354 4.75266 8.96985 4.82132L7.74985 6.12132C7.22515 6.61374 6.91608 7.29341 6.88986 8.01252C6.86364 8.73162 7.1224 9.43199 7.60985 9.96132C8.14274 10.426 8.83316 10.6693 9.53966 10.6415C10.2462 10.6136 10.9152 10.3166 11.4099 9.81132L15.1799 6.03132C15.6891 5.53475 15.9854 4.85959 16.0059 4.14858C16.0264 3.43757 15.7696 2.74644 15.2899 2.22132C15.029 1.96351 14.7146 1.76626 14.3689 1.64356C14.0233 1.52086 13.6549 1.47571 13.2899 1.51132C13.1926 1.52096 13.0944 1.51123 13.0009 1.48271C12.9074 1.45419 12.8205 1.40743 12.7452 1.34514C12.6699 1.28284 12.6077 1.20625 12.5621 1.11977C12.5166 1.0333 12.4886 0.938659 12.4799 0.841317C12.4603 0.643798 12.5198 0.446581 12.6454 0.292878C12.771 0.139176 12.9524 0.0415235 13.1499 0.0213176C13.732 -0.0390212 14.3202 0.0291079 14.8731 0.220899C15.426 0.41269 15.9301 0.723471 16.3499 1.13132C17.1137 1.94284 17.5264 3.02304 17.4984 4.13716C17.4703 5.25129 17.0036 6.30931 16.1999 7.08132L12.4399 10.8713C11.6226 11.715 10.5043 12.2004 9.32985 12.2213Z" fill="#304CD9"/>
</svg>
