<svg width="18" height="18" viewBox="0 0 18 18" fill="none" xmlns="http://www.w3.org/2000/svg">
<path d="M14.8065 18H3.19355C2.34657 18 1.53427 17.6635 0.935368 17.0646C0.336462 16.4657 0 15.6534 0 14.8065V3.19355C0 2.34657 0.336462 1.53427 0.935368 0.935368C1.53427 0.336462 2.34657 0 3.19355 0H14.8065C15.6534 0 16.4657 0.336462 17.0646 0.935368C17.6635 1.53427 18 2.34657 18 3.19355V14.8065C18 15.6534 17.6635 16.4657 17.0646 17.0646C16.4657 17.6635 15.6534 18 14.8065 18ZM3.19355 1.74194C2.80856 1.74194 2.43933 1.89487 2.1671 2.1671C1.89487 2.43933 1.74194 2.80856 1.74194 3.19355V14.8065C1.74194 15.1914 1.89487 15.5607 2.1671 15.8329C2.43933 16.1051 2.80856 16.2581 3.19355 16.2581H14.8065C15.1914 16.2581 15.5607 16.1051 15.8329 15.8329C16.1051 15.5607 16.2581 15.1914 16.2581 14.8065V3.19355C16.2581 2.80856 16.1051 2.43933 15.8329 2.1671C15.5607 1.89487 15.1914 1.74194 14.8065 1.74194H3.19355Z" fill="#304CD9"/>
<path d="M4.70898 4.04688H6.24023L9.11816 11.7236L11.9893 4.04688H13.5205L9.71973 14H8.50293L4.70898 4.04688ZM4.01172 4.04688H5.46777L5.7207 10.6914V14H4.01172V4.04688ZM12.7617 4.04688H14.2246V14H12.5088V10.6914L12.7617 4.04688Z" fill="#304CD9"/>
</svg>

