<svg width="15" height="13" viewBox="0 0 15 13" fill="none" xmlns="http://www.w3.org/2000/svg">
<path d="M12.364 5.33354C12.364 5.0099 12.0596 4.74609 11.6862 4.74609C11.3128 4.74609 11.0084 5.0099 11.0084 5.33354C11.0084 7.01157 9.43306 8.37413 7.5 8.37413C5.56695 8.37413 3.99163 7.00886 3.99163 5.33354C3.99163 5.0099 3.68724 4.74609 3.31381 4.74609C2.94038 4.74609 2.63599 5.0099 2.63599 5.33354C2.63599 7.46032 4.45921 9.22266 6.82218 9.50823V11.8254H5.07741C4.70398 11.8254 4.39958 12.0892 4.39958 12.4128C4.39958 12.7365 4.70398 13.0003 5.07741 13.0003H9.92573C10.2992 13.0003 10.6036 12.7365 10.6036 12.4128C10.6036 12.0892 10.2992 11.8254 9.92573 11.8254H8.18097V9.50823C10.5408 9.22266 12.364 7.4576 12.364 5.33354Z" fill="#304CD9"/>
<path d="M7.5 0C6.04393 0 4.86401 1.02259 4.86401 2.28452V5.29519C4.86401 6.55711 6.04393 7.57971 7.5 7.57971C8.95606 7.57971 10.136 6.55711 10.136 5.29519V2.28452C10.136 1.02259 8.95606 0 7.5 0ZM7.50314 1.52029C7.02929 1.52029 6.6433 1.85481 6.6433 2.26548C6.6433 2.45314 6.46757 2.60544 6.25104 2.60544C6.03452 2.60544 5.85878 2.45314 5.85878 2.26548C5.85878 1.4795 6.59623 0.840376 7.50314 0.840376C7.71966 0.840376 7.89539 0.992678 7.89539 1.18033C7.89539 1.36799 7.71966 1.52029 7.50314 1.52029Z" fill="#304CD9"/>
</svg>

