<svg width="33" height="30" viewBox="0 0 33 30" fill="none" xmlns="http://www.w3.org/2000/svg">
<path d="M28.7403 3.75H10.7082C10.0532 3.75 9.52203 4.23812 9.52203 4.84V9.37687H29.9264V4.84C29.9264 4.23812 29.3953 3.75 28.7403 3.75Z" fill="#2D92D4"/>
<path d="M9.52203 20.6582V25.1595C9.52203 25.7613 10.0532 26.2495 10.7075 26.2495H28.7403C29.3953 26.2495 29.9264 25.7613 29.9264 25.1595V20.6582H9.52203Z" fill="#2150A9"/>
<path d="M9.52203 9.37695H29.9264V15.0032H9.52203V9.37695Z" fill="#2D83D4"/>
<path d="M9.52203 15.0039H29.9264V20.6602H9.52203V15.0039Z" fill="#2E70C9"/>
<path d="M15.1802 21.25H3.86391C3.23273 21.25 2.72058 20.7794 2.72058 20.1994V9.80062C2.72058 9.22062 3.23273 8.75 3.86391 8.75H15.1802C15.8114 8.75 16.3235 9.22062 16.3235 9.80062V20.1994C16.3235 20.7794 15.8114 21.25 15.1802 21.25Z" fill="#00488D"/>
<path d="M12.5168 11.875L11.4653 16.415L10.3002 11.875H8.81268L7.61086 16.5556L6.52739 11.875H5.19702L6.79129 18.125H8.39099L9.55609 13.3194L10.7219 18.125H12.2529L13.8471 11.875H12.5168Z" fill="white"/>
</svg>
