<svg width="30" height="30" viewBox="0 0 30 30" fill="none" xmlns="http://www.w3.org/2000/svg">
<path d="M18.125 3.75H9.84C9.23813 3.75 8.75 4.23812 8.75 4.84V9.37687H18.125V3.75Z" fill="#169154"/>
<path d="M8.75 20.6582V25.1595C8.75 25.7613 9.23813 26.2495 9.83938 26.2495H18.125V20.6582H8.75Z" fill="#18482A"/>
<path d="M8.75 9.37695H18.125V15.0032H8.75V9.37695Z" fill="#0C8045"/>
<path d="M8.75 15.0039H18.125V20.6602H8.75V15.0039Z" fill="#17472A"/>
<path d="M26.41 3.75H18.125V9.37687H27.5V4.84C27.5 4.23812 27.0119 3.75 26.41 3.75Z" fill="#29C27F"/>
<path d="M18.125 20.6582V26.2495H26.4106C27.0119 26.2495 27.5 25.7613 27.5 25.1601V20.6588H18.125V20.6582Z" fill="#27663F"/>
<path d="M18.125 9.37695H27.5V15.0032H18.125V9.37695Z" fill="#19AC65"/>
<path d="M18.125 15.0039H27.5V20.6602H18.125V15.0039Z" fill="#129652"/>
<path d="M13.9494 21.25H3.55063C2.97063 21.25 2.5 20.7794 2.5 20.1994V9.80062C2.5 9.22062 2.97063 8.75 3.55063 8.75H13.9494C14.5294 8.75 15 9.22062 15 9.80062V20.1994C15 20.7794 14.5294 21.25 13.9494 21.25Z" fill="#0C7238"/>
<path d="M6.12936 11.875H7.62061L8.83061 14.2212L10.1094 11.875H11.5025L9.58311 15L11.5462 18.125H10.0769L8.75811 15.6687L7.44499 18.125H5.95374L7.94936 14.9888L6.12936 11.875Z" fill="white"/>
</svg>
