<svg width="11" height="12" viewBox="0 0 11 12" fill="none" xmlns="http://www.w3.org/2000/svg">
<path d="M11 9.09886C11 9.09886 11 9.05085 11 9.02342V2.97446C10.9998 2.89576 10.9825 2.81822 10.9497 2.74814C10.9034 2.63923 10.8232 2.55175 10.7234 2.50124L5.69486 0.0459947C5.63365 0.0156821 5.56721 0 5.5 0C5.43279 0 5.36635 0.0156821 5.30514 0.0459947L0.276571 2.50124C0.195697 2.54565 0.12731 2.61305 0.0786311 2.69635C0.0299518 2.77964 0.00278558 2.87572 0 2.97446V9.02342C0.00469932 9.12165 0.0326468 9.21687 0.0811175 9.2998C0.129588 9.38274 0.196928 9.45056 0.276571 9.49664L5.30514 11.9519C5.366 11.9836 5.43257 12 5.5 12C5.56743 12 5.634 11.9836 5.69486 11.9519L10.7234 9.49664C10.796 9.46037 10.8593 9.40507 10.9075 9.33567C10.9558 9.26626 10.9875 9.18491 11 9.09886ZM0.942857 3.76316L5.02857 5.76576V10.69L0.942857 8.69423V3.76316ZM5.97143 5.76576L10.0571 3.76316V8.69423L5.97143 10.69V5.76576Z" fill="#304CD9"/>
</svg>


