<svg width="20" height="20" viewBox="0 0 17 11" fill="none" xmlns="http://www.w3.org/2000/svg">
<path d="M8.44851 2.55707C8.18409 2.29211 7.84697 2.11161 7.47986 2.03843C7.11275 1.96525 6.73219 2.0027 6.38638 2.14602C6.04058 2.28934 5.7451 2.53209 5.53739 2.84351C5.32968 3.15492 5.21909 3.52099 5.21963 3.89531C5.21963 3.96072 5.24561 4.02344 5.29186 4.06969C5.33811 4.11594 5.40083 4.14192 5.46623 4.14192C5.53164 4.14192 5.59436 4.11594 5.64061 4.06969C5.68686 4.02344 5.71284 3.96072 5.71284 3.89531C5.71219 3.618 5.79387 3.34673 5.94753 3.11588C6.10119 2.88503 6.31992 2.70499 6.576 2.59857C6.83208 2.49214 7.11399 2.46413 7.38601 2.51807C7.65803 2.57201 7.90791 2.70548 8.10401 2.90157C8.3001 3.09767 8.43357 3.34755 8.48751 3.61957C8.54145 3.89159 8.51344 4.1735 8.40701 4.42958C8.30059 4.68566 8.12055 4.90439 7.8897 5.05805C7.65885 5.21171 7.38758 5.29339 7.11027 5.29274C7.04513 5.29359 6.9829 5.31985 6.93683 5.36591C6.89077 5.41198 6.86451 5.47421 6.86366 5.53935V6.19696C6.86366 6.26236 6.88964 6.32509 6.93589 6.37133C6.98214 6.41758 7.04486 6.44356 7.11027 6.44356C7.17567 6.44356 7.23839 6.41758 7.28464 6.37133C7.33089 6.32509 7.35687 6.26236 7.35687 6.19696V5.76951C7.70641 5.72268 8.03592 5.5792 8.30831 5.35521C8.5807 5.13122 8.78514 4.83562 8.89861 4.50172C9.01207 4.16781 9.03006 3.80886 8.95054 3.46529C8.87101 3.12171 8.69714 2.80717 8.44851 2.55707Z" fill="#304CD9"/>
<path d="M7.11026 7.75854C7.33726 7.75854 7.52127 7.57452 7.52127 7.34753C7.52127 7.12054 7.33726 6.93652 7.11026 6.93652C6.88327 6.93652 6.69926 7.12054 6.69926 7.34753C6.69926 7.57452 6.88327 7.75854 7.11026 7.75854Z" fill="#304CD9"/>
<path d="M16.9993 5.00195L13.3689 0.791125C13.0067 0.284748 12.5251 0.00585938 12.0127 0.00585938H0.812098C0.364304 0.00585938 0 0.515134 0 1.14112V8.87059C0 9.49658 0.364304 10.0059 0.812098 10.0059H12.0128C12.5251 10.0059 13.0067 9.72702 13.369 9.22059L16.9993 5.00195ZM15.4993 5.00195L12 9.00586H0.874141C1 9.00586 1 9.00586 1 9.00586V1.00586H12C12.566 1.00586 12.3738 1.00586 12 1.00586L15.4993 5.00195Z" fill="#304CD9"/>
</svg>
