<svg width="20" height="20" viewBox="0 0 18 11" fill="none" xmlns="http://www.w3.org/2000/svg">
<path d="M9.44851 2.55707C9.18409 2.29211 8.84697 2.11161 8.47986 2.03843C8.11275 1.96525 7.73219 2.0027 7.38638 2.14602C7.04058 2.28934 6.7451 2.53209 6.53739 2.84351C6.32968 3.15492 6.21909 3.52099 6.21963 3.89531C6.21963 3.96072 6.24561 4.02344 6.29186 4.06969C6.33811 4.11594 6.40083 4.14192 6.46623 4.14192C6.53164 4.14192 6.59436 4.11594 6.64061 4.06969C6.68686 4.02344 6.71284 3.96072 6.71284 3.89531C6.71219 3.618 6.79387 3.34673 6.94753 3.11588C7.10119 2.88503 7.31992 2.70499 7.576 2.59857C7.83208 2.49214 8.11399 2.46413 8.38601 2.51807C8.65803 2.57201 8.90791 2.70548 9.10401 2.90157C9.3001 3.09767 9.43357 3.34755 9.48751 3.61957C9.54145 3.89159 9.51344 4.1735 9.40701 4.42958C9.30059 4.68566 9.12055 4.90439 8.8897 5.05805C8.65885 5.21171 8.38758 5.29339 8.11027 5.29274C8.04513 5.29359 7.9829 5.31985 7.93683 5.36591C7.89077 5.41198 7.86451 5.47421 7.86366 5.53935V6.19696C7.86366 6.26236 7.88964 6.32509 7.93589 6.37133C7.98214 6.41758 8.04486 6.44356 8.11027 6.44356C8.17567 6.44356 8.23839 6.41758 8.28464 6.37133C8.33089 6.32509 8.35687 6.26236 8.35687 6.19696V5.76951C8.70641 5.72268 9.03592 5.5792 9.30831 5.35521C9.5807 5.13122 9.78514 4.83562 9.89861 4.50172C10.0121 4.16781 10.0301 3.80886 9.95054 3.46529C9.87101 3.12171 9.69714 2.80717 9.44851 2.55707Z" fill="#304CD9"/>
<path d="M8.11026 7.75854C8.33726 7.75854 8.52127 7.57452 8.52127 7.34753C8.52127 7.12054 8.33726 6.93652 8.11026 6.93652C7.88327 6.93652 7.69926 7.12054 7.69926 7.34753C7.69926 7.57452 7.88327 7.75854 8.11026 7.75854Z" fill="#304CD9"/>
<path d="M16.9993 4.99805L13.3689 0.787219C13.0067 0.280842 12.5251 0.00195312 12.0127 0.00195312H0.812098C0.364304 0.00195312 0 0.511228 0 1.13722V8.86669C0 9.49268 0.364304 10.002 0.812098 10.002H12.0128C12.5251 10.002 13.0067 9.72311 13.369 9.21669L16.9993 4.99805ZM15.4993 4.99805L12 9.00195H0.874141C1 9.00195 1 9.00195 1 9.00195V1.00195H12C12.566 1.00195 12.3738 1.00195 12 1.00195L15.4993 4.99805Z" fill="#304CD9"/>
<path d="M17.0076 0.00246951C17.1738 0.0036025 17.3328 0.0546231 17.4506 0.144657C17.5684 0.234692 17.6358 0.356623 17.6384 0.484472L17.6676 9.51987C17.668 9.64824 17.6021 9.77157 17.4844 9.86273C17.3667 9.95389 17.2069 10.0054 17.04 10.0059C16.8731 10.0065 16.7129 9.956 16.5946 9.86561C16.4763 9.77522 16.4096 9.65231 16.4092 9.52394L16.38 0.488544C16.3817 0.360682 16.4483 0.238317 16.5656 0.147521C16.6828 0.0567264 16.8414 0.00467818 17.0076 0.00246951Z" fill="#304CD9"/>
</svg>
