<svg width="20" height="20" viewBox="0 0 21 20" fill="none" xmlns="http://www.w3.org/2000/svg">
<path d="M6.89298 4.88247L14.7212 4.88247C14.8065 4.87922 14.8916 4.89304 14.9715 4.92312C15.0513 4.9532 15.1244 4.99893 15.1863 5.05764L19.7407 9.61204C19.8029 9.67253 19.8522 9.74486 19.8859 9.82474C19.9197 9.90462 19.937 9.99044 19.937 10.0771C19.937 10.1639 19.9197 10.2497 19.8859 10.3296C19.8522 10.4094 19.8029 10.4818 19.7407 10.5423L15.1863 15.0967C15.0636 15.2173 14.8993 15.2864 14.7273 15.2899L6.90506 15.2839C6.39432 15.2829 5.90479 15.0796 5.54364 14.7185C5.18249 14.3573 4.97917 13.8678 4.97819 13.357L4.9782 10.0892V6.82141C4.97596 6.31067 5.17621 5.81985 5.53509 5.45644C5.89398 5.09303 6.38224 4.88664 6.89298 4.88247ZM6.24666 6.80933V13.345C6.2496 13.5155 6.31864 13.6781 6.43922 13.7987C6.55979 13.9193 6.72248 13.9883 6.89298 13.9913L14.4555 13.9913L18.3696 10.0771L14.4555 6.16302L6.89298 6.16302C6.72248 6.16596 6.55979 6.235 6.43922 6.35557C6.31864 6.47615 6.2496 6.63884 6.24666 6.80933Z" fill="#304CD9"/>
<path d="M12.6551 7.78754C12.3907 7.52258 12.0536 7.34208 11.6865 7.2689C11.3194 7.19572 10.9388 7.23317 10.593 7.37649C10.2472 7.51981 9.95174 7.76256 9.74403 8.07398C9.53632 8.38539 9.42573 8.75145 9.42627 9.12578C9.42627 9.19119 9.45225 9.25391 9.4985 9.30016C9.54475 9.34641 9.60747 9.37239 9.67288 9.37239C9.73828 9.37239 9.801 9.34641 9.84725 9.30016C9.8935 9.25391 9.91948 9.19119 9.91948 9.12578C9.91883 8.84847 10.0005 8.5772 10.1542 8.34635C10.3078 8.1155 10.5266 7.93546 10.7826 7.82904C11.0387 7.72261 11.3206 7.6946 11.5927 7.74854C11.8647 7.80248 12.1146 7.93595 12.3106 8.13204C12.5067 8.32813 12.6402 8.57802 12.6942 8.85004C12.7481 9.12206 12.7201 9.40396 12.6137 9.66005C12.5072 9.91613 12.3272 10.1349 12.0963 10.2885C11.8655 10.4422 11.5942 10.5239 11.3169 10.5232C11.2518 10.5241 11.1895 10.5503 11.1435 10.5964C11.0974 10.6424 11.0712 10.7047 11.0703 10.7698V11.4274C11.0703 11.4928 11.0963 11.5556 11.1425 11.6018C11.1888 11.6481 11.2515 11.674 11.3169 11.674C11.3823 11.674 11.445 11.6481 11.4913 11.6018C11.5375 11.5556 11.5635 11.4928 11.5635 11.4274V11C11.913 10.9532 12.2426 10.8097 12.515 10.5857C12.7873 10.3617 12.9918 10.0661 13.1052 9.73219C13.2187 9.39828 13.2367 9.03933 13.1572 8.69576C13.0777 8.35218 12.9038 8.03764 12.6551 7.78754Z" fill="#304CD9"/>
<path d="M11.3169 12.989C11.5439 12.989 11.7279 12.805 11.7279 12.578C11.7279 12.351 11.5439 12.167 11.3169 12.167C11.0899 12.167 10.9059 12.351 10.9059 12.578C10.9059 12.805 11.0899 12.989 11.3169 12.989Z" fill="#304CD9"/>
</svg>
