<svg width="20" height="20" viewBox="0 0 13 16" fill="none" xmlns="http://www.w3.org/2000/svg">
<path d="M3.23706 1.4389V2.87891H5.60388H7.97069V1.4389V-0.0011096H5.60388H3.23706V1.4389Z" fill="#304CD9"/>
<path d="M0.0301043 0.888677C-0.0290661 1.11268 0.0122164 4.41565 0.0418016 7.99967L0.0300305 14.6665L1.91276 14.6664C3.5863 14.6665 3.37711 14.7465 3.37711 13.9999C3.37711 13.2959 3.41451 13.1197 2.49737 13.1197H1.46189V7.67967C1.46189 2.46364 1.28518 2.22202 1.91276 2.22202C2.35654 2.22202 2.54034 2.13135 2.54034 1.55535C2.54034 0.819343 2.54034 0.888677 1.49438 0.888677C0.784332 0.888677 0.239223 0.888677 0.0301043 0.888677Z" fill="#304CD9"/>
<path d="M8.81639 1.55393C8.81639 2.16193 8.71047 2.23853 9.15425 2.23853C9.62761 2.23853 9.74595 2.46253 9.74595 3.19854C9.74595 3.99848 9.83902 4.2207 10.4899 4.2207C11.1999 4.2207 11.166 4.15854 11.166 2.46253V0.798522H9.86243C8.69709 0.798522 8.81639 0.817922 8.81639 1.55393Z" fill="#304CD9"/>
<path d="M4.12445 10.399V15.999H8.56223H13V10.399V4.79896H8.56223H4.12445V10.399ZM11.7446 7.55453C11.7446 7.74653 10.3965 7.99898 8.71016 7.99898C7.0238 7.99898 5.89956 7.87098 5.89956 7.67898C5.89956 7.48698 7.0238 7.35898 8.71016 7.35898C10.3965 7.35898 11.7446 7.36253 11.7446 7.55453ZM10.0415 9.59899C10.0415 9.79099 9.15393 9.91899 7.97053 9.91899C6.78712 9.91899 5.89956 9.79099 5.89956 9.59899C5.89956 9.40699 6.78712 9.27899 7.97053 9.27899C9.15393 9.27899 10.0415 9.40699 10.0415 9.59899ZM11.5207 11.519C11.5207 11.711 10.3965 11.839 8.71016 11.839C7.0238 11.839 5.89956 11.711 5.89956 11.519C5.89956 11.327 7.0238 11.199 8.71016 11.199C10.3965 11.199 11.5207 11.327 11.5207 11.519ZM10.0415 13.439C10.0415 13.631 9.15393 13.759 7.97053 13.759C6.78712 13.759 5.89956 13.631 5.89956 13.439C5.89956 13.247 6.78712 13.119 7.97053 13.119C9.15393 13.119 10.0415 13.247 10.0415 13.439Z" fill="#304CD9"/>
</svg>
