<svg width="26" height="33" viewBox="0 0 26 33" fill="none" xmlns="http://www.w3.org/2000/svg">
<path d="M25.5158 11.1243L14.9167 1.21643C14.6473 0.964358 14.282 0.822579 13.9008 0.822266H5.33333C3.93542 0.822266 2.59476 1.34137 1.60629 2.26537C0.617818 3.18938 0.0625 4.44261 0.0625 5.74935V27.2493C0.0625 28.5561 0.617818 29.8093 1.60629 30.7333C2.59476 31.6573 3.93542 32.1764 5.33333 32.1764H20.6667C22.0646 32.1764 23.4052 31.6573 24.3937 30.7333C25.3822 29.8093 25.9375 28.5561 25.9375 27.2493V12.0202C25.9224 11.6826 25.7719 11.3628 25.5158 11.1243V11.1243ZM15.3958 5.40893L21.0308 10.6764H15.3958V5.40893ZM20.6667 29.4889H5.33333C4.69792 29.4889 4.08853 29.253 3.63922 28.833C3.18992 28.413 2.9375 27.8433 2.9375 27.2493V5.74935C2.9375 5.15537 3.18992 4.58573 3.63922 4.16572C4.08853 3.74572 4.69792 3.50977 5.33333 3.50977H12.5208V12.0202C12.5258 12.3751 12.6788 12.7142 12.9474 12.9652C13.2159 13.2162 13.5786 13.3593 13.9583 13.3639H23.0625V27.2493C23.0625 27.8433 22.8101 28.413 22.3608 28.833C21.9115 29.253 21.3021 29.4889 20.6667 29.4889Z" fill="black"/>
<path d="M15.8559 21.6058C14.6773 20.9145 13.7903 19.8638 13.345 18.6316C13.7577 17.4789 13.8823 16.253 13.7092 15.0483C13.6539 14.7448 13.4956 14.4659 13.2576 14.2531C13.0196 14.0403 12.7146 13.9047 12.3878 13.8665C12.061 13.8284 11.7297 13.8895 11.443 14.0411C11.1562 14.1926 10.9294 14.4264 10.7959 14.7079C10.5776 16.1563 10.7422 17.6326 11.275 19.0079C10.5471 20.5975 9.73466 22.1522 8.84086 23.6662C7.48002 24.3829 5.62086 25.4579 5.33336 26.6941C5.10336 27.6974 7.11586 30.2774 10.5467 24.6874C12.0722 24.1581 13.6348 23.7271 15.2234 23.3974C16.3977 24.0251 17.7076 24.3985 19.0567 24.4904C19.3665 24.4979 19.6717 24.4196 19.934 24.2654C20.1964 24.1112 20.4041 23.888 20.5311 23.6238C20.6581 23.3596 20.6987 23.0661 20.6478 22.7804C20.5969 22.4947 20.4568 22.2294 20.245 22.0179C19.44 21.2474 17.0442 21.4624 15.8559 21.6058ZM6.69419 26.9808C7.23131 26.1216 7.94065 25.3672 8.78336 24.7591C7.48002 26.6941 6.69419 27.0345 6.69419 26.9987V26.9808ZM12.2909 14.7795C12.7892 14.7795 12.7509 16.8399 12.4059 17.3954C12.146 16.5504 12.1065 15.6596 12.2909 14.7974V14.7795ZM10.6234 23.5229C11.2727 22.4153 11.8364 21.2657 12.31 20.0829C12.8178 20.9661 13.5239 21.7362 14.38 22.3404C13.0941 22.6415 11.8374 23.043 10.6234 23.5408V23.5229ZM19.6317 23.2004C19.6317 23.2004 19.2867 23.5945 17.0825 22.6987C19.4784 22.5554 19.8809 23.0749 19.6317 23.2183V23.2004Z" fill="black"/>
</svg>