<svg width="13" height="14" viewBox="0 0 13 14" fill="none" xmlns="http://www.w3.org/2000/svg">
<path d="M3.71802 12.113H2.58197C2.05997 12.113 1.63599 11.689 1.63599 11.167V2.08197C1.63599 1.55997 2.05997 1.13599 2.58197 1.13599H5.42102V4.73199C5.42102 5.04199 5.67801 5.29999 5.98901 5.29999H9.62299C9.69899 5.51899 9.90302 5.67798 10.153 5.67798C10.463 5.67798 10.721 5.42099 10.721 5.10999V4.73199C10.721 4.65599 10.706 4.58002 10.675 4.51202C10.645 4.44402 10.607 4.38399 10.554 4.33099L6.39001 0.166992C6.33701 0.113992 6.27701 0.0759829 6.20801 0.0449829C6.14001 0.0149829 6.06501 0 5.98901 0H2.58197C1.43097 0 0.5 0.93097 0.5 2.08197V11.167C0.5 12.318 1.43097 13.249 2.58197 13.249H3.71802C4.02802 13.249 4.28497 12.992 4.28497 12.681C4.28497 12.371 4.02802 12.113 3.71802 12.113ZM6.55701 1.93799L8.78302 4.164H6.55701V1.93799ZM9.89301 14C9.67601 14 9.47299 13.898 9.30499 13.81C9.19899 13.757 9.071 13.691 9.005 13.691C8.938 13.691 8.80598 13.757 8.70398 13.81C8.49198 13.92 8.22701 14.053 7.94501 13.978C7.65301 13.903 7.494 13.647 7.362 13.443C7.304 13.351 7.225 13.227 7.172 13.196C7.119 13.165 6.97697 13.161 6.85797 13.152C6.61997 13.139 6.324 13.126 6.112 12.918C5.9 12.701 5.88599 12.406 5.87299 12.167C5.86899 12.052 5.85998 11.906 5.82898 11.853C5.80298 11.805 5.674 11.725 5.586 11.668C5.383 11.535 5.131 11.372 5.052 11.085C4.977 10.802 5.10897 10.537 5.21997 10.325C5.27297 10.219 5.33899 10.091 5.33899 10.025C5.33899 9.95902 5.27297 9.82598 5.21997 9.72498C5.10897 9.51298 4.977 9.24803 5.052 8.96503C5.127 8.67303 5.383 8.51402 5.586 8.38202C5.679 8.32402 5.80298 8.24502 5.83398 8.19202C5.86398 8.13902 5.86899 7.99799 5.87799 7.87799C5.89099 7.63999 5.904 7.34402 6.112 7.13202C6.328 6.92002 6.62398 6.90701 6.86298 6.89301C6.97698 6.88901 7.12303 6.88 7.17603 6.849C7.22503 6.823 7.304 6.69502 7.362 6.60602C7.494 6.40302 7.65801 6.15102 7.94501 6.07202C8.22701 5.99702 8.49198 6.12899 8.70398 6.23999C8.80998 6.29299 8.938 6.35901 9.005 6.35901C9.071 6.35901 9.20299 6.29299 9.30499 6.23999C9.51699 6.13399 9.782 5.99702 10.065 6.07202C10.356 6.14702 10.515 6.40302 10.648 6.60602C10.705 6.69902 10.785 6.823 10.838 6.854C10.891 6.885 11.032 6.88901 11.151 6.89801C11.39 6.91101 11.686 6.92402 11.898 7.13202C12.11 7.34802 12.123 7.644 12.136 7.883C12.141 7.998 12.149 8.14298 12.18 8.19598C12.207 8.24498 12.335 8.32402 12.423 8.38202C12.626 8.51402 12.878 8.67803 12.958 8.96503C13.033 9.24803 12.9 9.51298 12.79 9.72498C12.737 9.83098 12.671 9.95902 12.671 10.025C12.671 10.091 12.737 10.224 12.79 10.325C12.9 10.537 13.033 10.802 12.958 11.085C12.883 11.376 12.626 11.535 12.423 11.668C12.331 11.725 12.207 11.805 12.176 11.858C12.145 11.911 12.141 12.052 12.132 12.171C12.119 12.41 12.105 12.706 11.898 12.918C11.681 13.13 11.385 13.143 11.147 13.156C11.032 13.161 10.886 13.17 10.833 13.201C10.785 13.227 10.705 13.355 10.648 13.443C10.515 13.647 10.352 13.898 10.065 13.978C10.007 13.996 9.95001 14 9.89301 14ZM8.23199 7.12701C8.23199 7.12701 8.23203 7.12701 8.22803 7.12701C8.18903 7.14301 8.09998 7.27398 8.05798 7.34698C7.96498 7.48998 7.86101 7.65302 7.69501 7.74902C7.52501 7.84602 7.33202 7.85699 7.15802 7.86499C7.07302 7.86899 6.915 7.87699 6.88 7.90399C6.85701 7.93499 6.84897 8.08901 6.84497 8.17401C6.83697 8.34801 6.826 8.54097 6.729 8.70697C6.633 8.87297 6.47003 8.97801 6.32703 9.07001C6.25403 9.11701 6.12299 9.20202 6.10699 9.24402C6.10299 9.28702 6.16901 9.418 6.20801 9.495C6.28501 9.64999 6.37799 9.824 6.37799 10.021C6.37799 10.218 6.28901 10.391 6.20801 10.546C6.16901 10.623 6.09999 10.754 6.10699 10.797C6.12299 10.836 6.25403 10.924 6.32703 10.967C6.47003 11.06 6.633 11.164 6.729 11.33C6.826 11.5 6.83697 11.693 6.84497 11.867C6.84897 11.952 6.85697 12.11 6.88397 12.145C6.91497 12.168 7.06899 12.176 7.15399 12.18C7.32799 12.188 7.52101 12.199 7.68701 12.296C7.85301 12.392 7.95799 12.555 8.04999 12.698C8.09699 12.771 8.182 12.902 8.224 12.918C8.263 12.929 8.39798 12.856 8.47498 12.817C8.62998 12.74 8.80398 12.647 9.00098 12.647C9.19798 12.647 9.371 12.736 9.526 12.817C9.603 12.856 9.72698 12.929 9.77698 12.918C9.81598 12.902 9.90502 12.771 9.94702 12.698C10.04 12.555 10.144 12.392 10.31 12.296C10.48 12.199 10.673 12.188 10.847 12.18C10.932 12.176 11.09 12.168 11.125 12.141C11.148 12.11 11.156 11.956 11.16 11.871C11.168 11.697 11.179 11.504 11.276 11.338C11.372 11.172 11.535 11.067 11.678 10.975C11.751 10.928 11.882 10.843 11.898 10.801C11.902 10.758 11.836 10.627 11.797 10.55C11.72 10.395 11.627 10.221 11.627 10.024C11.627 9.82699 11.716 9.65402 11.797 9.49902C11.836 9.42202 11.902 9.28999 11.898 9.24799C11.882 9.20499 11.747 9.11997 11.678 9.07397C11.535 8.98097 11.372 8.877 11.276 8.711C11.179 8.541 11.168 8.34801 11.16 8.17401C11.156 8.08901 11.148 7.931 11.121 7.896C11.09 7.873 10.936 7.86502 10.851 7.86102C10.677 7.85302 10.484 7.842 10.318 7.745C10.152 7.64899 10.047 7.48599 9.95502 7.34399C9.90802 7.26999 9.82301 7.13899 9.78101 7.12299C9.74201 7.11199 9.60703 7.185 9.53003 7.224C9.37503 7.301 9.20103 7.39398 9.00403 7.39398C8.80703 7.39398 8.634 7.305 8.479 7.224C8.402 7.185 8.27799 7.12299 8.23199 7.12299V7.12701ZM10.702 8.75897C10.619 8.67597 10.508 8.63 10.39 8.63C10.271 8.63 10.16 8.67597 10.077 8.75897L8.48297 10.353L7.92798 9.79901C7.84498 9.71601 7.73399 9.66998 7.61499 9.66998C7.49699 9.66998 7.38598 9.71601 7.30298 9.79901C7.21898 9.88201 7.17401 9.99302 7.17401 10.111C7.17401 10.23 7.21898 10.341 7.30298 10.424L8.16998 11.291C8.25298 11.375 8.36497 11.421 8.48297 11.421C8.59997 11.421 8.71198 11.375 8.79498 11.291L10.702 9.38397C10.786 9.30097 10.831 9.18998 10.831 9.07098C10.831 8.95298 10.786 8.84197 10.702 8.75897Z" fill="#696CFF"/>
</svg>
