<svg width="20" height="20" viewBox="0 0 17 11" fill="none" xmlns="http://www.w3.org/2000/svg">
<path d="M11.2289 2.55512C10.9645 2.29016 10.6273 2.10965 10.2602 2.03648C9.89312 1.9633 9.51256 2.00075 9.16675 2.14407C8.82095 2.28739 8.52547 2.53014 8.31776 2.84155C8.11005 3.15297 7.99946 3.51903 8 3.89336C8 3.95876 8.02598 4.02149 8.07223 4.06774C8.11848 4.11398 8.1812 4.13997 8.24661 4.13997C8.31201 4.13997 8.37474 4.11398 8.42098 4.06774C8.46723 4.02149 8.49321 3.95876 8.49321 3.89336C8.49256 3.61605 8.57424 3.34478 8.7279 3.11393C8.88157 2.88308 9.10029 2.70304 9.35638 2.59661C9.61246 2.49019 9.89437 2.46217 10.1664 2.51612C10.4384 2.57006 10.6883 2.70353 10.8844 2.89962C11.0805 3.09571 11.2139 3.3456 11.2679 3.61762C11.3218 3.88963 11.2938 4.17154 11.1874 4.42762C11.081 4.6837 10.9009 4.90243 10.6701 5.0561C10.4392 5.20976 10.168 5.29144 9.89064 5.29079C9.8255 5.29164 9.76327 5.31789 9.7172 5.36396C9.67114 5.41002 9.64489 5.47225 9.64403 5.53739V6.19501C9.64403 6.26041 9.67002 6.32313 9.71626 6.36938C9.76251 6.41563 9.82524 6.44161 9.89064 6.44161C9.95604 6.44161 10.0188 6.41563 10.065 6.36938C10.1113 6.32313 10.1372 6.26041 10.1372 6.19501V5.76756C10.4868 5.72073 10.8163 5.57724 11.0887 5.35325C11.3611 5.12926 11.5655 4.83367 11.679 4.49977C11.7924 4.16586 11.8104 3.80691 11.7309 3.46333C11.6514 3.11976 11.4775 2.80521 11.2289 2.55512Z" fill="#304CD9"/>
<path d="M9.89064 7.75659C10.1176 7.75659 10.3016 7.57257 10.3016 7.34558C10.3016 7.11858 10.1176 6.93457 9.89064 6.93457C9.66364 6.93457 9.47963 7.11858 9.47963 7.34558C9.47963 7.57257 9.66364 7.75659 9.89064 7.75659Z" fill="#304CD9"/>
<path d="M0 5L3.63039 0.789172C3.99262 0.282795 4.47424 0.00390625 4.98659 0.00390625H16.1872C16.635 0.00390625 16.9993 0.513181 16.9993 1.13917V8.86864C16.9993 9.49463 16.635 10.0039 16.1872 10.0039H4.98655C4.47424 10.0039 3.99261 9.72507 3.63035 9.21864L0 5ZM1.5 5L4.99931 9.00391H16.1252C15.9993 9.00391 15.9993 9.00391 15.9993 9.00391V1.00391H4.99931C4.43332 1.00391 4.62547 1.00391 4.99931 1.00391L1.5 5Z" fill="#304CD9"/>
</svg>
