<svg width="20" height="20" viewBox="0 0 18 12" fill="none" xmlns="http://www.w3.org/2000/svg">
<path d="M11.2289 3.55512C10.9645 3.29016 10.6273 3.10965 10.2602 3.03648C9.89312 2.9633 9.51256 3.00075 9.16675 3.14407C8.82095 3.28739 8.52547 3.53014 8.31776 3.84155C8.11005 4.15297 7.99946 4.51903 8 4.89336C8 4.95876 8.02598 5.02149 8.07223 5.06774C8.11848 5.11398 8.1812 5.13997 8.24661 5.13997C8.31201 5.13997 8.37474 5.11398 8.42098 5.06774C8.46723 5.02149 8.49321 4.95876 8.49321 4.89336C8.49256 4.61605 8.57424 4.34478 8.7279 4.11393C8.88157 3.88308 9.10029 3.70304 9.35638 3.59661C9.61246 3.49019 9.89437 3.46217 10.1664 3.51612C10.4384 3.57006 10.6883 3.70353 10.8844 3.89962C11.0805 4.09571 11.2139 4.3456 11.2679 4.61762C11.3218 4.88963 11.2938 5.17154 11.1874 5.42762C11.081 5.6837 10.9009 5.90243 10.6701 6.0561C10.4392 6.20976 10.168 6.29144 9.89064 6.29079C9.8255 6.29164 9.76327 6.31789 9.7172 6.36396C9.67114 6.41002 9.64489 6.47225 9.64403 6.53739V7.19501C9.64403 7.26041 9.67002 7.32313 9.71626 7.36938C9.76251 7.41563 9.82524 7.44161 9.89064 7.44161C9.95604 7.44161 10.0188 7.41563 10.065 7.36938C10.1113 7.32313 10.1372 7.26041 10.1372 7.19501V6.76756C10.4868 6.72073 10.8163 6.57724 11.0887 6.35325C11.3611 6.12926 11.5655 5.83367 11.679 5.49977C11.7924 5.16586 11.8104 4.80691 11.7309 4.46333C11.6514 4.11976 11.4775 3.80521 11.2289 3.55512Z" fill="#304CD9"/>
<path d="M9.89064 8.75659C10.1176 8.75659 10.3016 8.57257 10.3016 8.34558C10.3016 8.11858 10.1176 7.93457 9.89064 7.93457C9.66364 7.93457 9.47963 8.11858 9.47963 8.34558C9.47963 8.57257 9.66364 8.75659 9.89064 8.75659Z" fill="#304CD9"/>
<path d="M1 5.99609L4.63039 1.78527C4.99262 1.27889 5.47424 1 5.98659 1H17.1872C17.635 1 17.9993 1.50928 17.9993 2.13527V9.86473C17.9993 10.4907 17.635 11 17.1872 11H5.98655C5.47424 11 4.99261 10.7212 4.63035 10.2147L1 5.99609ZM2.5 5.99609L5.99931 10H17.1252C16.9993 10 16.9993 10 16.9993 10V2H5.99931C5.43332 2 5.62547 2 5.99931 2L2.5 5.99609Z" fill="#304CD9"/>
<path d="M0.991694 1.00052C0.825491 1.00165 0.666544 1.05267 0.548722 1.1427C0.4309 1.23274 0.363517 1.35467 0.36093 1.48252L0.33169 10.5179C0.331275 10.6463 0.397167 10.7696 0.51487 10.8608C0.632574 10.9519 0.792448 11.0034 0.959321 11.004C1.12619 11.0045 1.2864 10.9541 1.40469 10.8637C1.52298 10.7733 1.58967 10.6504 1.59009 10.522L1.61933 1.48659C1.61757 1.35873 1.55097 1.23636 1.43374 1.14557C1.3165 1.05477 1.15789 1.00273 0.991694 1.00052Z" fill="#304CD9"/>
</svg>
