<svg width="20" height="20" viewBox="0 0 20 20" fill="none" xmlns="http://www.w3.org/2000/svg">
<path d="M13.4445 4.88247L5.61629 4.88247C5.531 4.87922 5.44593 4.89304 5.36606 4.92312C5.28619 4.9532 5.21313 4.99893 5.15118 5.05764L0.596777 9.61204C0.534662 9.67253 0.485292 9.74486 0.451583 9.82474C0.417873 9.90462 0.400506 9.99044 0.400506 10.0771C0.400506 10.1639 0.417873 10.2497 0.451583 10.3296C0.485292 10.4094 0.534662 10.4818 0.596777 10.5423L5.15118 15.0967C5.27396 15.2173 5.43818 15.2864 5.61025 15.2899L13.4325 15.2839C13.9432 15.2829 14.4327 15.0796 14.7939 14.7185C15.155 14.3573 15.3584 13.8678 15.3593 13.357L15.3593 10.0892V6.82141C15.3616 6.31067 15.1613 5.81985 14.8024 5.45644C14.4435 5.09303 13.9553 4.88664 13.4445 4.88247ZM14.0909 6.80933V13.345C14.0879 13.5155 14.0189 13.6781 13.8983 13.7987C13.7777 13.9193 13.615 13.9883 13.4445 13.9913L5.88206 13.9913L1.96793 10.0771L5.88206 6.16302L13.4445 6.16302C13.615 6.16596 13.7777 6.235 13.8983 6.35557C14.0189 6.47615 14.0879 6.63884 14.0909 6.80933Z" fill="#304CD9"/>
<path d="M10.3605 7.98676C10.0961 7.7218 9.75893 7.5413 9.39182 7.46812C9.02472 7.39494 8.64415 7.43239 8.29835 7.57571C7.95254 7.71903 7.65706 7.96178 7.44935 8.27319C7.24165 8.58461 7.13105 8.95067 7.13159 9.325C7.13159 9.39041 7.15758 9.45313 7.20382 9.49938C7.25007 9.54562 7.31279 9.57161 7.3782 9.57161C7.4436 9.57161 7.50633 9.54562 7.55257 9.49938C7.59882 9.45313 7.6248 9.39041 7.6248 9.325C7.62415 9.04769 7.70583 8.77642 7.8595 8.54557C8.01316 8.31472 8.23189 8.13468 8.48797 8.02825C8.74405 7.92183 9.02596 7.89381 9.29798 7.94776C9.56999 8.0017 9.81988 8.13517 10.016 8.33126C10.2121 8.52735 10.3455 8.77724 10.3995 9.04926C10.4534 9.32127 10.4254 9.60318 10.319 9.85926C10.2126 10.1153 10.0325 10.3341 9.80166 10.4877C9.57081 10.6414 9.29954 10.7231 9.02223 10.7224C8.95709 10.7233 8.89486 10.7495 8.8488 10.7956C8.80273 10.8417 8.77648 10.9039 8.77563 10.969V11.6266C8.77563 11.692 8.80161 11.7548 8.84785 11.801C8.8941 11.8473 8.95683 11.8733 9.02223 11.8733C9.08763 11.8733 9.15036 11.8473 9.19661 11.801C9.24285 11.7548 9.26884 11.692 9.26884 11.6266V11.1992C9.61837 11.1524 9.94789 11.0089 10.2203 10.7849C10.4927 10.5609 10.6971 10.2653 10.8106 9.93141C10.924 9.5975 10.942 9.23855 10.8625 8.89498C10.783 8.5514 10.6091 8.23685 10.3605 7.98676Z" fill="#304CD9"/>
<path d="M9.02223 13.1882C9.24922 13.1882 9.43324 13.0042 9.43324 12.7772C9.43324 12.5502 9.24922 12.3662 9.02223 12.3662C8.79524 12.3662 8.61122 12.5502 8.61122 12.7772C8.61122 13.0042 8.79524 13.1882 9.02223 13.1882Z" fill="#304CD9"/>
</svg>
