<svg width="16" height="14" viewBox="0 0 16 14" fill="none" xmlns="http://www.w3.org/2000/svg">
<path d="M11.4194 0.000807684H1.93548C1.43778 -0.013747 0.954581 0.168903 0.591782 0.50873C0.228984 0.848556 0.0161781 1.31784 0 1.81374V11.3799C0.0201982 11.9617 0.271174 12.5119 0.697874 12.9096C1.12457 13.3073 1.69216 13.5201 2.27613 13.5014H11.4194C11.5727 13.4994 11.7193 13.4378 11.8277 13.3297C11.9362 13.2216 11.998 13.0756 12 12.9228V0.579404C11.998 0.426572 11.9362 0.280562 11.8277 0.172484C11.7193 0.0644063 11.5727 0.00280574 11.4194 0.000807684ZM10.8387 12.3442H2.27613C2.00004 12.3633 1.72762 12.2725 1.51863 12.0917C1.30964 11.9109 1.18113 11.6549 1.16129 11.3799C1.18113 11.1048 1.30964 10.8488 1.51863 10.668C1.72762 10.4872 2.00004 10.3964 2.27613 10.4155H10.8387V12.3442ZM10.8387 9.25835H2.27613C1.88637 9.25877 1.50298 9.35693 1.16129 9.54379V1.81374C1.17902 1.62542 1.2699 1.45145 1.41453 1.32895C1.55916 1.20644 1.7461 1.1451 1.93548 1.158H10.8387V9.25835Z" fill="#FF5757"/>
<path d="M3.48397 4.24411H8.51622C8.67022 4.24411 8.81791 4.18315 8.9268 4.07464C9.03569 3.96613 9.09687 3.81896 9.09687 3.66551C9.09687 3.51206 9.03569 3.36489 8.9268 3.25638C8.81791 3.14787 8.67022 3.08691 8.51622 3.08691H3.48397C3.32997 3.08691 3.18228 3.14787 3.07339 3.25638C2.9645 3.36489 2.90332 3.51206 2.90332 3.66551C2.90332 3.81896 2.9645 3.96613 3.07339 4.07464C3.18228 4.18315 3.32997 4.24411 3.48397 4.24411Z" fill="#FF5757"/>
<path d="M3.48397 6.9443H8.51622C8.67022 6.9443 8.81791 6.88334 8.9268 6.77483C9.03569 6.66633 9.09687 6.51916 9.09687 6.36571C9.09687 6.21225 9.03569 6.06508 8.9268 5.95658C8.81791 5.84807 8.67022 5.78711 8.51622 5.78711H3.48397C3.32997 5.78711 3.18228 5.84807 3.07339 5.95658C2.9645 6.06508 2.90332 6.21225 2.90332 6.36571C2.90332 6.51916 2.9645 6.66633 3.07339 6.77483C3.18228 6.88334 3.32997 6.9443 3.48397 6.9443Z" fill="#FF5757"/>
<path d="M15.6582 14H8.34181C8.28188 13.9998 8.22302 13.9843 8.17094 13.955C8.11886 13.9256 8.07533 13.8835 8.04458 13.8326C8.01535 13.7807 8 13.7223 8 13.6629C8 13.6035 8.01535 13.5451 8.04458 13.4932L11.7028 7.15786C11.7353 7.10932 11.7795 7.0695 11.8313 7.04196C11.8832 7.01441 11.9411 7 12 7C12.0589 7 12.1168 7.01441 12.1687 7.04196C12.2205 7.0695 12.2647 7.10932 12.2972 7.15786L15.9554 13.4932C15.9847 13.5451 16 13.6035 16 13.6629C16 13.7223 15.9847 13.7807 15.9554 13.8326C15.9247 13.8835 15.8811 13.9256 15.8291 13.955C15.777 13.9843 15.7181 13.9998 15.6582 14Z" fill="#FF5757"/>
<path d="M11.9999 11.5107C11.9093 11.5095 11.8228 11.4734 11.7587 11.41C11.6947 11.3466 11.6582 11.2609 11.657 11.1713V9.58744C11.657 9.49743 11.6931 9.4111 11.7574 9.34745C11.8217 9.2838 11.909 9.24805 11.9999 9.24805C12.0909 9.24805 12.1781 9.2838 12.2424 9.34745C12.3068 9.4111 12.3429 9.49743 12.3429 9.58744V11.1713C12.3417 11.2609 12.3052 11.3466 12.2411 11.41C12.1771 11.4734 12.0905 11.5095 11.9999 11.5107Z" fill="white"/>
<path d="M11.9999 12.8679C11.9093 12.8668 11.8228 12.8306 11.7587 12.7672C11.6947 12.7038 11.6582 12.6182 11.657 12.5285V12.3023C11.657 12.2123 11.6931 12.1259 11.7574 12.0623C11.8217 11.9986 11.909 11.9629 11.9999 11.9629C12.0909 11.9629 12.1781 11.9986 12.2424 12.0623C12.3068 12.1259 12.3429 12.2123 12.3429 12.3023V12.5285C12.3417 12.6182 12.3052 12.7038 12.2411 12.7672C12.1771 12.8306 12.0905 12.8668 11.9999 12.8679Z" fill="white"/>
</svg>
