<svg width="15" height="18" viewBox="0 0 15 18" fill="none" xmlns="http://www.w3.org/2000/svg">
<path d="M7.25 17.75C5.32799 17.7474 3.48546 16.9827 2.1264 15.6236C0.767332 14.2645 0.00264557 12.422 0 10.5C5.92805e-09 10.3011 0.0790175 10.1103 0.21967 9.96967C0.360322 9.82902 0.551088 9.75 0.75 9.75C0.948912 9.75 1.13968 9.82902 1.28033 9.96967C1.42098 10.1103 1.5 10.3011 1.5 10.5C1.5 11.6372 1.83723 12.7489 2.46905 13.6945C3.10087 14.6401 3.99889 15.3771 5.04957 15.8123C6.10025 16.2475 7.25638 16.3614 8.37177 16.1395C9.48716 15.9177 10.5117 15.37 11.3159 14.5659C12.12 13.7617 12.6677 12.7372 12.8895 11.6218C13.1114 10.5064 12.9975 9.35025 12.5623 8.29957C12.1271 7.24889 11.3901 6.35087 10.4445 5.71905C9.49895 5.08723 8.38724 4.75 7.25 4.75H4.75C4.55109 4.75 4.36032 4.67098 4.21967 4.53033C4.07902 4.38968 4 4.19891 4 4C4 3.80109 4.07902 3.61032 4.21967 3.46967C4.36032 3.32902 4.55109 3.25 4.75 3.25H7.25C9.17282 3.25 11.0169 4.01384 12.3765 5.37348C13.7362 6.73311 14.5 8.57718 14.5 10.5C14.5 12.4228 13.7362 14.2669 12.3765 15.6265C11.0169 16.9862 9.17282 17.75 7.25 17.75Z" fill="#304CD9"/>
<path d="M7.25007 7.74918C7.15153 7.74964 7.05389 7.73042 6.96288 7.69264C6.87187 7.65486 6.78932 7.59929 6.72007 7.52918L3.72007 4.52918C3.57962 4.38855 3.50073 4.19793 3.50073 3.99918C3.50073 3.80043 3.57962 3.6098 3.72007 3.46918L6.72007 0.469177C6.78873 0.39549 6.87154 0.336388 6.96353 0.295396C7.05553 0.254404 7.15485 0.232362 7.25555 0.230585C7.35625 0.228809 7.45628 0.247333 7.54967 0.285054C7.64306 0.322775 7.72789 0.37892 7.79911 0.450139C7.87033 0.521357 7.92647 0.606191 7.9642 0.69958C8.00192 0.792968 8.02044 0.892997 8.01866 0.9937C8.01689 1.0944 7.99485 1.19372 7.95385 1.28572C7.91286 1.37771 7.85376 1.46052 7.78007 1.52918L5.31007 3.99918L7.78007 6.46918C7.92052 6.6098 7.99941 6.80043 7.99941 6.99918C7.99941 7.19793 7.92052 7.38855 7.78007 7.52918C7.71083 7.59929 7.62828 7.65486 7.53727 7.69264C7.44625 7.73042 7.34861 7.74964 7.25007 7.74918Z" fill="#304CD9"/>
</svg>


