<svg width="16" height="16" viewBox="0 0 16 16" fill="none" xmlns="http://www.w3.org/2000/svg">
<path d="M12.5418 16C12.4349 15.9998 12.3298 15.9715 12.2361 15.9175L8 13.5808L3.76392 15.9175C3.65628 15.9782 3.53462 16.006 3.41269 15.9979C3.29076 15.9898 3.17342 15.9461 3.07392 15.8717C2.97458 15.7953 2.89746 15.6914 2.85119 15.5717C2.80491 15.4519 2.79131 15.321 2.81189 15.1936L3.63291 10.2453L0.191639 6.74489C0.105392 6.65432 0.0449746 6.54027 0.0171969 6.4156C-0.0105809 6.29093 -0.00461437 6.1606 0.0344236 6.0393C0.0709909 5.91755 0.139572 5.8091 0.232279 5.72643C0.324985 5.64376 0.438052 5.59022 0.558475 5.57197L5.2924 4.84805L7.41481 0.348785C7.47522 0.242464 7.5609 0.154424 7.66349 0.0932835C7.76607 0.0321435 7.88202 0 8 0C8.11798 0 8.23393 0.0321435 8.33651 0.0932835C8.43909 0.154424 8.52478 0.242464 8.58519 0.348785L10.7076 4.84805L15.4415 5.57197C15.5619 5.59022 15.675 5.64376 15.7677 5.72643C15.8604 5.8091 15.929 5.91755 15.9656 6.0393C16.0046 6.1606 16.0106 6.29093 15.9828 6.4156C15.955 6.54027 15.8946 6.65432 15.8084 6.74489L12.3671 10.2453L13.1794 15.1936C13.2 15.321 13.1864 15.4519 13.1401 15.5717C13.0938 15.6914 13.0167 15.7953 12.9173 15.8717C12.8067 15.952 12.6762 15.9965 12.5418 16ZM8 12.1239C8.10571 12.1252 8.20994 12.1502 8.3057 12.1972L11.6684 14.0299L11.0308 10.0987C11.0135 9.98847 11.021 9.87549 11.0529 9.76887C11.0848 9.66224 11.14 9.56494 11.2142 9.48477L13.9392 6.73573L10.1748 6.14927C10.0707 6.13189 9.97204 6.08874 9.88699 6.02341C9.80194 5.95808 9.73293 5.87243 9.6857 5.77356L8 2.19981L6.3143 5.78273C6.26707 5.8816 6.19806 5.96724 6.11301 6.03258C6.02795 6.09791 5.92929 6.14105 5.82519 6.15843L2.06075 6.73573L4.78582 9.48477C4.86001 9.56494 4.91524 9.66224 4.9471 9.76887C4.97895 9.87549 4.98653 9.98847 4.96924 10.0987L4.33164 14.0573L7.6943 12.2246C7.78799 12.1681 7.89232 12.1337 8 12.1239Z" fill="#FF5757"/>
<path d="M10.4387 10.3524H5.56112C5.52117 10.3522 5.48193 10.3418 5.44721 10.3221C5.41249 10.3024 5.38347 10.274 5.36297 10.2398C5.34348 10.2049 5.33325 10.1657 5.33325 10.1257C5.33325 10.0858 5.34348 10.0465 5.36297 10.0116L7.80177 5.75261C7.82346 5.71998 7.8529 5.69321 7.88748 5.67469C7.92205 5.65617 7.96068 5.64648 7.99992 5.64648C8.03916 5.64648 8.07779 5.65617 8.11236 5.67469C8.14694 5.69321 8.17638 5.71998 8.19807 5.75261L10.6369 10.0116C10.6564 10.0465 10.6666 10.0858 10.6666 10.1257C10.6666 10.1657 10.6564 10.2049 10.6369 10.2398C10.6164 10.274 10.5873 10.3024 10.5526 10.3221C10.5179 10.3418 10.4787 10.3522 10.4387 10.3524Z" fill="#FF5757"/>
<path d="M7.99988 8.67929C7.93948 8.6785 7.88179 8.65421 7.83908 8.61159C7.79637 8.56897 7.77203 8.51139 7.77124 8.45112V7.38637C7.77124 7.32585 7.79533 7.26782 7.83821 7.22503C7.88108 7.18224 7.93924 7.1582 7.99988 7.1582C8.06052 7.1582 8.11867 7.18224 8.16155 7.22503C8.20443 7.26782 8.22851 7.32585 8.22851 7.38637V8.45112C8.22772 8.51139 8.20338 8.56897 8.16068 8.61159C8.11797 8.65421 8.06027 8.6785 7.99988 8.67929Z" fill="white"/>
<path d="M7.99988 9.59183C7.93948 9.59104 7.88179 9.56675 7.83908 9.52413C7.79637 9.48151 7.77203 9.42394 7.77124 9.36367V9.21156C7.77124 9.15105 7.79533 9.09301 7.83821 9.05023C7.88108 9.00744 7.93924 8.9834 7.99988 8.9834C8.06052 8.9834 8.11867 9.00744 8.16155 9.05023C8.20443 9.09301 8.22851 9.15105 8.22851 9.21156V9.36367C8.22772 9.42394 8.20338 9.48151 8.16068 9.52413C8.11797 9.56675 8.06027 9.59104 7.99988 9.59183Z" fill="white"/>
</svg>
