<svg width="20" height="20" viewBox="0 0 19 22" fill="none" xmlns="http://www.w3.org/2000/svg">
<path d="M15.629 22H3.37097C2.47693 22 1.61951 21.6358 0.987333 20.9874C0.355154 20.3391 0 19.4597 0 18.5429V3.45714C0 2.54025 0.355154 1.66091 0.987333 1.01257C1.61951 0.364233 2.47693 0 3.37097 0H12.5645C12.8083 0.000220065 13.0419 0.0997009 13.2142 0.276571L18.7303 5.97143C18.9028 6.14808 18.9998 6.38774 19 6.63771V18.5429C19 19.4597 18.6448 20.3391 18.0127 20.9874C17.3805 21.6358 16.5231 22 15.629 22ZM3.37097 1.88571C2.96459 1.88571 2.57485 2.05128 2.2875 2.34598C2.00014 2.64068 1.83871 3.04037 1.83871 3.45714V18.5429C1.83871 18.9596 2.00014 19.3593 2.2875 19.654C2.57485 19.9487 2.96459 20.1143 3.37097 20.1143H15.629C16.0354 20.1143 16.4251 19.9487 16.7125 19.654C16.9999 19.3593 17.1613 18.9596 17.1613 18.5429V6.98972L12.1845 1.88571H3.37097Z" fill="#1EA97C"/>
<path d="M10.0762 6.91479H5.24657C5.03891 6.91314 4.8336 6.86957 4.64236 6.78654C4.45112 6.70352 4.27771 6.58268 4.13201 6.43092C3.98631 6.27916 3.87118 6.09946 3.7932 5.90207C3.71522 5.70468 3.67592 5.49347 3.67754 5.2805V0.943359H5.51625V5.02907H9.80657V0.943359H11.6453V5.2805C11.6469 5.49347 11.6076 5.70468 11.5296 5.90207C11.4516 6.09946 11.3365 6.27916 11.1908 6.43092C11.0451 6.58268 10.8717 6.70352 10.6805 6.78654C10.4892 6.86957 10.2839 6.91314 10.0762 6.91479Z" fill="#1EA97C"/>
<path d="M15.6452 20.8038H13.8064V10.8857H5.83871V20.797H4V10.5714C4 10.1547 4.16143 9.75496 4.44879 9.46026C4.73614 9.16556 5.12588 9 5.53226 9H14.1129C14.5193 9 14.909 9.16556 15.1964 9.46026C15.4837 9.75496 15.6452 10.1547 15.6452 10.5714V20.8038Z" fill="#1EA97C"/>
</svg>



