<svg width="20" height="20" viewBox="0 0 17 17" fill="none" xmlns="http://www.w3.org/2000/svg">
<path d="M12.75 14.6986H8.5C8.35911 14.6986 8.22398 14.6426 8.12435 14.543C8.02472 14.4433 7.96875 14.3082 7.96875 14.1673C7.96875 14.0264 8.02472 13.8913 8.12435 13.7917C8.22398 13.692 8.35911 13.6361 8.5 13.6361H12.75C12.9848 13.6361 13.21 13.5428 13.3761 13.3767C13.5421 13.2107 13.6354 12.9855 13.6354 12.7507V4.25065C13.6354 4.01582 13.5421 3.79061 13.3761 3.62457C13.21 3.45852 12.9848 3.36523 12.75 3.36523H4.25C4.01518 3.36523 3.78997 3.45852 3.62392 3.62457C3.45787 3.79061 3.36459 4.01582 3.36459 4.25065V8.50065C3.36459 8.64155 3.30862 8.77667 3.20899 8.8763C3.10936 8.97593 2.97423 9.0319 2.83334 9.0319C2.69244 9.0319 2.55731 8.97593 2.45769 8.8763C2.35806 8.77667 2.30209 8.64155 2.30209 8.50065V4.25065C2.30209 3.73403 2.50731 3.23857 2.87262 2.87327C3.23792 2.50796 3.73338 2.30273 4.25 2.30273H12.75C13.2666 2.30273 13.7621 2.50796 14.1274 2.87327C14.4927 3.23857 14.6979 3.73403 14.6979 4.25065V12.7507C14.6979 13.2673 14.4927 13.7627 14.1274 14.128C13.7621 14.4933 13.2666 14.6986 12.75 14.6986Z" fill="#304CD9"/>
<path d="M5.66667 14.6979H3.54167C3.21348 14.6961 2.89927 14.5649 2.66721 14.3328C2.43514 14.1007 2.30395 13.7865 2.30209 13.4583V11.3333C2.30395 11.0051 2.43514 10.6909 2.66721 10.4589C2.89927 10.2268 3.21348 10.0956 3.54167 10.0938H5.66667C5.99485 10.0956 6.30907 10.2268 6.54113 10.4589C6.7732 10.6909 6.90439 11.0051 6.90625 11.3333V13.4583C6.90439 13.7865 6.7732 14.1007 6.54113 14.3328C6.30907 14.5649 5.99485 14.6961 5.66667 14.6979V14.6979ZM3.54167 11.1562C3.4947 11.1562 3.44966 11.1749 3.41645 11.2081C3.38324 11.2413 3.36459 11.2864 3.36459 11.3333V13.4583C3.36459 13.5053 3.38324 13.5503 3.41645 13.5836C3.44966 13.6168 3.4947 13.6354 3.54167 13.6354H5.66667C5.71363 13.6354 5.75868 13.6168 5.79189 13.5836C5.8251 13.5503 5.84375 13.5053 5.84375 13.4583V11.3333C5.84375 11.2864 5.8251 11.2413 5.79189 11.2081C5.75868 11.1749 5.71363 11.1562 5.66667 11.1562H3.54167Z" fill="#304CD9"/>
<path d="M11.7446 11.3333H8.08871C7.82207 11.3333 7.56635 11.2161 7.3778 11.0073C7.18926 10.7986 7.08334 10.5154 7.08334 10.2202V5.3631C7.08334 5.06788 7.18926 4.78476 7.3778 4.57602C7.56635 4.36727 7.82207 4.25 8.08871 4.25H10.8306C10.9033 4.25007 10.973 4.2821 11.0244 4.33905L12.6696 6.17262C12.721 6.2295 12.7499 6.30666 12.75 6.38714V10.2202C12.75 10.5154 12.6441 10.7986 12.4555 11.0073C12.267 11.2161 12.0113 11.3333 11.7446 11.3333ZM8.08871 4.85714C7.96751 4.85714 7.85127 4.91045 7.76557 5.00533C7.67987 5.10022 7.63172 5.22891 7.63172 5.3631V10.2202C7.63172 10.3544 7.67987 10.4831 7.76557 10.578C7.85127 10.6729 7.96751 10.7262 8.08871 10.7262H11.7446C11.8658 10.7262 11.9821 10.6729 12.0678 10.578C12.1535 10.4831 12.2016 10.3544 12.2016 10.2202V6.50048L10.7173 4.85714H8.08871Z" fill="#304CD9"/>
<path d="M11.6532 11.0295H11.1048V8.49972H8.7285V11.0295H8.18011V8.39853C8.18011 8.26434 8.22826 8.13565 8.31396 8.04077C8.39967 7.94588 8.5159 7.89258 8.6371 7.89258H11.1962C11.3174 7.89258 11.4337 7.94588 11.5194 8.04077C11.6051 8.13565 11.6532 8.26434 11.6532 8.39853V11.0295Z" fill="#304CD9"/>
<path d="M10.0885 6.47731H8.64806C8.58613 6.47678 8.5249 6.46275 8.46786 6.43602C8.41082 6.40929 8.3591 6.37038 8.31565 6.32152C8.27219 6.27266 8.23786 6.2148 8.2146 6.15124C8.19135 6.08769 8.17962 6.01969 8.18011 5.95112V4.55469H8.72849V5.87016H10.0081V4.55469H10.5565V5.95112C10.5569 6.01969 10.5452 6.08769 10.522 6.15124C10.4987 6.2148 10.4644 6.27266 10.4209 6.32152C10.3775 6.37038 10.3257 6.40929 10.2687 6.43602C10.2117 6.46275 10.1504 6.47678 10.0885 6.47731Z" fill="#304CD9"/>
</svg>
