<svg width="23" height="23" viewBox="0 0 23 23" fill="none" xmlns="http://www.w3.org/2000/svg">
<path d="M15.3021 15.8858C15.1664 15.7653 15.0812 15.598 15.0636 15.4175C14.867 13.6459 14.0238 12.0092 12.6955 10.8206C11.3672 9.63206 9.64717 8.97527 7.86475 8.97602C7.76614 8.97601 7.6685 8.95655 7.57741 8.91876C7.48632 8.88097 7.40358 8.82558 7.33393 8.75578C7.26427 8.68597 7.20907 8.60311 7.17147 8.51195C7.13387 8.42078 7.11463 8.32309 7.11483 8.22448C7.1192 8.026 7.20106 7.83712 7.3429 7.69822C7.48474 7.55932 7.6753 7.48143 7.87382 7.48122C10.0231 7.47501 12.0986 8.26459 13.7002 9.69775C15.3019 11.1309 16.3164 13.1062 16.5482 15.243C16.57 15.4403 16.5137 15.6383 16.3913 15.7946C16.269 15.951 16.0903 16.0533 15.8935 16.0796C15.787 16.089 15.6796 16.0767 15.5779 16.0434C15.4762 16.0101 15.3824 15.9565 15.3021 15.8858Z" fill="#304CD9"/>
<path d="M19.1373 15.5733C18.9971 15.4466 18.9092 15.2722 18.8906 15.0842C18.669 12.3002 17.3844 9.70827 15.3032 7.84598C13.2219 5.98369 10.5037 4.99392 7.71228 5.08194C7.60642 5.09703 7.49854 5.08931 7.39591 5.0593C7.29327 5.02928 7.19823 4.97766 7.11718 4.9079C7.03613 4.83814 6.97093 4.75186 6.92596 4.65484C6.88099 4.55781 6.85729 4.4523 6.85645 4.34536C6.8556 4.23843 6.87764 4.13255 6.92107 4.03483C6.96451 3.93711 7.02833 3.84981 7.10828 3.77878C7.18822 3.70775 7.28243 3.65464 7.38458 3.62301C7.48673 3.59138 7.59447 3.58196 7.70056 3.59538C10.8615 3.50561 13.9367 4.63081 16.2933 6.73945C18.6499 8.84809 20.1086 11.7798 20.3693 14.9313C20.3833 15.0797 20.3527 15.229 20.2814 15.3599C20.2102 15.4909 20.1015 15.5977 19.9692 15.6666C19.837 15.7355 19.6872 15.7634 19.539 15.7468C19.3909 15.7302 19.251 15.6698 19.1373 15.5733Z" fill="#304CD9"/>
<path d="M7.46221 12.6952C7.37544 12.6176 7.30794 12.5208 7.26505 12.4126C7.22217 12.3043 7.20507 12.1876 7.21512 12.0716C7.22232 11.973 7.2492 11.8768 7.29418 11.7887C7.33916 11.7007 7.40134 11.6226 7.47702 11.5589C7.55271 11.4953 7.64038 11.4475 7.73485 11.4184C7.82932 11.3892 7.92869 11.3792 8.02706 11.3891C9.13537 11.4744 10.1848 11.9222 11.0131 12.6634C11.8415 13.4046 12.4028 14.398 12.6102 15.49C12.6295 15.5866 12.6296 15.6861 12.6105 15.7827C12.5914 15.8793 12.5534 15.9712 12.4988 16.0531C12.4441 16.1351 12.3739 16.2055 12.2921 16.2603C12.2102 16.3151 12.1184 16.3532 12.0218 16.3725C11.827 16.4088 11.6258 16.3677 11.4609 16.2578C11.2961 16.1479 11.1807 15.9779 11.1393 15.7842C10.9909 15.0125 10.5934 14.3109 10.0078 13.7869C9.42222 13.263 8.6809 12.9456 7.89758 12.8835C7.73643 12.8675 7.58427 12.8017 7.46221 12.6952Z" fill="#304CD9"/>
<path d="M7.34089 16.7595C7.19265 16.6269 7.10318 16.4408 7.09215 16.2422C7.08113 16.0436 7.14945 15.8488 7.28208 15.7005C7.41472 15.5523 7.60081 15.4628 7.79942 15.4518C7.99803 15.4408 8.19288 15.5091 8.34111 15.6417C8.48935 15.7744 8.57882 15.9604 8.58985 16.159C8.60087 16.3577 8.53255 16.5525 8.39992 16.7007C8.26728 16.849 8.08119 16.9384 7.88258 16.9495C7.68397 16.9605 7.48912 16.8922 7.34089 16.7595Z" fill="#304CD9"/>
</svg>
