<svg width="14" height="14" viewBox="0 0 14 14" fill="none" xmlns="http://www.w3.org/2000/svg">
<path d="M2.04161 5.79873C2.03709 4.70397 2.35731 3.63244 2.96176 2.71967C3.56622 1.80689 4.42778 1.09386 5.43748 0.670733C6.44717 0.247607 7.55967 0.133394 8.63428 0.342537C9.70889 0.55168 10.6974 1.07479 11.4747 1.8457C12.252 2.61662 12.7832 3.60073 13.0012 4.67357C13.2193 5.74642 13.1142 6.85982 12.6995 7.87298C12.2847 8.88614 11.5788 9.75356 10.6711 10.3655C9.7633 10.9775 8.69447 11.3066 7.5997 11.3111C6.8728 11.3141 6.15244 11.1739 5.47972 10.8985C4.80701 10.6231 4.19512 10.2179 3.67901 9.70603C3.16289 9.19416 2.75265 8.58564 2.47171 7.91523C2.19076 7.24481 2.04461 6.52563 2.04161 5.79873ZM12.0021 5.75759C11.9985 4.88527 11.7363 4.0336 11.2486 3.31029C10.761 2.58699 10.0698 2.02452 9.26255 1.69403C8.45525 1.36353 7.56808 1.27985 6.71322 1.45357C5.85836 1.62728 5.07421 2.05059 4.45994 2.66997C3.84566 3.28934 3.42884 4.07696 3.26219 4.93322C3.09555 5.78948 3.18655 6.67593 3.5237 7.48048C3.86086 8.28502 4.42901 8.97152 5.15632 9.45316C5.88363 9.9348 6.73744 10.1899 7.60976 10.1863C8.77951 10.1815 9.89942 9.7122 10.7231 8.88165C11.5469 8.05109 12.0069 6.92733 12.0021 5.75759Z" fill="#304CD9"/>
<path d="M6.62092 9.01717C6.48802 8.92463 6.38722 8.79301 6.33251 8.64059C6.26771 8.45252 6.28027 8.24642 6.36743 8.06762C6.45459 7.88882 6.60921 7.75197 6.79727 7.68717C7.54359 7.43582 8.1869 6.94668 8.62862 6.29471C9.07033 5.64274 9.28608 4.86392 9.24279 4.0776C9.23324 3.87892 9.30301 3.68458 9.43675 3.53733C9.57048 3.39009 9.75723 3.30201 9.95592 3.29246C10.1546 3.28291 10.3489 3.35267 10.4962 3.48641C10.6434 3.62015 10.7315 3.8069 10.7411 4.00558C10.805 5.11706 10.5012 6.21867 9.87679 7.14036C9.25234 8.06205 8.34186 8.75258 7.28592 9.10535C7.1756 9.14177 7.05848 9.15276 6.94331 9.13749C6.82815 9.12222 6.71793 9.08108 6.62092 9.01717Z" fill="#304CD9"/>
<path d="M0.26865 12.5915C0.268008 12.5191 0.281841 12.4472 0.309335 12.3802C0.336829 12.3132 0.377431 12.2523 0.42876 12.2012L3.45214 9.15277C3.55625 9.05496 3.69426 9.00137 3.8371 9.0033C3.97994 9.00523 4.11645 9.06253 4.21788 9.16312C4.31931 9.26371 4.37773 9.39975 4.38084 9.54257C4.38395 9.68539 4.33151 9.82384 4.23455 9.92875L1.21117 12.9772C1.10823 13.0809 0.968342 13.1395 0.822242 13.1401C0.676143 13.1407 0.535777 13.0832 0.431978 12.9804C0.380229 12.9297 0.339126 12.8692 0.311079 12.8024C0.283032 12.7357 0.268607 12.6639 0.26865 12.5915Z" fill="#304CD9"/>
</svg>
