<svg width="20" height="16" viewBox="0 0 20 16" fill="none" xmlns="http://www.w3.org/2000/svg">
<path d="M10.75 15.5056C10.5804 15.5027 10.4161 15.4468 10.28 15.3456L5.49 11.5056H0.75C0.551893 11.503 0.362629 11.4231 0.222534 11.283C0.0824392 11.1429 0.00258996 10.9537 0 10.7556V4.75555C0.00258996 4.55744 0.0824392 4.36818 0.222534 4.22809C0.362629 4.08799 0.551893 4.00814 0.75 4.00555H5.49L10.28 0.165551C10.3906 0.0766171 10.5241 0.0208821 10.6651 0.00481999C10.8061 -0.0112421 10.9488 0.013028 11.0765 0.0748111C11.2043 0.136594 11.3119 0.233355 11.3869 0.353854C11.4618 0.474353 11.501 0.613645 11.5 0.755551V14.7556C11.4991 14.8978 11.4584 15.0369 11.3824 15.1571C11.3063 15.2773 11.1981 15.3738 11.07 15.4356C10.9702 15.4835 10.8607 15.5075 10.75 15.5056ZM1.5 10.0056H5.75C5.91991 10.0063 6.08494 10.0624 6.22 10.1656L10 13.1656V2.31555L6.22 5.31555C6.08886 5.42945 5.92345 5.49632 5.75 5.50555H1.5V10.0056Z" fill="#304CD9"/>
<path d="M16.21 13.8255C16.0306 13.8253 15.857 13.7615 15.72 13.6455C15.6445 13.5814 15.5827 13.5027 15.5381 13.4142C15.4936 13.3257 15.4673 13.2292 15.4607 13.1303C15.4542 13.0315 15.4676 12.9323 15.5001 12.8387C15.5326 12.7452 15.5836 12.6591 15.65 12.5855C16.8391 11.2577 17.4966 9.53796 17.4966 7.75554C17.4966 5.97312 16.8391 4.25334 15.65 2.92554C15.5844 2.852 15.5338 2.76624 15.5013 2.67317C15.4688 2.5801 15.4549 2.48154 15.4605 2.38311C15.4661 2.28468 15.491 2.18831 15.5338 2.09951C15.5766 2.0107 15.6365 1.9312 15.71 1.86554C15.7836 1.79988 15.8693 1.74934 15.9624 1.71682C16.0554 1.6843 16.154 1.67043 16.2524 1.676C16.3509 1.68158 16.4472 1.70648 16.536 1.7493C16.6249 1.79211 16.7044 1.852 16.77 1.92554C18.2078 3.52307 19.0034 5.59627 19.0034 7.74554C19.0034 9.8948 18.2078 11.968 16.77 13.5655C16.7018 13.6477 16.6162 13.7136 16.5193 13.7586C16.4224 13.8036 16.3168 13.8264 16.21 13.8255Z" fill="#304CD9"/>
<path d="M13.86 11.136C13.6981 11.1339 13.5408 11.0815 13.41 10.986C13.2509 10.8666 13.1457 10.689 13.1175 10.492C13.0894 10.2951 13.1406 10.0951 13.26 9.93598C13.7369 9.30928 13.9951 8.54349 13.9951 7.75598C13.9951 6.96847 13.7369 6.20268 13.26 5.57598C13.1406 5.41685 13.0894 5.21683 13.1175 5.01991C13.1457 4.823 13.2509 4.64533 13.41 4.52598C13.5691 4.40663 13.7691 4.35539 13.9661 4.38352C14.163 4.41165 14.3406 4.51685 14.46 4.67598C15.1363 5.56031 15.5028 6.64267 15.5028 7.75598C15.5028 8.86929 15.1363 9.95165 14.46 10.836C14.3891 10.928 14.2983 11.0028 14.1944 11.0548C14.0905 11.1067 13.9762 11.1345 13.86 11.136Z" fill="#304CD9"/>
</svg>
