<svg width="18" height="18" viewBox="0 0 18 18" fill="none" xmlns="http://www.w3.org/2000/svg">
<path d="M7.77024 15.3002C6.28094 15.3002 4.8251 14.8586 3.58679 14.0312C2.34849 13.2038 1.38335 12.0278 0.813425 10.6518C0.243497 9.27592 0.0943779 7.76188 0.384925 6.30121C0.675471 4.84053 1.39263 3.49881 2.44572 2.44572C3.49881 1.39263 4.84053 0.675471 6.30121 0.384925C7.76188 0.0943779 9.27592 0.243497 10.6518 0.813425C12.0278 1.38335 13.2038 2.34849 14.0312 3.58679C14.8586 4.8251 15.3002 6.28094 15.3002 7.77024C15.3002 8.75909 15.1055 9.73826 14.727 10.6518C14.3486 11.5654 13.794 12.3955 13.0948 13.0948C12.3955 13.794 11.5654 14.3486 10.6518 14.727C9.73826 15.1055 8.75909 15.3002 7.77024 15.3002ZM7.77024 1.75024C6.58355 1.75024 5.42351 2.10213 4.43682 2.76142C3.45012 3.42071 2.68109 4.35778 2.22696 5.45414C1.77283 6.55049 1.65401 7.75689 1.88553 8.92078C2.11704 10.0847 2.68848 11.1538 3.5276 11.9929C4.36671 12.832 5.43581 13.4034 6.5997 13.6349C7.76358 13.8665 8.96998 13.7476 10.0663 13.2935C11.1627 12.8394 12.0998 12.0704 12.7591 11.0837C13.4183 10.097 13.7702 8.93693 13.7702 7.75024C13.7702 6.15894 13.1381 4.63282 12.0129 3.5076C10.8877 2.38238 9.36154 1.75024 7.77024 1.75024Z" fill="#304CD9"/>
<path d="M17.0005 17.75C16.9019 17.7504 16.8043 17.7312 16.7133 17.6934C16.6222 17.6557 16.5397 17.6001 16.4705 17.53L12.3405 13.4C12.208 13.2578 12.1358 13.0697 12.1393 12.8754C12.1427 12.6811 12.2214 12.4958 12.3588 12.3583C12.4962 12.2209 12.6816 12.1422 12.8759 12.1388C13.0702 12.1354 13.2583 12.2075 13.4005 12.34L17.5305 16.47C17.6709 16.6106 17.7498 16.8012 17.7498 17C17.7498 17.1987 17.6709 17.3893 17.5305 17.53C17.4612 17.6001 17.3787 17.6557 17.2876 17.6934C17.1966 17.7312 17.099 17.7504 17.0005 17.75Z" fill="#304CD9"/>
<path d="M10.6613 4.00048H5.12903C4.8387 3.99186 4.55684 4.10007 4.34521 4.30141C4.13357 4.50275 4.00944 4.7808 4 5.07461V10.7424C4.01178 11.0871 4.15818 11.413 4.40709 11.6487C4.656 11.8843 4.98709 12.0104 5.32774 11.9993H10.6613C10.7508 11.9981 10.8362 11.9616 10.8995 11.8976C10.9628 11.8336 10.9988 11.7471 11 11.6565V4.34329C10.9988 4.25274 10.9628 4.16623 10.8995 4.10219C10.8362 4.03816 10.7508 4.00166 10.6613 4.00048ZM10.3226 11.3137H5.32774C5.16669 11.325 5.00778 11.2712 4.88587 11.1641C4.76395 11.057 4.68899 10.9053 4.67742 10.7424C4.68899 10.5794 4.76395 10.4277 4.88587 10.3206C5.00778 10.2135 5.16669 10.1597 5.32774 10.171H10.3226V11.3137ZM10.3226 9.4854H5.32774C5.10038 9.48565 4.87674 9.54381 4.67742 9.65452V5.07461C4.68776 4.96303 4.74077 4.85996 4.82514 4.78738C4.90951 4.7148 5.01856 4.67845 5.12903 4.68609H10.3226V9.4854Z" fill="#304CD9"/>
<path d="M6.03158 6.51569H8.96706C9.0569 6.51569 9.14305 6.47958 9.20657 6.41529C9.27009 6.351 9.30577 6.2638 9.30577 6.17289C9.30577 6.08197 9.27009 5.99477 9.20657 5.93048C9.14305 5.8662 9.0569 5.83008 8.96706 5.83008H6.03158C5.94175 5.83008 5.8556 5.8662 5.79208 5.93048C5.72856 5.99477 5.69287 6.08197 5.69287 6.17289C5.69287 6.2638 5.72856 6.351 5.79208 6.41529C5.8556 6.47958 5.94175 6.51569 6.03158 6.51569Z" fill="#304CD9"/>
<path d="M6.03158 8.1153H8.96706C9.0569 8.1153 9.14305 8.07919 9.20657 8.0149C9.27009 7.95061 9.30577 7.86341 9.30577 7.7725C9.30577 7.68158 9.27009 7.59438 9.20657 7.53009C9.14305 7.4658 9.0569 7.42969 8.96706 7.42969H6.03158C5.94175 7.42969 5.8556 7.4658 5.79208 7.53009C5.72856 7.59438 5.69287 7.68158 5.69287 7.7725C5.69287 7.86341 5.72856 7.95061 5.79208 8.0149C5.8556 8.07919 5.94175 8.1153 6.03158 8.1153Z" fill="#304CD9"/>
</svg>
