<svg width="52" height="53" viewBox="0 0 52 53" fill="none" xmlns="http://www.w3.org/2000/svg">
<path d="M25.9997 4.47125H26.0003C31.9525 4.47125 37.3563 6.94561 41.2712 10.9361C45.1866 14.9266 47.614 20.4334 47.614 26.4999V26.5015C47.614 32.5679 45.1866 38.0756 41.2712 42.0658C37.3557 46.056 31.953 48.5301 26.0011 48.5304H25.9997C20.0475 48.5301 14.644 46.0561 10.7285 42.0656C6.8136 38.0751 4.38646 32.5682 4.38593 26.5018V26.5001C4.3862 20.4334 6.8136 14.9257 10.7291 10.9353C14.644 6.94506 20.0472 4.47098 25.9992 4.4707H25.9997V4.47125ZM26.0003 4.99945H25.9986C20.1899 4.99972 14.9162 7.41441 11.0949 11.3092C7.27329 15.2043 4.90389 20.5797 4.90389 26.5007V26.5023C4.90416 32.4228 7.27329 37.7979 11.0946 41.6925C14.9162 45.5875 20.1899 48.0025 25.9994 48.0025H26.0008C31.8095 48.0022 37.0833 45.5875 40.9048 41.693C44.7259 37.7979 47.0953 32.4228 47.0958 26.5018V26.5001C47.0953 20.5795 44.7264 15.2043 40.9048 11.3095C37.0835 7.41441 31.8098 4.99972 26.0003 4.99945Z" fill="black"/>
<path fill-rule="evenodd" clip-rule="evenodd" d="M9.84584 13.4725L10.1261 13.1434L10.8089 13.1186L10.7347 12.4293L11.0131 12.1027L11.4148 13.1415L10.912 13.7315L9.84584 13.4725ZM17.7747 13.4065L15.9931 9.68083L16.9786 9.19085L17.7876 10.8827L18.134 8.61591L19.294 8.03877L18.8133 10.5272L21.1929 11.7059L19.9507 12.324L17.9606 11.244L18.7602 12.9163L17.7747 13.4065ZM25.5997 10.1441C25.9067 10.1441 26.1605 10.0292 26.3612 9.79906C26.5619 9.5681 26.6626 9.27719 26.6626 8.92662C26.6626 8.57962 26.5609 8.28954 26.3574 8.05665C26.1538 7.82486 25.9007 7.70882 25.5994 7.70882C25.2924 7.70882 25.0383 7.82486 24.8376 8.05582C24.6366 8.28651 24.5362 8.57742 24.5362 8.92662C24.5362 9.28131 24.6347 9.57305 24.8327 9.80126C25.031 10.03 25.2867 10.1441 25.5997 10.1441ZM27.77 8.92634C27.7719 9.21381 27.717 9.49873 27.6086 9.76414C27.5 10.0271 27.3406 10.2651 27.1398 10.4639C26.9348 10.666 26.6937 10.8261 26.4295 10.9355C26.1629 11.0455 25.8864 11.101 25.5994 11.101C25.3136 11.1019 25.0304 11.0457 24.7658 10.9355C24.5037 10.8272 24.2653 10.6669 24.0644 10.4639C23.8603 10.2651 23.6982 10.026 23.588 9.76112C23.4801 9.49936 23.4261 9.2211 23.4261 8.92634C23.4261 8.62966 23.4801 8.35113 23.588 8.08937C23.697 7.82843 23.8553 7.59444 24.0644 7.38905C24.2651 7.18586 24.5036 7.02546 24.7658 6.91722C25.0304 6.8071 25.3136 6.75095 25.5994 6.75197C25.888 6.75197 26.1659 6.80696 26.4333 6.91722C26.697 7.02544 26.9371 7.1858 27.1398 7.38905C27.3412 7.58869 27.5008 7.82781 27.6091 8.09201C27.7174 8.35621 27.7721 8.64002 27.77 8.92634ZM32.11 11.2091L32.2808 11.2833C32.6812 11.4565 33.0089 11.5 33.263 11.4114C33.5164 11.324 33.7187 11.0974 33.8711 10.7317C34.0227 10.3671 34.043 10.0597 33.9291 9.81006C33.8158 9.5604 33.5587 9.34785 33.1584 9.17463L32.9876 9.10039L32.11 11.2091ZM30.7455 11.627L32.3331 7.81166L33.112 8.14903C33.6925 8.40035 34.0926 8.60629 34.31 8.76632C34.5167 8.91459 34.693 9.1025 34.8291 9.31953C34.9931 9.58416 35.0861 9.88803 35.0988 10.2008C35.1121 10.5173 35.0481 10.8445 34.9081 11.1807C34.7678 11.5181 34.5814 11.7922 34.3491 12.0023C34.1201 12.2106 33.8411 12.3534 33.5404 12.4164C33.2989 12.4666 33.0503 12.469 32.8079 12.4235C32.553 12.3776 32.1826 12.2495 31.6962 12.0386L31.5238 11.9644L30.7455 11.627ZM36.1499 14.4926L40.1643 12.924L41.0565 14.0087L38.8462 17.7701L38.1381 16.9095L38.5632 16.2713L37.5516 15.042L36.8583 15.3538L36.1499 14.4926ZM38.3107 14.7098L39.0194 15.5707L39.7802 14.3681C39.8028 14.3318 39.8414 14.2748 39.8973 14.1979L40.1096 13.9012C40.0173 13.9487 39.9299 13.9922 39.8447 14.0334C39.7608 14.0752 39.6798 14.1132 39.6002 14.1495L38.3107 14.7098ZM12.8843 16.3659C13.1333 16.364 13.3461 16.3324 13.5204 16.2708C13.6955 16.2097 13.8349 16.1182 13.9393 15.9958C14.0362 15.882 14.0864 15.761 14.0885 15.6351C14.0914 15.576 14.0807 15.517 14.0574 15.4628C14.0341 15.4086 13.9988 15.3606 13.9542 15.3227C13.8522 15.232 13.7467 15.1938 13.6377 15.2083C13.5285 15.2229 13.3488 15.3158 13.0998 15.4871C12.7583 15.7217 12.4677 15.8446 12.2298 15.857C11.9919 15.8685 11.7599 15.7739 11.5338 15.5735C11.2408 15.3136 11.0862 15.0013 11.0719 14.6364C11.0568 14.2724 11.1861 13.9311 11.458 13.6122C11.5985 13.4452 11.7623 13.3001 11.9441 13.1816C12.1238 13.0667 12.3197 12.9805 12.5249 12.9259L12.8986 13.726C12.7466 13.7477 12.5989 13.7933 12.4607 13.8613C12.3396 13.9218 12.2313 14.0059 12.1419 14.1088C12.0542 14.2116 12.0075 14.3164 12.0008 14.423C11.994 14.5295 12.0288 14.6169 12.1038 14.6832C12.181 14.7516 12.2668 14.7777 12.3604 14.7623C12.4548 14.7472 12.591 14.6774 12.7702 14.5545L12.8136 14.5256C13.2015 14.2589 13.4977 14.1203 13.7011 14.1088C13.8432 14.1021 13.9851 14.1265 14.1171 14.1805C14.2636 14.2408 14.3988 14.3264 14.5167 14.4335C14.842 14.7222 15.0111 15.0629 15.0225 15.4558C15.0349 15.8495 14.8862 16.2273 14.5765 16.5903C14.3907 16.8086 14.1851 16.9744 13.9609 17.0893C13.7357 17.2029 13.4751 17.2746 13.1791 17.3021L12.8843 16.3659ZM25.9493 44.7453C27.1678 45.3221 27.9674 46.1008 28.6424 47.2224C28.6767 46.0161 27.9653 45.2124 27.0437 44.5214C27.3599 44.5146 27.6756 44.5071 27.9906 44.5005C28.7403 44.9649 29.5391 45.3931 30.683 45.5721C32.0855 45.4002 33.1789 44.9138 33.9645 44.1139C33.3054 43.7136 32.5762 43.5992 31.6924 44.1139C30.7267 44.4909 29.9942 44.4945 29.421 44.2429C30.2551 43.9784 31.0898 43.7136 31.9236 43.4496C32.3582 43.3207 32.7936 43.192 33.2277 43.0639C33.7467 43.2497 34.2652 43.4353 34.7843 43.6207C35.0789 43.9638 35.3454 44.0496 35.5836 43.8783C35.8782 43.7494 35.9203 43.4777 35.7101 43.0639C35.4576 42.8629 35.2054 42.8343 34.9529 42.9778L33.859 42.592L34.8053 42.1848C35.9556 42.4565 37.063 42.4427 38.2133 41.7991C39.0299 41.209 39.7729 40.509 40.4217 39.634C39.7295 39.4245 39.137 39.5568 38.6129 39.9769C37.7947 40.8807 36.7528 41.2332 35.8782 41.3918C36.8389 40.5557 37.9468 39.6555 38.9075 38.8193L40.17 38.9909C40.5061 39.0767 40.787 39.0478 41.0109 38.9054C41.4903 38.0877 41.0335 38.025 40.443 38.0687C40.3097 38.1902 40.2186 38.3544 40.0858 38.4759C39.8892 38.4047 39.4616 38.4831 39.2655 38.4121C39.5457 38.1405 40.0157 37.6755 40.296 37.4044C41.7444 37.0436 42.7533 36.0574 43.6401 34.8962C43.3598 34.8245 43.0789 34.753 42.7986 34.6818C42.8688 34.4959 43.0226 34.3389 43.2618 34.2105L43.7876 33.9311C43.9279 33.3306 43.7035 33.1024 43.1143 33.2451L42.7776 33.9311C42.5947 34.1745 42.462 34.2677 42.336 34.3386C42.3292 34.0166 42.3217 33.6952 42.3149 33.3735L41.5577 33.8027C41.4649 33.3378 41.6688 33.0735 41.9154 32.8376C41.8237 32.1879 41.5644 32.0523 41.1371 32.4304C41.2456 32.9347 41.1576 33.2385 40.8741 33.3416L40.4638 32.9019C39.6825 34.1057 39.556 35.5064 39.7276 36.9969L38.8228 38.0904L38.6126 36.8471L38.8651 36.5465C38.7529 35.6876 38.052 35.687 37.9398 36.2897C37.8686 36.4599 37.8475 36.6521 38.171 36.9969C38.2274 37.4971 38.2832 37.9975 38.3391 38.4976C37.4065 39.2912 36.4949 40.2334 35.5628 41.0275C35.5485 40.9558 35.5137 40.7341 35.4997 40.6629C35.9359 39.9104 36.3533 39.1564 37.1826 38.6907C37.4423 38.0965 37.6037 37.5749 37.4351 37.0612C36.3012 37.8699 35.3718 38.7954 34.7427 39.8911C34.6516 40.3981 34.5598 40.9057 34.4692 41.4133C34.1182 41.6418 33.7678 41.87 33.4176 42.099C33.4244 41.7919 33.6 41.4842 33.6067 41.1774C34.4398 40.0943 33.2137 39.6599 32.9123 40.6409C33.0184 41.2772 33.0178 41.7919 32.7864 42.3138C31.5592 42.8062 30.4585 43.2998 29.2313 43.7928C29.2246 43.6853 29.3646 43.3856 29.3578 43.2781C30.0592 42.592 30.6835 42.3138 31.7769 42.1419C32.2463 41.7487 32.4359 41.3415 32.3447 40.8342C31.3404 41.0185 30.3414 41.3006 29.5049 41.8843C28.7198 42.3776 28.2086 43.0422 28.0959 43.8783C27.6189 43.9209 27.1422 43.9641 26.6653 44.0073C26.9666 43.671 27.2679 43.3355 27.5701 42.9995C27.7314 42.9206 27.8924 42.8423 28.0538 42.7639C28.2593 41.8252 27.8234 41.8403 27.2965 41.9918C27.1347 42.1733 27.0726 42.3952 27.0858 42.6349C26.7497 43.007 26.413 43.3782 25.949 43.6094L24.8119 42.3534C24.8578 42.1095 24.7879 41.8956 24.6015 41.7103C24.0744 41.5585 23.639 41.5436 23.8443 42.4826C24.0183 42.6517 24.1831 42.7567 24.328 42.718C24.6293 43.0545 24.9309 43.39 25.2325 43.7257C24.7557 43.6831 24.2789 43.6401 23.8022 43.5967C23.6894 42.7606 23.1782 42.096 22.3929 41.6033C21.5563 41.019 20.5574 40.7369 19.5533 40.553C19.4621 41.06 19.6515 41.4672 20.1211 41.8604C21.2143 42.032 21.8388 42.3108 22.5402 42.9965C22.5329 43.104 22.6735 43.404 22.6664 43.5115C21.439 43.0182 20.3386 42.5252 19.1117 42.032C18.8802 41.5104 18.8799 40.9956 18.9854 40.3599C18.6843 39.3786 17.458 39.8133 18.2913 40.8958C18.2983 41.2032 18.4734 41.5101 18.4807 41.8175C18.13 41.5893 17.7793 41.3602 17.4288 41.1317L17.1553 39.6096C16.5259 38.5144 15.5968 37.5883 14.463 36.7797C14.2941 37.2933 14.4551 37.8149 14.7155 38.4091C15.5445 38.8746 15.9615 39.6291 16.398 40.3814C16.384 40.4531 16.3489 40.6742 16.3349 40.746C15.4023 39.9527 14.491 39.0093 13.5584 38.2161L13.7268 36.7153C14.0502 36.3708 14.0292 36.1784 13.958 36.0082C13.8455 35.406 13.1446 35.4065 13.0324 36.2652L13.2849 36.5655L13.0747 37.8089L12.1699 36.7153C12.3418 35.2248 12.2152 33.8244 11.4337 32.6207C11.2967 32.7669 11.1599 32.9135 11.0234 33.06C10.7399 32.9569 10.6522 32.6531 10.7606 32.1494C10.3333 31.7708 10.0738 31.9063 9.98234 32.5563C10.2289 32.7917 10.4323 33.0559 10.3398 33.5214C10.0876 33.3782 9.83505 33.2355 9.58254 33.0925L9.5615 34.0568C9.43606 33.9858 9.30279 33.8929 9.11961 33.6496C9.00766 33.4211 8.89543 33.1923 8.78294 32.9638C8.1943 32.8208 7.96985 33.0496 8.10986 33.6496C8.28521 33.743 8.46056 33.836 8.63565 33.9289C8.87466 34.057 9.02843 34.2146 9.09857 34.4002L8.25716 34.6147C9.14389 35.7758 10.1531 36.7626 11.6015 37.1228C11.8821 37.3945 12.352 37.8589 12.6323 38.1306C12.4359 38.202 12.0083 38.1237 11.8119 38.1946C11.6789 38.0734 11.5877 37.9089 11.4542 37.7877C10.864 37.7434 10.407 37.8067 10.8863 38.6238C11.1105 38.7663 11.3911 38.7951 11.7278 38.7096C12.1486 38.6524 12.5692 38.595 12.9898 38.5383C13.9504 39.3739 15.0584 40.2744 16.0187 41.1108C15.1441 40.9519 14.1023 40.5994 13.2843 39.6956C12.7604 39.2755 12.168 39.1432 11.4753 39.3528C12.1238 40.2282 12.867 40.928 13.6839 41.5181C14.8339 42.1617 15.9416 42.1755 17.0913 41.9041L18.038 42.311C17.6732 42.4394 17.3088 42.5684 16.9443 42.6971C16.6915 42.5538 16.4396 42.5822 16.1868 42.7829C15.9767 43.1964 16.0185 43.4681 16.3131 43.597C16.5515 43.7683 16.8181 43.6828 17.1124 43.3402C17.6312 43.1538 18.1502 42.9682 18.669 42.7829L19.973 43.1684C20.8074 43.4326 21.6416 43.6977 22.476 43.9616C21.9027 44.2135 21.1703 44.2096 20.2045 43.8332C19.3213 43.3179 18.5918 43.4326 17.9328 43.8332C18.7181 44.6325 19.8117 45.1189 21.2143 45.2908C22.3581 45.1126 23.1569 44.6842 23.9068 44.2193C24.2219 44.2264 24.5376 44.233 24.8532 44.2404C23.9322 44.9314 23.2208 45.7351 23.2548 46.9419C23.9306 45.8192 24.7305 45.0403 25.9493 44.7453Z" fill="black"/>
<path fill-rule="evenodd" clip-rule="evenodd" d="M36.8221 33.8412C36.4118 32.8296 32.9032 30.322 32.4467 32.8783L31.1836 32.6338C33.9008 26.736 33.0774 15.6023 26.717 14.5105C25.7478 14.3485 21.7972 15.4129 23.6036 16.7756C24.8233 17.6956 25.4942 18.2815 26.1082 19.7097L25.5732 20.027C24.5632 18.6698 23.3638 17.2694 21.9804 16.4737C20.5002 15.6672 17.0431 19.6428 17.4731 19.8262C18.8565 20.4872 20.6442 21.341 21.6629 22.09L21.2232 22.8051C19.8195 21.9745 17.5772 20.8367 16.4493 20.906C15.8709 20.9912 14.6211 25.122 15.2515 25.2825C16.5548 25.3928 18.9959 26.7305 20.1174 27.3117C20.9032 27.948 23.3042 32.0685 22.336 32.6561C22.0252 32.845 21.0567 32.627 20.0769 32.1312C15.5728 30.2662 15.2313 32.3405 16.0775 32.9781C16.7566 33.4095 16.5237 34.1717 16.5569 34.3661C16.5213 35.5184 17.7323 36.4269 20.0683 34.806C24.8578 34.8703 27.5817 34.9724 32.3779 35.0452C32.8187 36.4794 35.8442 35.0287 36.8221 33.8412ZM29.3956 28.3695C29.9298 28.9136 29.94 29.7921 29.4172 30.3247C28.8949 30.857 28.0335 30.8472 27.4988 30.3025C26.9647 29.758 26.955 28.8795 27.4778 28.3475C27.9998 27.8149 28.8612 27.8248 29.3956 28.3695Z" fill="black"/>
<path d="M26.1255 12.0312H26.126C30.07 12.0312 33.6502 13.6706 36.244 16.3148C38.8379 18.9586 40.446 22.6073 40.4465 26.6263V26.628C40.446 30.6476 38.8379 34.2969 36.2435 36.9406C33.6496 39.5843 30.0698 41.2236 26.1265 41.2239H26.1249C22.1811 41.2236 18.6007 39.5843 16.0069 36.9403C13.413 34.2966 11.8049 30.6476 11.8044 26.6288V26.6269C11.8047 22.6073 13.413 18.9583 16.0071 16.3143C18.601 13.6706 22.1809 12.0315 26.1244 12.0312H26.1255ZM26.126 12.5594H26.1244C22.3241 12.5597 18.8737 14.1396 16.3732 16.6877C13.873 19.236 12.3226 22.753 12.3226 26.6269V26.6288C12.3226 30.5022 13.8727 34.0189 16.373 36.5672C18.8735 39.1158 22.3241 40.696 26.1246 40.696H26.1263C29.9268 40.6957 33.3769 39.1158 35.8771 36.5675C38.3774 34.0189 39.928 30.5019 39.928 26.6283V26.6263C39.9275 22.753 38.3779 19.2363 35.8777 16.688C33.3774 14.1396 29.9268 12.5594 26.126 12.5594Z" fill="black"/>
</svg>
