<svg width="19" height="15" viewBox="0 0 19 15" fill="none" xmlns="http://www.w3.org/2000/svg">
<path d="M13.75 14.5H2.75C2.02065 14.5 1.32118 14.2103 0.805456 13.6945C0.289731 13.1788 0 12.4793 0 11.75V2.75C0 2.02066 0.289731 1.32118 0.805456 0.805459C1.32118 0.289734 2.02065 2.88178e-06 2.75 2.88178e-06H5.25C5.35718 -0.000290328 5.46323 0.0217943 5.56139 0.0648432C5.65954 0.107892 5.74762 0.170957 5.82 0.250003L8.59 3.49H13.75C14.112 3.49 14.4704 3.56146 14.8047 3.70029C15.139 3.83911 15.4426 4.04257 15.6981 4.29899C15.9536 4.55541 16.1559 4.85975 16.2935 5.19455C16.4312 5.52935 16.5013 5.88803 16.5 6.25V11.75C16.5 12.4793 16.2103 13.1788 15.6945 13.6945C15.1788 14.2103 14.4793 14.5 13.75 14.5ZM2.75 1.5C2.41848 1.5 2.10054 1.6317 1.86612 1.86612C1.6317 2.10054 1.5 2.41848 1.5 2.75V11.75C1.5 12.0815 1.6317 12.3995 1.86612 12.6339C2.10054 12.8683 2.41848 13 2.75 13H13.75C14.0815 13 14.3995 12.8683 14.6339 12.6339C14.8683 12.3995 15 12.0815 15 11.75V6.25C15 5.91848 14.8683 5.60054 14.6339 5.36612C14.3995 5.1317 14.0815 5 13.75 5H8.25C8.14207 4.99903 8.03556 4.97539 7.93736 4.93059C7.83917 4.8858 7.75148 4.82087 7.68 4.74L4.91 1.5H2.75Z" fill="#304CD9"/>
</svg>
