<svg width="19" height="15" viewBox="0 0 19 15" fill="none" xmlns="http://www.w3.org/2000/svg">
<path d="M1.5003 13.7502H0.000297649V2.75018C-0.00498965 2.39345 0.0602106 2.0392 0.192158 1.70773C0.324105 1.37627 0.520202 1.07411 0.769199 0.818614C1.0182 0.563114 1.31519 0.359293 1.64314 0.218845C1.9711 0.0783972 2.32356 0.00408654 2.6803 0.000176319H5.0903C5.19925 -0.00217078 5.30742 0.0189388 5.4075 0.0620736C5.50757 0.105208 5.5972 0.16936 5.6703 0.250176L8.3403 3.48018H13.2503C13.6121 3.47875 13.9706 3.5498 14.3045 3.68913C14.6384 3.82846 14.9411 4.03325 15.1946 4.29143C15.4481 4.5496 15.6474 4.85593 15.7806 5.19234C15.9138 5.52875 15.9783 5.88843 15.9703 6.25018V6.75018H14.4703V6.25018C14.4743 6.08746 14.4457 5.92558 14.3862 5.77408C14.3267 5.62259 14.2374 5.48453 14.1238 5.36805C14.0101 5.25156 13.8742 5.15901 13.7242 5.09583C13.5742 5.03265 13.4131 5.00013 13.2503 5.00018H7.9803C7.87126 4.99994 7.76363 4.97562 7.66509 4.92894C7.56655 4.88227 7.47955 4.81439 7.4103 4.73018L4.7403 1.50018H2.6803C2.35846 1.51063 2.0538 1.6479 1.83276 1.88206C1.61172 2.11622 1.49221 2.42827 1.5003 2.75018V13.7502Z" fill="#304CD9"/>
<path d="M14.3703 14.5H0.750315C0.621912 14.4989 0.495869 14.4654 0.383952 14.4024C0.272035 14.3395 0.177893 14.2492 0.110315 14.14C0.0463298 14.0272 0.0126953 13.8997 0.0126953 13.77C0.0126953 13.6403 0.0463298 13.5128 0.110315 13.4L3.49031 6.9C3.55623 6.77969 3.6531 6.67917 3.77089 6.60884C3.88869 6.53852 4.02313 6.50094 4.16031 6.5H17.7503C17.8787 6.50105 18.0048 6.53462 18.1167 6.59758C18.2286 6.66053 18.3227 6.75081 18.3903 6.86C18.4543 6.97282 18.4879 7.1003 18.4879 7.23C18.4879 7.3597 18.4543 7.48718 18.3903 7.6L15.0103 14.1C14.9469 14.216 14.8548 14.3137 14.7427 14.3838C14.6306 14.4538 14.5024 14.4939 14.3703 14.5ZM1.98031 13H13.9203L16.5203 8H4.58031L1.98031 13Z" fill="#304CD9"/>
</svg>
