<svg width="18" height="18" viewBox="0 0 18 18" fill="none" xmlns="http://www.w3.org/2000/svg">
<path d="M15.6 6.2334C15.5651 6.12268 15.4996 6.02405 15.4112 5.94887C15.3227 5.87368 15.2149 5.82499 15.1 5.8084L10.5833 5.15007L8.5583 1.0584C8.50067 0.96171 8.41891 0.881645 8.32104 0.826044C8.22317 0.770442 8.11253 0.741211 7.99997 0.741211C7.88741 0.741211 7.77677 0.770442 7.6789 0.826044C7.58103 0.881645 7.49927 0.96171 7.44164 1.0584L5.41664 5.15007L0.89997 5.8084C0.785075 5.82499 0.677197 5.87368 0.588745 5.94887C0.500293 6.02405 0.434859 6.12268 0.39997 6.2334C0.362724 6.34371 0.357031 6.46223 0.383534 6.57561C0.410037 6.68898 0.467682 6.7927 0.54997 6.87507L3.8333 10.0584L3.0583 14.5584C3.03866 14.6743 3.05164 14.7933 3.09579 14.9022C3.13994 15.0111 3.21352 15.1056 3.3083 15.1751C3.40323 15.2427 3.51519 15.2825 3.63153 15.2898C3.74786 15.2972 3.86393 15.2719 3.96664 15.2167L7.99997 13.0917L12.0416 15.2167C12.131 15.2658 12.2313 15.2916 12.3333 15.2917C12.4644 15.2902 12.5921 15.2496 12.7 15.1751C12.7948 15.1056 12.8683 15.0111 12.9125 14.9022C12.9566 14.7933 12.9696 14.6743 12.95 14.5584L12.1666 10.0584L15.4416 6.87507C15.5254 6.79359 15.5846 6.69029 15.6126 6.57687C15.6405 6.46345 15.6362 6.34446 15.6 6.2334V6.2334Z" fill="#1EA97C"/>
</svg>
