<svg width="24" height="24" viewBox="0 0 24 24" fill="none" xmlns="http://www.w3.org/2000/svg">
<path d="M17.2 20.7497C17.0776 20.7495 16.9573 20.7185 16.85 20.6597L12 18.1097L7.15 20.6597C7.02676 20.7259 6.88747 20.7562 6.74787 20.7474C6.60827 20.7386 6.47392 20.6909 6.36 20.6097C6.24627 20.5263 6.15797 20.4129 6.10499 20.2823C6.05201 20.1516 6.03643 20.0087 6.06 19.8697L7 14.4697L3.06 10.6497C2.96126 10.5508 2.89208 10.4264 2.86028 10.2903C2.82848 10.1543 2.83531 10.0121 2.88 9.87969C2.92187 9.74682 3.00039 9.62847 3.10653 9.53825C3.21268 9.44803 3.34213 9.3896 3.48 9.36969L8.9 8.57969L11.33 3.66969C11.3992 3.55366 11.4973 3.45758 11.6147 3.39086C11.7322 3.32414 11.8649 3.28906 12 3.28906C12.1351 3.28906 12.2678 3.32414 12.3853 3.39086C12.5027 3.45758 12.6008 3.55366 12.67 3.66969L15.1 8.57969L20.52 9.36969C20.6579 9.3896 20.7873 9.44803 20.8935 9.53825C20.9996 9.62847 21.0781 9.74682 21.12 9.87969C21.1647 10.0121 21.1715 10.1543 21.1397 10.2903C21.1079 10.4264 21.0387 10.5508 20.94 10.6497L17 14.4697L17.93 19.8697C17.9536 20.0087 17.938 20.1516 17.885 20.2823C17.832 20.4129 17.7437 20.5263 17.63 20.6097C17.5034 20.6973 17.3539 20.7459 17.2 20.7497ZM12 16.5197C12.121 16.5211 12.2404 16.5484 12.35 16.5997L16.2 18.5997L15.47 14.3097C15.4502 14.1894 15.4589 14.0661 15.4954 13.9497C15.5318 13.8334 15.5951 13.7272 15.68 13.6397L18.8 10.6397L14.49 9.99969C14.3708 9.98072 14.2579 9.93364 14.1605 9.86235C14.0631 9.79105 13.9841 9.69758 13.93 9.58969L12 5.68969L10.07 9.59969C10.0159 9.70758 9.93692 9.80105 9.83954 9.87235C9.74216 9.94364 9.6292 9.99072 9.51 10.0097L5.2 10.6397L8.32 13.6397C8.40494 13.7272 8.46819 13.8334 8.50466 13.9497C8.54113 14.0661 8.54981 14.1894 8.53 14.3097L7.8 18.6297L11.65 16.6297C11.7573 16.568 11.8767 16.5304 12 16.5197Z" fill="#1EA97C"/>
</svg>
