<svg width="18" height="16" viewBox="0 0 18 16" fill="none" xmlns="http://www.w3.org/2000/svg">
<path d="M9.52 3H2.48C2.3527 3 2.23061 2.94732 2.14059 2.85355C2.05057 2.75978 2 2.63261 2 2.5C2 2.36739 2.05057 2.24021 2.14059 2.14645C2.23061 2.05268 2.3527 2 2.48 2H9.52C9.6473 2 9.76939 2.05268 9.85941 2.14645C9.94943 2.24021 10 2.36739 10 2.5C10 2.63261 9.94943 2.75978 9.85941 2.85355C9.76939 2.94732 9.6473 3 9.52 3Z" fill="#418BFB"/>
<path d="M15.7 3H11.3C11.2204 3 11.1441 2.94732 11.0879 2.85355C11.0316 2.75978 11 2.63261 11 2.5C11 2.36739 11.0316 2.24021 11.0879 2.14645C11.1441 2.05268 11.2204 2 11.3 2H15.7C15.7796 2 15.8559 2.05268 15.9121 2.14645C15.9684 2.24021 16 2.36739 16 2.5C16 2.63261 15.9684 2.75978 15.9121 2.85355C15.8559 2.94732 15.7796 3 15.7 3Z" fill="#418BFB"/>
<path d="M8.48012 4.00098L15.5201 4.00098C15.6474 4.00098 15.7695 4.05366 15.8595 4.14742C15.9496 4.24119 16.0001 4.36837 16.0001 4.50098C16.0001 4.63358 15.9496 4.76076 15.8595 4.85453C15.7695 4.9483 15.6474 5.00098 15.5201 5.00098L8.48012 5.00098C8.35282 5.00098 8.23073 4.9483 8.14071 4.85453C8.05069 4.76076 8.00012 4.63358 8.00012 4.50098C8.00012 4.36837 8.05069 4.24119 8.14071 4.14742C8.23073 4.05365 8.35282 4.00098 8.48012 4.00098Z" fill="#418BFB"/>
<path d="M2.30012 4.00098L6.70012 4.00098C6.77969 4.00098 6.85599 4.05366 6.91225 4.14742C6.96852 4.24119 7.00012 4.36837 7.00012 4.50098C7.00012 4.63358 6.96852 4.76076 6.91225 4.85453C6.85599 4.9483 6.77969 5.00098 6.70012 5.00098L2.30012 5.00098C2.22056 5.00098 2.14425 4.9483 2.08799 4.85453C2.03173 4.76076 2.00012 4.63358 2.00012 4.50098C2.00012 4.36837 2.03173 4.24119 2.08799 4.14742C2.14425 4.05365 2.22056 4.00098 2.30012 4.00098Z" fill="#418BFB"/>
<path d="M9.52012 7.00098H2.48012C2.35282 7.00098 2.23073 6.9483 2.14071 6.85453C2.05069 6.76076 2.00012 6.63358 2.00012 6.50098C2.00012 6.36837 2.05069 6.24119 2.14071 6.14742C2.23073 6.05365 2.35282 6.00098 2.48012 6.00098H9.52012C9.64743 6.00098 9.76952 6.05365 9.85953 6.14742C9.94955 6.24119 10.0001 6.36837 10.0001 6.50098C10.0001 6.63358 9.94955 6.76076 9.85953 6.85453C9.76952 6.9483 9.64743 7.00098 9.52012 7.00098Z" fill="#418BFB"/>
<path d="M15.7001 7.00098H11.3001C11.2206 7.00098 11.1443 6.9483 11.088 6.85453C11.0317 6.76076 11.0001 6.63358 11.0001 6.50098C11.0001 6.36837 11.0317 6.24119 11.088 6.14742C11.1443 6.05365 11.2206 6.00098 11.3001 6.00098H15.7001C15.7797 6.00098 15.856 6.05365 15.9123 6.14742C15.9685 6.24119 16.0001 6.36837 16.0001 6.50098C16.0001 6.63358 15.9685 6.76076 15.9123 6.85453C15.856 6.9483 15.7797 7.00098 15.7001 7.00098Z" fill="#418BFB"/>
<path d="M9.52012 11.001H2.48012C2.35282 11.001 2.23073 10.9483 2.14071 10.8545C2.05069 10.7608 2.00012 10.6336 2.00012 10.501C2.00012 10.3684 2.05069 10.2412 2.14071 10.1474C2.23073 10.0537 2.35282 10.001 2.48012 10.001H9.52012C9.64743 10.001 9.76952 10.0537 9.85953 10.1474C9.94955 10.2412 10.0001 10.3684 10.0001 10.501C10.0001 10.6336 9.94955 10.7608 9.85953 10.8545C9.76952 10.9483 9.64743 11.001 9.52012 11.001Z" fill="#418BFB"/>
<path d="M15.7001 11.001H11.3001C11.2206 11.001 11.1443 10.9483 11.088 10.8545C11.0317 10.7608 11.0001 10.6336 11.0001 10.501C11.0001 10.3684 11.0317 10.2412 11.088 10.1474C11.1443 10.0537 11.2206 10.001 11.3001 10.001H15.7001C15.7797 10.001 15.856 10.0537 15.9123 10.1474C15.9685 10.2412 16.0001 10.3684 16.0001 10.501C16.0001 10.6336 15.9685 10.7608 15.9123 10.8545C15.856 10.9483 15.7797 11.001 15.7001 11.001Z" fill="#418BFB"/>
<path d="M8.48024 8.00195L15.5202 8.00195C15.6475 8.00195 15.7696 8.05463 15.8597 8.1484C15.9497 8.24217 16.0002 8.36934 16.0002 8.50195C16.0002 8.63456 15.9497 8.76174 15.8597 8.85551C15.7696 8.94927 15.6475 9.00195 15.5202 9.00195L8.48024 9.00195C8.35294 9.00195 8.23085 8.94927 8.14083 8.85551C8.05082 8.76174 8.00024 8.63456 8.00024 8.50195C8.00024 8.36934 8.05082 8.24217 8.14083 8.1484C8.23085 8.05463 8.35294 8.00195 8.48024 8.00195Z" fill="#418BFB"/>
<path d="M2.30024 8.00195L6.70024 8.00195C6.77981 8.00195 6.85612 8.05463 6.91238 8.1484C6.96864 8.24217 7.00024 8.36934 7.00024 8.50195C7.00024 8.63456 6.96864 8.76174 6.91238 8.85551C6.85612 8.94927 6.77981 9.00195 6.70024 9.00195L2.30024 9.00195C2.22068 9.00195 2.14437 8.94927 2.08811 8.85551C2.03185 8.76174 2.00024 8.63456 2.00024 8.50195C2.00024 8.36934 2.03185 8.24217 2.08811 8.1484C2.14437 8.05463 2.22068 8.00195 2.30024 8.00195Z" fill="#418BFB"/>
<rect x="0.5" y="0.5" width="17" height="12" rx="1.5" stroke="#304CD9"/>
<rect x="2" y="13" width="14" height="3" rx="1" fill="#304CD9"/>
</svg>
