<svg width="18" height="18" viewBox="0 0 18 18" fill="none" xmlns="http://www.w3.org/2000/svg">
<path d="M14.8065 18H3.19355C2.34657 18 1.53427 17.6635 0.935368 17.0646C0.336462 16.4657 0 15.6534 0 14.8065V3.19355C0 2.34657 0.336462 1.53427 0.935368 0.935368C1.53427 0.336462 2.34657 0 3.19355 0H14.8065C15.6534 0 16.4657 0.336462 17.0646 0.935368C17.6635 1.53427 18 2.34657 18 3.19355V14.8065C18 15.6534 17.6635 16.4657 17.0646 17.0646C16.4657 17.6635 15.6534 18 14.8065 18ZM3.19355 1.74194C2.80856 1.74194 2.43933 1.89487 2.1671 2.1671C1.89487 2.43933 1.74194 2.80856 1.74194 3.19355V14.8065C1.74194 15.1914 1.89487 15.5607 2.1671 15.8329C2.43933 16.1051 2.80856 16.2581 3.19355 16.2581H14.8065C15.1914 16.2581 15.5607 16.1051 15.8329 15.8329C16.1051 15.5607 16.2581 15.1914 16.2581 14.8065V3.19355C16.2581 2.80856 16.1051 2.43933 15.8329 2.1671C15.5607 1.89487 15.1914 1.74194 14.8065 1.74194H3.19355Z" fill="#304CD9"/>
<path d="M7.10645 4.04688V14H5.4043V4.04688H7.10645ZM10.2305 4.04688V5.41406H2.30762V4.04688H10.2305Z" fill="#304CD9"/>
<path d="M14.6613 10.7137H8.33871C8.24888 10.7137 8.16273 10.6648 8.09921 10.5777C8.03569 10.4907 8 10.3726 8 10.2494C8 10.1263 8.03569 10.0082 8.09921 9.92114C8.16273 9.83407 8.24888 9.78516 8.33871 9.78516H14.6613C14.7511 9.78516 14.8373 9.83407 14.9008 9.92114C14.9643 10.0082 15 10.1263 15 10.2494C15 10.3726 14.9643 10.4907 14.9008 10.5777C14.8373 10.6648 14.7511 10.7137 14.6613 10.7137Z" fill="#304CD9"/>
<path d="M14.6613 7.92857H8.33871C8.24888 7.92857 8.16273 7.87966 8.09921 7.79259C8.03569 7.70551 8 7.58742 8 7.46429C8 7.34115 8.03569 7.22306 8.09921 7.13599C8.16273 7.04892 8.24888 7 8.33871 7H14.6613C14.7511 7 14.8373 7.04892 14.9008 7.13599C14.9643 7.22306 15 7.34115 15 7.46429C15 7.58742 14.9643 7.70551 14.9008 7.79259C14.8373 7.87966 14.7511 7.92857 14.6613 7.92857Z" fill="#304CD9"/>
<path d="M14.6613 13.5008H8.33871C8.24888 13.5008 8.16273 13.4519 8.09921 13.3649C8.03569 13.2778 8 13.1597 8 13.0366C8 12.9134 8.03569 12.7953 8.09921 12.7083C8.16273 12.6212 8.24888 12.5723 8.33871 12.5723H14.6613C14.7511 12.5723 14.8373 12.6212 14.9008 12.7083C14.9643 12.7953 15 12.9134 15 13.0366C15 13.1597 14.9643 13.2778 14.9008 13.3649C14.8373 13.4519 14.7511 13.5008 14.6613 13.5008Z" fill="#304CD9"/>
</svg>
