<svg width="18" height="18" viewBox="0 0 18 18" fill="none" xmlns="http://www.w3.org/2000/svg">
<path d="M14.8065 18H3.19355C2.34657 18 1.53427 17.6635 0.935368 17.0646C0.336462 16.4657 0 15.6534 0 14.8065V3.19355C0 2.34657 0.336462 1.53427 0.935368 0.935368C1.53427 0.336462 2.34657 0 3.19355 0H14.8065C15.6534 0 16.4657 0.336462 17.0646 0.935368C17.6635 1.53427 18 2.34657 18 3.19355V14.8065C18 15.6534 17.6635 16.4657 17.0646 17.0646C16.4657 17.6635 15.6534 18 14.8065 18ZM3.19355 1.74194C2.80856 1.74194 2.43933 1.89487 2.1671 2.1671C1.89487 2.43933 1.74194 2.80856 1.74194 3.19355V14.8065C1.74194 15.1914 1.89487 15.5607 2.1671 15.8329C2.43933 16.1051 2.80856 16.2581 3.19355 16.2581H14.8065C15.1914 16.2581 15.5607 16.1051 15.8329 15.8329C16.1051 15.5607 16.2581 15.1914 16.2581 14.8065V3.19355C16.2581 2.80856 16.1051 2.43933 15.8329 2.1671C15.5607 1.89487 15.1914 1.74194 14.8065 1.74194H3.19355Z" fill="#304CD9"/>
<path d="M10.8906 10.7598H12.5996C12.5449 11.4115 12.3626 11.9925 12.0527 12.5029C11.7428 13.0088 11.3076 13.4076 10.7471 13.6992C10.1865 13.9909 9.50521 14.1367 8.70312 14.1367C8.08789 14.1367 7.53418 14.0273 7.04199 13.8086C6.5498 13.5853 6.12826 13.2708 5.77734 12.8652C5.42643 12.4551 5.15755 11.9606 4.9707 11.3818C4.78841 10.8031 4.69727 10.1559 4.69727 9.44043V8.61328C4.69727 7.89779 4.79069 7.25065 4.97754 6.67188C5.16895 6.0931 5.44238 5.59863 5.79785 5.18848C6.15332 4.77376 6.57943 4.45703 7.07617 4.23828C7.57747 4.01953 8.1403 3.91016 8.76465 3.91016C9.55762 3.91016 10.2275 4.05599 10.7744 4.34766C11.3213 4.63932 11.7451 5.04264 12.0459 5.55762C12.3512 6.07259 12.5381 6.66276 12.6064 7.32812H10.8975C10.8519 6.89974 10.7516 6.53288 10.5967 6.22754C10.4463 5.9222 10.223 5.68978 9.92676 5.53027C9.63053 5.36621 9.24316 5.28418 8.76465 5.28418C8.37272 5.28418 8.03092 5.3571 7.73926 5.50293C7.44759 5.64876 7.20378 5.86296 7.00781 6.14551C6.81185 6.42806 6.66374 6.77669 6.56348 7.19141C6.46777 7.60156 6.41992 8.07096 6.41992 8.59961V9.44043C6.41992 9.94173 6.46322 10.3975 6.5498 10.8076C6.64095 11.2132 6.77767 11.5618 6.95996 11.8535C7.14681 12.1452 7.38379 12.3708 7.6709 12.5303C7.95801 12.6898 8.30208 12.7695 8.70312 12.7695C9.19076 12.7695 9.58496 12.6921 9.88574 12.5371C10.1911 12.3822 10.4212 12.1566 10.5762 11.8604C10.7357 11.5596 10.8405 11.1927 10.8906 10.7598Z" fill="#304CD9"/>
</svg>
