<svg width="18" height="18" viewBox="0 0 18 18" fill="none" xmlns="http://www.w3.org/2000/svg">
<path d="M12.6129 4.00057H6.29032C5.95852 3.99033 5.63639 4.11887 5.39452 4.35802C5.15266 4.59718 5.01079 4.92744 5 5.27644V12.0087C5.01347 12.4182 5.18078 12.8053 5.46525 13.0852C5.74972 13.3651 6.12811 13.5149 6.51742 13.5017H12.6129C12.7152 13.5003 12.8128 13.457 12.8851 13.3809C12.9575 13.3048 12.9987 13.2021 13 13.0945V4.40776C12.9987 4.3002 12.9575 4.19745 12.8851 4.12139C12.8128 4.04533 12.7152 4.00197 12.6129 4.00057V4.00057ZM12.2258 12.6873H6.51742C6.33336 12.7008 6.15175 12.6369 6.01242 12.5096C5.87309 12.3824 5.78742 12.2023 5.77419 12.0087C5.78742 11.8151 5.87309 11.6349 6.01242 11.5077C6.15175 11.3805 6.33336 11.3166 6.51742 11.33H12.2258V12.6873ZM12.2258 10.5156H6.51742C6.25758 10.5159 6.00199 10.585 5.77419 10.7165V5.27644C5.78602 5.1439 5.8466 5.02147 5.94302 4.93526C6.03944 4.84905 6.16407 4.80587 6.29032 4.81495H12.2258V10.5156Z" fill="#CD9A23"/>
<path d="M7.32264 6.98626H10.6775C10.7801 6.98626 10.8786 6.94336 10.9512 6.867C11.0238 6.79063 11.0646 6.68706 11.0646 6.57907C11.0646 6.47107 11.0238 6.3675 10.9512 6.29114C10.8786 6.21478 10.7801 6.17188 10.6775 6.17188H7.32264C7.21998 6.17188 7.12152 6.21478 7.04893 6.29114C6.97633 6.3675 6.93555 6.47107 6.93555 6.57907C6.93555 6.68706 6.97633 6.79063 7.04893 6.867C7.12152 6.94336 7.21998 6.98626 7.32264 6.98626Z" fill="#CD9A23"/>
<path d="M7.32264 8.88665H10.6775C10.7801 8.88665 10.8786 8.84375 10.9512 8.76739C11.0238 8.69102 11.0646 8.58745 11.0646 8.47946C11.0646 8.37146 11.0238 8.26789 10.9512 8.19153C10.8786 8.11517 10.7801 8.07227 10.6775 8.07227H7.32264C7.21998 8.07227 7.12152 8.11517 7.04893 8.19153C6.97633 8.26789 6.93555 8.37146 6.93555 8.47946C6.93555 8.58745 6.97633 8.69102 7.04893 8.76739C7.12152 8.84375 7.21998 8.88665 7.32264 8.88665Z" fill="#CD9A23"/>
<path d="M8.9961 18C7.52705 17.9987 6.08061 17.6382 4.78298 16.9498C3.48534 16.2614 2.37592 15.2661 1.5515 14.0507C0.727072 12.8353 0.212686 11.4368 0.0532116 9.97701C-0.106263 8.51725 0.0940173 7.04066 0.636582 5.67604C1.17915 4.31142 2.04751 3.10024 3.16593 2.14813C4.28435 1.19603 5.61884 0.531938 7.053 0.213782C8.48716 -0.104374 9.97742 -0.0669259 11.3938 0.322859C12.8101 0.712644 14.1096 1.44292 15.1787 2.45C15.3192 2.59062 15.3981 2.78125 15.3981 2.98C15.3981 3.17875 15.3192 3.36937 15.1787 3.51C15.1097 3.58075 15.0273 3.63699 14.9362 3.67539C14.8451 3.71378 14.7473 3.73357 14.6485 3.73357C14.5496 3.73357 14.4518 3.71378 14.3607 3.67539C14.2697 3.63699 14.1872 3.58075 14.1183 3.51C12.8568 2.33065 11.2274 1.62177 9.50427 1.5027C7.78117 1.38362 6.06964 1.86163 4.65784 2.85624C3.24604 3.85085 2.22019 5.30132 1.753 6.96345C1.28581 8.62558 1.40582 10.3979 2.09281 11.9819C2.77981 13.5659 3.99184 14.865 5.52484 15.6604C7.05785 16.4558 8.8182 16.6989 10.5095 16.3488C12.2009 15.9987 13.7199 15.0768 14.8108 13.7383C15.9018 12.3998 16.4981 10.7265 16.4993 9C16.4993 8.80108 16.5783 8.61032 16.719 8.46967C16.8597 8.32902 17.0506 8.25 17.2496 8.25C17.4486 8.25 17.6394 8.32902 17.7801 8.46967C17.9208 8.61032 17.9999 8.80108 17.9999 9C17.9999 11.3869 17.0513 13.6761 15.3627 15.364C13.6742 17.0518 11.3841 18 8.9961 18V18Z" fill="#CD9A23"/>
</svg>

