<svg width="11" height="11" viewBox="0 0 11 11" fill="none" xmlns="http://www.w3.org/2000/svg">
<path d="M8.61508 10.75H1.4647C1.07841 10.7501 0.70775 10.5977 0.433447 10.3261C0.159145 10.0544 0.00341403 9.68561 0.000167847 9.29988V5.83421C0.00179539 5.44741 0.156812 5.077 0.43129 4.80406C0.705767 4.53113 1.07735 4.37789 1.4647 4.37789H2.6954L4.37531 0.635712C4.49006 0.379935 4.70027 0.178999 4.96118 0.0757016C5.22208 -0.0275959 5.51307 -0.0250917 5.77216 0.0826806C6.11842 0.235859 6.41234 0.486672 6.61785 0.804325C6.82337 1.12198 6.93151 1.49265 6.92902 1.87082V3.38858H9.39042C9.42504 3.38274 9.46041 3.38274 9.49503 3.38858C9.88511 3.46366 10.2324 3.68314 10.4673 4.00306C10.6892 4.29861 10.7864 4.66917 10.738 5.03539L10.0612 9.51494C10.0069 9.85906 9.83146 10.1725 9.56636 10.399C9.30126 10.6254 8.96392 10.7499 8.61508 10.75ZM3.42767 9.82833H8.61508C8.74333 9.83 8.86791 9.78563 8.96616 9.70331C9.06441 9.62098 9.12981 9.50617 9.15043 9.37976L9.83963 4.91864C9.84812 4.85759 9.84375 4.79545 9.8268 4.7362C9.80984 4.67694 9.78068 4.62187 9.74117 4.57453C9.64126 4.44255 9.49708 4.35093 9.33504 4.31645H6.46135C6.39999 4.3173 6.33908 4.30575 6.2823 4.28251C6.22552 4.25926 6.17402 4.22479 6.13092 4.18117C6.08781 4.13755 6.05398 4.08568 6.03145 4.02867C6.00893 3.97167 5.99817 3.9107 5.99984 3.84944V1.87082C6.00066 1.67117 5.9428 1.47567 5.83341 1.30855C5.72403 1.14143 5.56794 1.01004 5.38449 0.930662C5.34855 0.91638 5.30843 0.916746 5.27276 0.931684C5.23709 0.946621 5.20871 0.974937 5.19373 1.01054L3.42767 4.93707V9.82833ZM1.4647 5.29961C1.39388 5.2988 1.3236 5.31203 1.25794 5.33853C1.19228 5.36503 1.13253 5.40428 1.08217 5.454C1.0318 5.50373 0.991814 5.56294 0.964526 5.6282C0.937238 5.69346 0.923189 5.76349 0.923194 5.83421V9.29988C0.923997 9.37008 0.938642 9.43944 0.966291 9.50399C0.99394 9.56855 1.03405 9.62703 1.08434 9.6761C1.13462 9.72518 1.19409 9.76388 1.25936 9.79C1.32462 9.81611 1.3944 9.82914 1.4647 9.82833H2.50465V5.29961H1.4647Z" fill="#304CD9"/>
</svg>
