<svg width="18" height="14" viewBox="0 0 18 14" fill="none" xmlns="http://www.w3.org/2000/svg">
<path d="M15.75 13.5H1.75C1.28668 13.4974 0.843085 13.3122 0.515464 12.9845C0.187842 12.6569 0.0026251 12.2133 0 11.75V9.25C0.00258996 9.05189 0.0824392 8.86263 0.222534 8.72253C0.362629 8.58244 0.551893 8.50259 0.75 8.5C1.21413 8.5 1.65925 8.31563 1.98744 7.98744C2.31563 7.65925 2.5 7.21413 2.5 6.75C2.5 6.28587 2.31563 5.84075 1.98744 5.51256C1.65925 5.18437 1.21413 5 0.75 5C0.551893 4.99741 0.362629 4.91756 0.222534 4.77747C0.0824392 4.63737 0.00258996 4.44811 0 4.25V1.75C0.0026251 1.28668 0.187842 0.843085 0.515464 0.515464C0.843085 0.187842 1.28668 0.0026251 1.75 0H15.75C16.2133 0.0026251 16.6569 0.187842 16.9845 0.515464C17.3122 0.843085 17.4974 1.28668 17.5 1.75V4.25C17.4974 4.44811 17.4176 4.63737 17.2775 4.77747C17.1374 4.91756 16.9481 4.99741 16.75 5C16.2859 5 15.8408 5.18437 15.5126 5.51256C15.1844 5.84075 15 6.28587 15 6.75C15 7.21413 15.1844 7.65925 15.5126 7.98744C15.8408 8.31563 16.2859 8.5 16.75 8.5C16.9481 8.50259 17.1374 8.58244 17.2775 8.72253C17.4176 8.86263 17.4974 9.05189 17.5 9.25V11.75C17.4974 12.2133 17.3122 12.6569 16.9845 12.9845C16.6569 13.3122 16.2133 13.4974 15.75 13.5ZM1.5 9.91V11.75C1.5 11.8163 1.52634 11.8799 1.57322 11.9268C1.62011 11.9737 1.6837 12 1.75 12H15.75C15.8163 12 15.8799 11.9737 15.9268 11.9268C15.9737 11.8799 16 11.8163 16 11.75V9.91C15.2903 9.73943 14.6588 9.33495 14.207 8.76171C13.7552 8.18848 13.5095 7.47986 13.5095 6.75C13.5095 6.02014 13.7552 5.31152 14.207 4.73829C14.6588 4.16505 15.2903 3.76057 16 3.59V1.75C16 1.6837 15.9737 1.62011 15.9268 1.57322C15.8799 1.52634 15.8163 1.5 15.75 1.5H1.75C1.6837 1.5 1.62011 1.52634 1.57322 1.57322C1.52634 1.62011 1.5 1.6837 1.5 1.75V3.59C2.20965 3.76057 2.84123 4.16505 3.29301 4.73829C3.74479 5.31152 3.99046 6.02014 3.99046 6.75C3.99046 7.47986 3.74479 8.18848 3.29301 8.76171C2.84123 9.33495 2.20965 9.73943 1.5 9.91Z" fill="#304CD9"/>
</svg>
