<svg width="15" height="17" viewBox="0 0 15 17" fill="none" xmlns="http://www.w3.org/2000/svg">
<path d="M14.9534 6.64375C14.9203 6.52749 14.8581 6.42394 14.7741 6.34499C14.6901 6.26605 14.5876 6.21493 14.4784 6.1975L10.1876 5.50625L8.26384 1.21C8.20909 1.10848 8.13142 1.02441 8.03845 0.966027C7.94547 0.907646 7.84036 0.876953 7.73343 0.876953C7.62649 0.876953 7.52139 0.907646 7.42841 0.966027C7.33543 1.02441 7.25776 1.10848 7.20301 1.21L5.27926 5.50625L0.988429 6.1975C0.879278 6.21493 0.776794 6.26605 0.692765 6.34499C0.608735 6.42394 0.546573 6.52749 0.513429 6.64375C0.478045 6.75958 0.472637 6.88403 0.497815 7.00307C0.522992 7.12211 0.577755 7.23101 0.655929 7.3175L3.7751 10.66L3.03885 15.385C3.02018 15.5067 3.03252 15.6316 3.07446 15.746C3.1164 15.8604 3.1863 15.9596 3.27635 16.0325C3.36653 16.1035 3.47289 16.1453 3.58341 16.153C3.69392 16.1607 3.80419 16.1341 3.90176 16.0762L7.73343 13.845L11.573 16.0762C11.6579 16.1278 11.7532 16.1548 11.8501 16.155C11.9747 16.1534 12.0959 16.1108 12.1984 16.0325C12.2885 15.9596 12.3584 15.8604 12.4003 15.746C12.4423 15.6316 12.4546 15.5067 12.4359 15.385L11.6918 10.66L14.803 7.3175C14.8825 7.23196 14.9388 7.12349 14.9654 7.0044C14.992 6.88531 14.9878 6.76037 14.9534 6.64375Z" fill="#304CD9"/>
</svg>
