<svg width="27" height="27" viewBox="0 0 27 27" fill="none" xmlns="http://www.w3.org/2000/svg">
<path d="M19.9931 7.71982L11.9615 7.72231C11.874 7.719 11.7867 7.73321 11.7047 7.7641C11.6228 7.79499 11.5478 7.84193 11.4842 7.90218L6.81005 12.5764C6.7463 12.6385 6.69562 12.7127 6.66101 12.7946C6.6264 12.8766 6.60855 12.9647 6.60853 13.0536C6.6085 13.1426 6.62629 13.2306 6.66085 13.3126C6.69541 13.3945 6.74604 13.4687 6.80975 13.5308L11.481 18.202C11.607 18.3257 11.7754 18.3966 11.952 18.4002L19.9774 18.3915C20.5014 18.3903 21.0037 18.1816 21.3744 17.8109C21.745 17.4403 21.9538 16.938 21.955 16.414L21.957 9.70853C21.9595 9.18451 21.7542 8.681 21.3861 8.30827C21.018 7.93553 20.5171 7.72393 19.9931 7.71982ZM20.6556 9.69654L20.6535 16.402C20.6505 16.5769 20.5796 16.7438 20.4558 16.8676C20.3321 16.9913 20.1652 17.0622 19.9902 17.0653L12.2313 17.0677L8.21668 13.0531L12.2338 9.03605L19.9927 9.03364C20.1676 9.0366 20.3345 9.10738 20.4582 9.23105C20.5819 9.35472 20.6527 9.52161 20.6556 9.69654Z" fill="#304CD9"/>
<path d="M16.5602 10.5551C16.2958 10.2902 15.9587 10.1097 15.5916 10.0365C15.2245 9.9633 14.8439 10.0007 14.4981 10.1441C14.1523 10.2874 13.8568 10.5301 13.6491 10.8416C13.4414 11.153 13.3308 11.519 13.3313 11.8934C13.3313 11.9588 13.3573 12.0215 13.4036 12.0677C13.4498 12.114 13.5125 12.14 13.578 12.14C13.6434 12.14 13.7061 12.114 13.7523 12.0677C13.7986 12.0215 13.8246 11.9588 13.8246 11.8934C13.8239 11.616 13.9056 11.3448 14.0592 11.1139C14.2129 10.8831 14.4316 10.703 14.6877 10.5966C14.9438 10.4902 15.2257 10.4622 15.4977 10.5161C15.7697 10.5701 16.0196 10.7035 16.2157 10.8996C16.4118 11.0957 16.5453 11.3456 16.5992 11.6176C16.6532 11.8896 16.6252 12.1715 16.5187 12.4276C16.4123 12.6837 16.2323 12.9024 16.0014 13.0561C15.7706 13.2098 15.4993 13.2914 15.222 13.2908C15.1568 13.2916 15.0946 13.3179 15.0485 13.364C15.0025 13.41 14.9762 13.4723 14.9754 13.5374V14.195C14.9754 14.2604 15.0014 14.3231 15.0476 14.3694C15.0939 14.4156 15.1566 14.4416 15.222 14.4416C15.2874 14.4416 15.3501 14.4156 15.3964 14.3694C15.4426 14.3231 15.4686 14.2604 15.4686 14.195V13.7676C15.8181 13.7207 16.1476 13.5772 16.42 13.3533C16.6924 13.1293 16.8969 12.8337 17.0103 12.4998C17.1238 12.1659 17.1418 11.8069 17.0623 11.4633C16.9827 11.1198 16.8089 10.8052 16.5602 10.5551Z" fill="#304CD9"/>
<path d="M15.222 15.7566C15.449 15.7566 15.633 15.5726 15.633 15.3456C15.633 15.1186 15.449 14.9346 15.222 14.9346C14.995 14.9346 14.811 15.1186 14.811 15.3456C14.811 15.5726 14.995 15.7566 15.222 15.7566Z" fill="#304CD9"/>
<path d="M5.99283 7.71563C5.82662 7.71688 5.66766 7.77145 5.54982 7.86772C5.43198 7.96398 5.36457 8.09433 5.36195 8.23098L5.3307 17.8889C5.33026 18.0261 5.39612 18.1579 5.5138 18.2553C5.63149 18.3527 5.79135 18.4077 5.95822 18.4083C6.1251 18.4088 6.28531 18.3548 6.40362 18.2582C6.52193 18.1615 6.58865 18.0302 6.58909 17.8929L6.62035 8.23506C6.61862 8.09838 6.55205 7.9676 6.43484 7.87058C6.31762 7.77356 6.15902 7.71796 5.99283 7.71563Z" fill="#304CD9"/>
</svg>
