<svg width="27" height="27" viewBox="0 0 27 27" fill="none" xmlns="http://www.w3.org/2000/svg">
<path d="M6.24029 7.79696L14.2719 7.79946C14.3594 7.79615 14.4467 7.81036 14.5287 7.84125C14.6106 7.87213 14.6856 7.91908 14.7492 7.97933L19.4234 12.6535C19.4871 12.7156 19.5378 12.7898 19.5724 12.8718C19.607 12.9538 19.6249 13.0418 19.6249 13.1308C19.6249 13.2197 19.6071 13.3078 19.5726 13.3897C19.538 13.4717 19.4874 13.5459 19.4237 13.6079L14.7524 18.2792C14.6265 18.4029 14.458 18.4738 14.2815 18.4773L6.25601 18.4687C5.732 18.4675 5.22968 18.2587 4.85904 17.8881C4.48839 17.5174 4.27963 17.0151 4.27847 16.4911L4.27638 9.78567C4.27393 9.26166 4.47922 8.75815 4.84731 8.38541C5.21541 8.01267 5.71629 7.80108 6.24029 7.79696ZM5.5778 9.77368L5.57989 16.4791C5.58296 16.654 5.65384 16.821 5.77759 16.9447C5.90134 17.0685 6.06828 17.1394 6.2432 17.1424L14.0022 17.1449L18.0168 13.1303L13.9997 9.1132L6.2407 9.11078C6.06578 9.11375 5.89889 9.18453 5.77522 9.3082C5.65155 9.43187 5.58077 9.59876 5.5778 9.77368Z" fill="#304CD9"/>
<path d="M12.3513 10.8315C12.0869 10.5665 11.7497 10.386 11.3826 10.3128C11.0155 10.2397 10.635 10.2771 10.2892 10.4204C9.94335 10.5638 9.64787 10.8065 9.44016 11.1179C9.23245 11.4293 9.12186 11.7954 9.1224 12.1697C9.1224 12.2351 9.14838 12.2979 9.19463 12.3441C9.24088 12.3904 9.3036 12.4163 9.36901 12.4163C9.43441 12.4163 9.49713 12.3904 9.54338 12.3441C9.58963 12.2979 9.61561 12.2351 9.61561 12.1697C9.61496 11.8924 9.69664 11.6211 9.8503 11.3903C10.004 11.1594 10.2227 10.9794 10.4788 10.873C10.7349 10.7666 11.0168 10.7385 11.2888 10.7925C11.5608 10.8464 11.8107 10.9799 12.0068 11.176C12.2029 11.3721 12.3363 11.622 12.3903 11.894C12.4442 12.166 12.4162 12.4479 12.3098 12.704C12.2034 12.9601 12.0233 13.1788 11.7925 13.3325C11.5616 13.4861 11.2904 13.5678 11.013 13.5672C10.9479 13.568 10.8857 13.5943 10.8396 13.6403C10.7935 13.6864 10.7673 13.7486 10.7664 13.8138V14.4714C10.7664 14.5368 10.7924 14.5995 10.8387 14.6457C10.8849 14.692 10.9476 14.718 11.013 14.718C11.0784 14.718 11.1412 14.692 11.1874 14.6457C11.2337 14.5995 11.2596 14.5368 11.2596 14.4714V14.0439C11.6092 13.9971 11.9387 13.8536 12.2111 13.6296C12.4835 13.4056 12.6879 13.11 12.8014 12.7761C12.9148 12.4422 12.9328 12.0833 12.8533 11.7397C12.7738 11.3961 12.5999 11.0816 12.3513 10.8315Z" fill="#304CD9"/>
<path d="M11.013 16.033C11.24 16.033 11.424 15.8489 11.424 15.6219C11.424 15.395 11.24 15.2109 11.013 15.2109C10.786 15.2109 10.602 15.395 10.602 15.6219C10.602 15.8489 10.786 16.033 11.013 16.033Z" fill="#304CD9"/>
<path d="M20.2406 7.79278C20.4068 7.79403 20.5658 7.8486 20.6836 7.94486C20.8014 8.04113 20.8689 8.17147 20.8715 8.30813L20.9027 17.966C20.9032 18.1032 20.8373 18.235 20.7196 18.3325C20.6019 18.4299 20.4421 18.4849 20.2752 18.4854C20.1083 18.486 19.9481 18.432 19.8298 18.3353C19.7115 18.2387 19.6448 18.1073 19.6443 17.9701L19.6131 8.3122C19.6148 8.17553 19.6814 8.04475 19.7986 7.94773C19.9158 7.8507 20.0744 7.79511 20.2406 7.79278Z" fill="#304CD9"/>
</svg>
