<svg width="18" height="18" viewBox="0 0 18 18" fill="none" xmlns="http://www.w3.org/2000/svg">
<path d="M8.9961 18C7.52705 17.9987 6.08061 17.6382 4.78298 16.9498C3.48534 16.2614 2.37592 15.2661 1.5515 14.0507C0.727072 12.8353 0.212686 11.4368 0.0532116 9.97701C-0.106263 8.51725 0.0940173 7.04066 0.636582 5.67604C1.17915 4.31142 2.04751 3.10024 3.16593 2.14813C4.28435 1.19603 5.61884 0.531938 7.053 0.213782C8.48716 -0.104374 9.97742 -0.0669259 11.3938 0.322859C12.8101 0.712644 14.1096 1.44292 15.1787 2.45C15.3192 2.59062 15.3981 2.78125 15.3981 2.98C15.3981 3.17875 15.3192 3.36937 15.1787 3.51C15.1097 3.58075 15.0273 3.63699 14.9362 3.67539C14.8451 3.71378 14.7473 3.73357 14.6485 3.73357C14.5496 3.73357 14.4518 3.71378 14.3607 3.67539C14.2697 3.63699 14.1872 3.58075 14.1183 3.51C12.8568 2.33065 11.2274 1.62177 9.50427 1.5027C7.78117 1.38362 6.06964 1.86163 4.65784 2.85624C3.24604 3.85085 2.22019 5.30132 1.753 6.96345C1.28581 8.62558 1.40582 10.3979 2.09281 11.9819C2.77981 13.5659 3.99184 14.865 5.52484 15.6604C7.05785 16.4558 8.8182 16.6989 10.5095 16.3488C12.2009 15.9987 13.7199 15.0768 14.8108 13.7383C15.9018 12.3998 16.4981 10.7265 16.4993 9C16.4993 8.80108 16.5783 8.61032 16.719 8.46967C16.8597 8.32901 17.0506 8.25 17.2496 8.25C17.4486 8.25 17.6394 8.32901 17.7801 8.46967C17.9208 8.61032 17.9999 8.80108 17.9999 9C17.9999 11.3869 17.0513 13.6761 15.3627 15.364C13.6742 17.0518 11.3841 18 8.9961 18Z" fill="#CD9A23"/>
<path d="M13.5296 9.54452H6.54267C6.41632 9.54452 6.29515 9.48703 6.20581 9.38469C6.11647 9.28235 6.06628 9.14355 6.06628 8.99882C6.06628 8.8541 6.11647 8.71529 6.20581 8.61296C6.29515 8.51062 6.41632 8.45312 6.54267 8.45312H13.5296C13.656 8.45312 13.7771 8.51062 13.8665 8.61296C13.9558 8.71529 14.006 8.8541 14.006 8.99882C14.006 9.14355 13.9558 9.28235 13.8665 9.38469C13.7771 9.48703 13.656 9.54452 13.5296 9.54452Z" fill="#CD9A23"/>
<path d="M13.5296 6.26913H6.54267C6.41632 6.26913 6.29515 6.21164 6.20581 6.1093C6.11647 6.00696 6.06628 5.86816 6.06628 5.72343C6.06628 5.5787 6.11647 5.4399 6.20581 5.33757C6.29515 5.23523 6.41632 5.17773 6.54267 5.17773H13.5296C13.656 5.17773 13.7771 5.23523 13.8665 5.33757C13.9558 5.4399 14.006 5.5787 14.006 5.72343C14.006 5.86816 13.9558 6.00696 13.8665 6.1093C13.7771 6.21164 13.656 6.26913 13.5296 6.26913Z" fill="#CD9A23"/>
<path d="M13.5296 12.818H6.54267C6.41632 12.818 6.29515 12.7605 6.20581 12.6581C6.11647 12.5558 6.06628 12.417 6.06628 12.2723C6.06628 12.1275 6.11647 11.9887 6.20581 11.8864C6.29515 11.7841 6.41632 11.7266 6.54267 11.7266H13.5296C13.656 11.7266 13.7771 11.7841 13.8665 11.8864C13.9558 11.9887 14.006 12.1275 14.006 12.2723C14.006 12.417 13.9558 12.5558 13.8665 12.6581C13.7771 12.7605 13.656 12.818 13.5296 12.818Z" fill="#CD9A23"/>
<path d="M4.63714 6.45157C4.55456 6.45273 4.47257 6.43543 4.39577 6.40064C4.31987 6.35845 4.24935 6.30459 4.18617 6.24056C4.1273 6.17258 4.08072 6.09195 4.04911 6.0033C4.0175 5.91465 4.00148 5.81973 4.00196 5.72397C4.0043 5.53133 4.0701 5.34681 4.18617 5.20738C4.24579 5.14 4.31724 5.08791 4.39577 5.05458C4.55042 4.98181 4.72387 4.98181 4.87851 5.05458C4.95648 5.08921 5.02771 5.14113 5.08812 5.20738C5.20419 5.34681 5.26998 5.53133 5.27232 5.72397C5.2728 5.81973 5.25678 5.91465 5.22517 6.0033C5.19356 6.09195 5.14699 6.17258 5.08812 6.24056C5.02493 6.30459 4.95441 6.35845 4.87851 6.40064C4.80171 6.43543 4.71972 6.45273 4.63714 6.45157Z" fill="#CD9A23"/>
<path d="M4.63714 9.72621C4.55414 9.72506 4.47214 9.70529 4.39577 9.668C4.3188 9.63116 4.24791 9.57948 4.18617 9.51521C4.1273 9.44722 4.08072 9.36659 4.04911 9.27794C4.0175 9.18929 4.00148 9.09437 4.00196 8.99861C4.0043 8.80597 4.0701 8.62145 4.18617 8.48202C4.24791 8.41775 4.3188 8.36607 4.39577 8.32922C4.51076 8.26815 4.63906 8.24788 4.76418 8.27102L4.87851 8.31467L4.99284 8.38016C5.02612 8.40702 5.05794 8.43618 5.08812 8.46747C5.2072 8.61055 5.27322 8.80093 5.27232 8.99861C5.27232 9.19158 5.2054 9.37665 5.08628 9.5131C4.96716 9.64955 4.8056 9.72621 4.63714 9.72621Z" fill="#CD9A23"/>
<path d="M4.63704 13.0008C4.55445 13.0019 4.47247 12.9846 4.39567 12.9498C4.31977 12.9076 4.24925 12.8538 4.18606 12.7897C4.12995 12.719 4.08484 12.6378 4.05267 12.5496C4.01907 12.4625 4.00171 12.3684 4.00171 12.2732C4.00171 12.1779 4.01907 12.0838 4.05267 11.9967C4.08484 11.9085 4.12995 11.8273 4.18606 11.7566C4.27538 11.6556 4.38881 11.5872 4.51202 11.56C4.63524 11.5328 4.76273 11.548 4.8784 11.6038C4.95637 11.6384 5.0276 11.6903 5.08801 11.7566C5.14412 11.8273 5.18923 11.9085 5.2214 11.9967C5.255 12.0838 5.27236 12.1779 5.27236 12.2732C5.27236 12.3684 5.255 12.4625 5.2214 12.5496C5.18923 12.6378 5.14412 12.719 5.08801 12.7897C5.02866 12.8572 4.95827 12.9105 4.88088 12.9467C4.8035 12.983 4.72063 13.0013 4.63704 13.0008Z" fill="#CD9A23"/>
</svg>
