<svg width="15" height="18" viewBox="0 0 15 18" fill="none" xmlns="http://www.w3.org/2000/svg">
<path d="M7.5 17.5195C5.57718 17.5195 3.73311 16.7557 2.37348 15.3961C1.01384 14.0364 0.25 12.1924 0.25 10.2695C0.25 8.34671 1.01384 6.50265 2.37348 5.14301C3.73311 3.78337 5.57718 3.01953 7.5 3.01953H10C10.1989 3.01953 10.3897 3.09855 10.5303 3.2392C10.671 3.37985 10.75 3.57062 10.75 3.76953C10.75 3.96844 10.671 4.15921 10.5303 4.29986C10.3897 4.44051 10.1989 4.51953 10 4.51953H7.5C6.36276 4.51953 5.25105 4.85676 4.30547 5.48858C3.35989 6.1204 2.6229 7.01843 2.18769 8.0691C1.75249 9.11978 1.63862 10.2759 1.86048 11.3913C2.08235 12.5067 2.62998 13.5312 3.43414 14.3354C4.23829 15.1395 5.26284 15.6872 6.37823 15.909C7.49362 16.1309 8.64975 16.017 9.70043 15.5818C10.7511 15.1466 11.6491 14.4096 12.281 13.4641C12.9128 12.5185 13.25 11.4068 13.25 10.2695C13.25 10.0706 13.329 9.87985 13.4697 9.7392C13.6103 9.59855 13.8011 9.51953 14 9.51953C14.1989 9.51953 14.3897 9.59855 14.5303 9.7392C14.671 9.87985 14.75 10.0706 14.75 10.2695C14.7474 12.1915 13.9827 14.0341 12.6236 15.3931C11.2645 16.7522 9.42201 17.5169 7.5 17.5195Z" fill="#304CD9"/>
<path d="M7.49991 7.51871C7.40137 7.51917 7.30373 7.49995 7.21272 7.46217C7.1217 7.4244 7.03915 7.36882 6.96991 7.29871C6.82946 7.15808 6.75057 6.96746 6.75057 6.76871C6.75057 6.56996 6.82946 6.37933 6.96991 6.23871L9.43991 3.76871L6.96991 1.29871C6.89622 1.23005 6.83712 1.14725 6.79613 1.05525C6.75514 0.963247 6.73309 0.863934 6.73132 0.763231C6.72954 0.662528 6.74807 0.562499 6.78579 0.469111C6.82351 0.375723 6.87965 0.290889 6.95087 0.21967C7.02209 0.148451 7.10692 0.0923066 7.20031 0.0545856C7.2937 0.0168646 7.39373 -0.00166006 7.49443 0.000116721C7.59513 0.00189351 7.69445 0.0239355 7.78645 0.0649275C7.87845 0.105919 7.96125 0.165022 8.02991 0.238708L11.0299 3.23871C11.1704 3.37933 11.2492 3.56996 11.2492 3.76871C11.2492 3.96746 11.1704 4.15808 11.0299 4.29871L8.02991 7.29871C7.96067 7.36882 7.87812 7.4244 7.7871 7.46217C7.69609 7.49995 7.59845 7.51917 7.49991 7.51871Z" fill="#304CD9"/>
</svg>

