<svg width="25" height="20" viewBox="0 0 25 20" fill="none" xmlns="http://www.w3.org/2000/svg">
<path d="M15 17.2913H5C4.39221 17.2913 3.80932 17.0499 3.37955 16.6201C2.94977 16.1904 2.70833 15.6075 2.70833 14.9997V4.99967C2.70833 4.39189 2.94977 3.80899 3.37955 3.37922C3.80932 2.94945 4.39221 2.70801 5 2.70801H12.3833C12.5491 2.70801 12.7081 2.77386 12.8253 2.89107C12.9425 3.00828 13.0083 3.16725 13.0083 3.33301C13.0083 3.49877 12.9425 3.65774 12.8253 3.77495C12.7081 3.89216 12.5491 3.95801 12.3833 3.95801H5C4.72373 3.95801 4.45878 4.06775 4.26343 4.26311C4.06808 4.45846 3.95833 4.72341 3.95833 4.99967V14.9997C3.95833 15.2759 4.06808 15.5409 4.26343 15.7362C4.45878 15.9316 4.72373 16.0413 5 16.0413H15C15.2763 16.0413 15.5412 15.9316 15.7366 15.7362C15.9319 15.5409 16.0417 15.2759 16.0417 14.9997V8.57467C16.0417 8.40891 16.1075 8.24994 16.2247 8.13273C16.3419 8.01552 16.5009 7.94967 16.6667 7.94967C16.8324 7.94967 16.9914 8.01552 17.1086 8.13273C17.2258 8.24994 17.2917 8.40891 17.2917 8.57467V14.9997C17.2917 15.6075 17.0502 16.1904 16.6205 16.6201C16.1907 17.0499 15.6078 17.2913 15 17.2913Z" fill="#1EA97C"/>
<path d="M8.75 12.7082C8.58921 12.6959 8.43964 12.6211 8.33333 12.4998L5.83333 9.99982C5.77763 9.88319 5.75946 9.75217 5.78131 9.62478C5.80317 9.4974 5.86398 9.37992 5.95537 9.28853C6.04676 9.19714 6.16424 9.13633 6.29162 9.11447C6.41901 9.09262 6.55004 9.11079 6.66667 9.16649L8.725 11.2248L15.8333 4.16649C15.95 4.11079 16.081 4.09261 16.2084 4.11447C16.3358 4.13633 16.4532 4.19714 16.5446 4.28853C16.636 4.37992 16.6968 4.4974 16.7187 4.62478C16.7405 4.75217 16.7224 4.88319 16.6667 4.99982L9.16667 12.4998C9.06036 12.6211 8.91078 12.6959 8.75 12.7082Z" fill="#1EA97C"/>
<path d="M20.25 6.74942C20.3485 6.74896 20.4462 6.76818 20.5372 6.80595C20.6282 6.84373 20.7108 6.89931 20.78 6.96942L24.28 10.4694C24.4205 10.61 24.4993 10.8007 24.4993 10.9994C24.4993 11.1982 24.4205 11.3888 24.28 11.5294L20.78 14.9994C20.639 15.0908 20.4715 15.1322 20.3042 15.117C20.1369 15.1019 19.9795 15.0309 19.8573 14.9157C19.7351 14.8004 19.6552 14.6474 19.6303 14.4813C19.6054 14.3151 19.637 14.1455 19.72 13.9994L22.72 10.9994L19.72 7.99942C19.5796 7.85879 19.5007 7.66817 19.5007 7.46942C19.5007 7.27067 19.5796 7.08005 19.72 6.93942C19.8647 6.80873 20.0552 6.74045 20.25 6.74942Z" fill="#CD9A23"/>
</svg>
