<svg width="20" height="20" viewBox="0 0 18 17" fill="none" xmlns="http://www.w3.org/2000/svg">
<path d="M3.97985 12.4727C2.9201 12.4761 1.90228 12.0589 1.14985 11.3127C0.385992 10.5011 -0.0267421 9.42094 0.00134511 8.30681C0.0294323 7.19269 0.496071 6.13466 1.29985 5.36266L5.05985 1.57266C5.87714 0.728992 6.99543 0.243561 8.16985 0.222656C8.6974 0.226172 9.21903 0.334009 9.70473 0.539957C10.1904 0.745905 10.6306 1.0459 10.9999 1.42266C11.7741 2.23894 12.1931 3.32893 12.165 4.45366C12.1369 5.57839 11.6639 6.64608 10.8499 7.42266L9.58985 8.68266C9.52119 8.75634 9.43839 8.81545 9.34639 8.85644C9.25439 8.89743 9.15508 8.91947 9.05438 8.92125C8.95367 8.92302 8.85365 8.9045 8.76026 8.86678C8.66687 8.82906 8.58203 8.77291 8.51082 8.70169C8.4396 8.63048 8.38345 8.54564 8.34573 8.45225C8.30801 8.35887 8.28949 8.25884 8.29126 8.15813C8.29304 8.05743 8.31508 7.95812 8.35607 7.86612C8.39707 7.77412 8.45617 7.69132 8.52985 7.62266L9.74985 6.32266C10.2746 5.83023 10.5836 5.15056 10.6098 4.43146C10.6361 3.71235 10.3773 3.01198 9.88985 2.48266C9.35696 2.01796 8.66654 1.77462 7.96005 1.80251C7.25355 1.8304 6.58446 2.1274 6.08985 2.63266L2.35985 6.41266C1.84498 6.90391 1.54143 7.5762 1.51343 8.28729C1.48544 8.99837 1.73519 9.69245 2.20985 10.2227C2.47073 10.4805 2.78514 10.6777 3.13077 10.8004C3.47641 10.9231 3.84482 10.9683 4.20985 10.9327C4.30711 10.923 4.40532 10.9327 4.4988 10.9613C4.59228 10.9898 4.67918 11.0365 4.75449 11.0988C4.82981 11.1611 4.89203 11.2377 4.93758 11.3242C4.98312 11.4107 5.01109 11.5053 5.01985 11.6027C5.03941 11.8002 4.97987 11.9974 4.85429 12.1511C4.7287 12.3048 4.54731 12.4025 4.34985 12.4227L3.97985 12.4727Z" fill="#FF5757"/>
<path d="M9.32997 12.2213C8.80243 12.2178 8.2808 12.11 7.7951 11.904C7.30941 11.6981 6.86925 11.3981 6.49997 11.0213C5.72571 10.205 5.30671 9.11504 5.33483 7.99031C5.36294 6.86558 5.83589 5.79789 6.64997 5.02132L7.90997 3.76132C7.97864 3.68763 8.06144 3.62853 8.15344 3.58754C8.24543 3.54654 8.34475 3.5245 8.44545 3.52273C8.54615 3.52095 8.64618 3.53947 8.73957 3.57719C8.83296 3.61492 8.91779 3.67106 8.98901 3.74228C9.06023 3.8135 9.11638 3.89833 9.1541 3.99172C9.19182 4.08511 9.21034 4.18514 9.20857 4.28584C9.20679 4.38654 9.18475 4.48586 9.14375 4.57786C9.10276 4.66985 9.04366 4.75266 8.96997 4.82132L7.74997 6.12132C7.22527 6.61374 6.9162 7.29341 6.88998 8.01252C6.86377 8.73162 7.12252 9.43199 7.60997 9.96132C8.14286 10.426 8.83328 10.6693 9.53978 10.6415C10.2463 10.6136 10.9154 10.3166 11.41 9.81132L15.18 6.03132C15.6893 5.53475 15.9855 4.85959 16.006 4.14858C16.0265 3.43757 15.7698 2.74644 15.29 2.22132C15.0291 1.96351 14.7147 1.76626 14.3691 1.64356C14.0234 1.52086 13.655 1.47571 13.29 1.51132C13.1927 1.52096 13.0945 1.51123 13.001 1.48271C12.9075 1.45419 12.8206 1.40743 12.7453 1.34514C12.67 1.28284 12.6078 1.20625 12.5623 1.11977C12.5167 1.0333 12.4887 0.938659 12.48 0.841317C12.4604 0.643798 12.52 0.446581 12.6455 0.292878C12.7711 0.139176 12.9525 0.0415235 13.15 0.0213176C13.7321 -0.0390212 14.3203 0.0291079 14.8733 0.220899C15.4262 0.41269 15.9303 0.723471 16.35 1.13132C17.1138 1.94284 17.5266 3.02304 17.4985 4.13716C17.4704 5.25129 17.0038 6.30931 16.2 7.08132L12.44 10.8713C11.6227 11.715 10.5044 12.2004 9.32997 12.2213Z" fill="#FF5757"/>
<path d="M10 17C9.20888 17 8.43552 16.7654 7.77772 16.3259C7.11992 15.8864 6.60723 15.2616 6.30448 14.5307C6.00173 13.7998 5.92252 12.9956 6.07686 12.2196C6.2312 11.4437 6.61216 10.731 7.17157 10.1716C7.73098 9.61216 8.44372 9.2312 9.21964 9.07686C9.99556 8.92252 10.7998 9.00173 11.5307 9.30448C12.2616 9.60723 12.8864 10.1199 13.3259 10.7777C13.7654 11.4355 14 12.2089 14 13C14 14.0609 13.5786 15.0783 12.8284 15.8284C12.0783 16.5786 11.0609 17 10 17Z" fill="#CD0000"/>
<path d="M11.7778 13.3346H8.22225C8.13384 13.3346 8.04906 13.2995 7.98655 13.237C7.92403 13.1745 7.88892 13.0897 7.88892 13.0013C7.88892 12.9129 7.92403 12.8281 7.98655 12.7656C8.04906 12.7031 8.13384 12.668 8.22225 12.668H11.7778C11.8662 12.668 11.951 12.7031 12.0135 12.7656C12.076 12.8281 12.1111 12.9129 12.1111 13.0013C12.1111 13.0897 12.076 13.1745 12.0135 13.237C11.951 13.2995 11.8662 13.3346 11.7778 13.3346Z" fill="white"/>
</svg>
