<svg width="16" height="13" viewBox="0 0 16 13" fill="none" xmlns="http://www.w3.org/2000/svg">
<path d="M6.5 7.08885C6.35279 7.08701 6.21215 7.03022 6.10805 6.9306C6.00395 6.83098 5.94462 6.69639 5.94269 6.55552V4.06664C5.94269 3.9252 6.00141 3.78954 6.10592 3.68952C6.21044 3.5895 6.35219 3.53331 6.5 3.53331C6.6478 3.53331 6.78956 3.5895 6.89407 3.68952C6.99858 3.78954 7.0573 3.9252 7.0573 4.06664V6.55552C7.05538 6.69639 6.99604 6.83098 6.89194 6.9306C6.78784 7.03022 6.6472 7.08701 6.5 7.08885Z" fill="#CD0000"/>
<path d="M6.5 9.22217C6.35279 9.22033 6.21215 9.16355 6.10805 9.06392C6.00395 8.9643 5.94462 8.82971 5.94269 8.68884V8.33329C5.94269 8.19184 6.00141 8.05618 6.10592 7.95616C6.21044 7.85615 6.35219 7.79996 6.5 7.79996C6.6478 7.79996 6.78956 7.85615 6.89407 7.95616C6.99858 8.05618 7.0573 8.19184 7.0573 8.33329V8.68884C7.05538 8.82971 6.99604 8.9643 6.89194 9.06392C6.78784 9.16355 6.6472 9.22033 6.5 9.22217Z" fill="#CD0000"/>
<path d="M8.5359 11C8.34427 10.6681 8.20055 10.309 8.11042 9.93334H1.514L6.5 1.58494L9.21423 6.12955C9.3871 5.96178 9.57556 5.8092 9.77772 5.67412C9.88405 5.60307 9.99341 5.53738 10.1054 5.47716L6.983 0.248062C6.93013 0.171786 6.85835 0.109217 6.77408 0.0659342C6.6898 0.0226513 6.59564 0 6.5 0C6.40436 0 6.3102 0.0226513 6.22592 0.0659342C6.14165 0.109217 6.06987 0.171786 6.017 0.248062L0.072439 10.2036C0.0249358 10.2851 0 10.3769 0 10.4702C0 10.5636 0.0249358 10.6554 0.072439 10.7369C0.12241 10.8169 0.193145 10.8831 0.277775 10.9292C0.362406 10.9753 0.458055 10.9997 0.555435 11H8.5359Z" fill="#CD0000"/>
<path fill-rule="evenodd" clip-rule="evenodd" d="M12 5C11.2089 5 10.4355 5.2346 9.77772 5.67412C9.11992 6.11365 8.60723 6.73836 8.30448 7.46927C8.00173 8.20017 7.92252 9.00444 8.07686 9.78036C8.2312 10.5563 8.61216 11.269 9.17157 11.8284C9.73098 12.3878 10.4437 12.7688 11.2196 12.9231C11.9956 13.0775 12.7998 12.9983 13.5307 12.6955C14.2616 12.3928 14.8864 11.8801 15.3259 11.2223C15.7654 10.5645 16 9.79112 16 9C16 7.93913 15.5786 6.92172 14.8284 6.17157C14.0783 5.42143 13.0609 5 12 5ZM10.9778 7.08942C10.8437 7.22372 10.7374 7.38312 10.6649 7.55852C10.5925 7.73392 10.5553 7.92187 10.5555 8.11164C10.5555 8.20005 10.5907 8.28483 10.6532 8.34734C10.7157 8.40986 10.8005 8.44498 10.8889 8.44498C10.9773 8.44498 11.0621 8.40986 11.1246 8.34734C11.1871 8.28483 11.2222 8.20005 11.2222 8.11164C11.2217 8.00936 11.2414 7.90798 11.2803 7.81338C11.3192 7.71878 11.3765 7.63284 11.4489 7.56053C11.5976 7.41922 11.7949 7.34043 12 7.34043C12.2051 7.34043 12.4024 7.41922 12.5511 7.56053C12.6619 7.66907 12.7377 7.80824 12.7688 7.96018C12.7999 8.11212 12.7848 8.26989 12.7256 8.41322C12.6664 8.55655 12.5656 8.67889 12.4363 8.76454C12.307 8.85019 12.1551 8.89522 12 8.89386C11.9119 8.89502 11.8278 8.9305 11.7656 8.99277C11.7033 9.05503 11.6678 9.13915 11.6667 9.2272V9.67164C11.6667 9.76005 11.7018 9.84483 11.7643 9.90734C11.8268 9.96986 11.9116 10.005 12 10.005C12.0884 10.005 12.1732 9.96986 12.2357 9.90734C12.2982 9.84483 12.3333 9.76005 12.3333 9.67164V9.52053C12.5944 9.46076 12.8333 9.32824 13.0222 9.13831C13.2925 8.86678 13.4443 8.49923 13.4443 8.11609C13.4443 7.73294 13.2925 7.3654 13.0222 7.09387C12.7469 6.83129 12.3813 6.68442 12.0009 6.6836C11.6204 6.68277 11.2542 6.82804 10.9778 7.08942ZM12.5555 10.8886C12.5555 11.1954 12.3068 11.4441 12 11.4441C11.6932 11.4441 11.4444 11.1954 11.4444 10.8886C11.4444 10.5817 11.6932 10.333 12 10.333C12.3068 10.333 12.5555 10.5817 12.5555 10.8886Z" fill="#CD0000"/>
</svg>
