 <svg
                  width="18"
                  height="14"
                  viewBox="0 0 18 16"
                  fill="none"
                  xmlns="http://www.w3.org/2000/svg"
                >
                  <path
                    d="M1.04569 1.69029C1.04653 1.88262 1.11424 2.06685 1.23441 2.20373C1.35458 2.34061 1.5177 2.41932 1.68902 2.42308L3.79063 2.43842L3.0582 3.24853C2.2941 4.08657 1.73323 5.12956 1.42884 6.27846C1.12445 7.42737 1.08665 8.64404 1.31903 9.81294C1.55141 10.9818 2.04625 12.0642 2.75656 12.9571C3.46688 13.85 4.36908 14.524 5.37748 14.9149C5.45962 14.9554 5.54847 14.9761 5.63826 14.9756C5.72805 14.975 5.81676 14.9533 5.89863 14.9118C5.98051 14.8703 6.05371 14.8099 6.11349 14.7346C6.17327 14.6593 6.21828 14.5707 6.2456 14.4747C6.25862 14.3945 6.25922 14.3124 6.24737 14.232C6.24711 14.0801 6.20509 13.9321 6.12704 13.8082C6.049 13.6842 5.93875 13.5904 5.81133 13.5396C5.09556 13.2631 4.4474 12.803 3.91834 12.1958C2.99595 11.141 2.48412 9.71829 2.49492 8.23912C2.50571 6.75995 3.03826 5.34486 3.97594 4.30368L4.70838 3.49357L4.6913 5.83304C4.68989 6.02613 4.75688 6.21181 4.87753 6.34923C4.99818 6.48666 5.1626 6.56457 5.33463 6.56582C5.50666 6.56708 5.67221 6.49158 5.79485 6.35593C5.91749 6.22028 5.98718 6.0356 5.98859 5.84251L6.01863 1.72659C6.02049 1.63063 6.00521 1.53525 5.97367 1.4461C5.94213 1.35694 5.89499 1.27581 5.83502 1.2075C5.77505 1.13919 5.70347 1.08509 5.62451 1.04839C5.54555 1.01168 5.46081 0.993122 5.3753 0.993804L1.69965 0.966977C1.52762 0.965721 1.36207 1.04122 1.23943 1.17687C1.11679 1.31252 1.0471 1.4972 1.04569 1.69029Z"
                    fill="white"
                  />
                  <path
                    d="M8.3488 11.0024C8.30852 11.001 8.26894 10.9913 8.23251 10.9739C8.19607 10.9565 8.16354 10.9317 8.1369 10.9011L6.13897 8.87819C6.10087 8.85317 6.06888 8.81973 6.04544 8.78039C6.02199 8.74105 6.0077 8.69684 6.00364 8.6511C5.99958 8.60536 6.00585 8.55929 6.02199 8.51636C6.03813 8.47343 6.06371 8.43477 6.0968 8.40329C6.12989 8.37181 6.16962 8.34834 6.213 8.33465C6.25638 8.32096 6.30227 8.31741 6.34721 8.32426C6.39215 8.33111 6.43496 8.34819 6.47241 8.37421C6.50986 8.40023 6.54097 8.4345 6.56339 8.47444L8.34955 10.2708L12.5419 6.05548C12.5983 6.0186 12.6653 6.00192 12.7322 6.00813C12.7992 6.01434 12.8621 6.04307 12.9109 6.08971C12.9597 6.13635 12.9917 6.19821 13.0015 6.26537C13.0114 6.33253 12.9987 6.4011 12.9655 6.46009L8.5609 10.9016C8.5342 10.9321 8.50162 10.9568 8.46515 10.9741C8.42868 10.9914 8.38908 11.0011 8.3488 11.0024Z"
                    fill="white"
                  />
                  <path
                    d="M11.7978 1.52635C11.7644 1.61957 11.7483 1.71943 11.7505 1.81981C11.7526 1.9202 11.773 2.01899 11.8104 2.11015C11.8478 2.20131 11.9014 2.28291 11.9679 2.34995C12.0344 2.417 12.1124 2.46807 12.1972 2.50005C12.913 2.77648 13.5611 3.2366 14.0902 3.84384C15.0126 4.8986 15.5244 6.32131 15.5136 7.80048C15.5028 9.27965 14.9703 10.6947 14.0326 11.7359L13.3002 12.546L13.3177 10.1483C13.3191 9.95523 13.2521 9.76955 13.1314 9.63212C13.0108 9.4947 12.8464 9.41679 12.6743 9.41553C12.5023 9.41428 12.3367 9.48978 12.2141 9.62543C12.0915 9.76107 12.0218 9.94576 12.0204 10.1388L11.9903 14.2548C11.9885 14.3507 12.0037 14.4461 12.0353 14.5353C12.0668 14.6244 12.114 14.7055 12.1739 14.7739C12.2339 14.8422 12.3055 14.8963 12.3844 14.933C12.4634 14.9697 12.5481 14.9882 12.6337 14.9876L16.3007 15.0143C16.4727 15.0156 16.6382 14.9401 16.7609 14.8044C16.8835 14.6688 16.9532 14.4841 16.9546 14.291C16.956 14.0979 16.889 13.9122 16.7684 13.7748C16.6477 13.6374 16.4833 13.5595 16.3113 13.5582L14.2097 13.5429L14.9421 12.7328C15.7062 11.8947 16.2671 10.8517 16.5715 9.70283C16.8759 8.55392 16.9137 7.33725 16.6813 6.16835C16.4489 4.99945 15.9541 3.91714 15.2437 3.02419C14.5334 2.13124 13.6312 1.45731 12.6228 1.06639C12.5419 1.03412 12.456 1.02047 12.3703 1.02626C12.2845 1.03204 12.2007 1.05714 12.1237 1.10006C12.0467 1.14299 11.9782 1.20285 11.9222 1.27608C11.8662 1.34932 11.8239 1.43443 11.7978 1.52635Z"
                    fill="white"
                  />
                </svg>


