<svg width="18" height="18" viewBox="0 0 18 18" fill="none" xmlns="http://www.w3.org/2000/svg">
<path d="M12.25 12.75C11.84 12.75 11.5 13.09 11.5 13.5V15C11.5 15.69 10.94 16.25 10.25 16.25H2.75C2.06 16.25 1.5 15.69 1.5 15V3C1.5 2.31 2.06 1.75 2.75 1.75H6V6.5C6 6.91 6.34 7.25 6.75 7.25H11.5V8.5C11.5 8.91 11.84 9.25 12.25 9.25C12.66 9.25 13 8.91 13 8.5V6.5C13 6.3 12.92 6.11 12.78 5.97L7.28 0.47C7.14 0.33 6.95 0.25 6.75 0.25H2.75C1.23 0.25 0 1.48 0 3V15C0 16.52 1.23 17.75 2.75 17.75H10.25C11.77 17.75 13 16.52 13 15V13.5C13 13.09 12.66 12.75 12.25 12.75ZM7.5 2.81L10.44 5.75H7.5V2.81ZM17.94 11.29C17.9 11.38 17.85 11.46 17.78 11.53L14.78 14.53C14.63 14.68 14.44 14.75 14.25 14.75C14.06 14.75 13.87 14.68 13.72 14.53C13.43 14.24 13.43 13.76 13.72 13.47L15.44 11.75H6.75C6.34 11.75 6 11.41 6 11C6 10.59 6.34 10.25 6.75 10.25H15.44L13.72 8.53C13.43 8.24 13.43 7.76 13.72 7.47C14.01 7.18 14.49 7.18 14.78 7.47L17.78 10.47C17.85 10.54 17.9 10.62 17.94 10.71C18.02 10.89 18.02 11.1 17.94 11.28V11.29Z" fill="white"/>
</svg>
