<svg width="19" height="20" viewBox="0 0 19 20" fill="none" xmlns="http://www.w3.org/2000/svg">
<path d="M14.25 17.2913H9.49999C9.34252 17.2913 9.1915 17.2255 9.08015 17.1083C8.9688 16.9911 8.90624 16.8321 8.90624 16.6663C8.90624 16.5006 8.9688 16.3416 9.08015 16.2244C9.1915 16.1072 9.34252 16.0413 9.49999 16.0413H14.25C14.5124 16.0413 14.7642 15.9316 14.9497 15.7362C15.1353 15.5409 15.2396 15.2759 15.2396 14.9997V4.99967C15.2396 4.72341 15.1353 4.45846 14.9497 4.2631C14.7642 4.06775 14.5124 3.95801 14.25 3.95801H4.74999C4.48754 3.95801 4.23584 4.06775 4.05025 4.2631C3.86467 4.45846 3.76041 4.72341 3.76041 4.99967V9.99967C3.76041 10.1654 3.69785 10.3244 3.5865 10.4416C3.47516 10.5588 3.32413 10.6247 3.16666 10.6247C3.00919 10.6247 2.85817 10.5588 2.74682 10.4416C2.63547 10.3244 2.57291 10.1654 2.57291 9.99967V4.99967C2.57291 4.39189 2.80228 3.80899 3.21056 3.37922C3.61885 2.94945 4.1726 2.70801 4.74999 2.70801H14.25C14.8274 2.70801 15.3811 2.94945 15.7894 3.37922C16.1977 3.80899 16.4271 4.39189 16.4271 4.99967V14.9997C16.4271 15.6075 16.1977 16.1904 15.7894 16.6201C15.3811 17.0499 14.8274 17.2913 14.25 17.2913Z" fill="#304CD9"/>
<path d="M6.33333 17.2917H3.95833C3.59153 17.2895 3.24035 17.1351 2.98099 16.8621C2.72162 16.5891 2.57499 16.2194 2.57291 15.8333V13.3333C2.57499 12.9472 2.72162 12.5776 2.98099 12.3046C3.24035 12.0315 3.59153 11.8772 3.95833 11.875H6.33333C6.70012 11.8772 7.0513 12.0315 7.31067 12.3046C7.57003 12.5776 7.71667 12.9472 7.71874 13.3333V15.8333C7.71667 16.2194 7.57003 16.5891 7.31067 16.8621C7.0513 17.1351 6.70012 17.2895 6.33333 17.2917ZM3.95833 13.125C3.90584 13.125 3.8555 13.1469 3.81838 13.186C3.78126 13.2251 3.76041 13.2781 3.76041 13.3333V15.8333C3.76041 15.8886 3.78126 15.9416 3.81838 15.9806C3.8555 16.0197 3.90584 16.0417 3.95833 16.0417H6.33333C6.38582 16.0417 6.43616 16.0197 6.47328 15.9806C6.51039 15.9416 6.53124 15.8886 6.53124 15.8333V13.3333C6.53124 13.2781 6.51039 13.2251 6.47328 13.186C6.43616 13.1469 6.38582 13.125 6.33333 13.125H3.95833Z" fill="#304CD9"/>
<path d="M13.1263 13.3333H9.04032C8.74231 13.3333 8.45651 13.1954 8.24578 12.9498C8.03505 12.7042 7.91667 12.3711 7.91667 12.0238V6.30952C7.91667 5.96222 8.03505 5.62913 8.24578 5.38355C8.45651 5.13797 8.74231 5 9.04032 5H12.1048C12.1861 5.00008 12.264 5.03777 12.3214 5.10476L14.1601 7.2619C14.2176 7.32882 14.2499 7.4196 14.25 7.51429V12.0238C14.25 12.3711 14.1316 12.7042 13.9209 12.9498C13.7102 13.1954 13.4244 13.3333 13.1263 13.3333ZM9.04032 5.71429C8.90486 5.71429 8.77495 5.777 8.67917 5.88863C8.58338 6.00026 8.52957 6.15166 8.52957 6.30952V12.0238C8.52957 12.1817 8.58338 12.3331 8.67917 12.4447C8.77495 12.5563 8.90486 12.619 9.04032 12.619H13.1263C13.2618 12.619 13.3917 12.5563 13.4875 12.4447C13.5833 12.3331 13.6371 12.1817 13.6371 12.0238V7.64762L11.9782 5.71429H9.04032Z" fill="#304CD9"/>
<path d="M13.0242 12.9756H12.4113V9.99944H9.75538V12.9756H9.14248V9.88039C9.14248 9.72253 9.19629 9.57113 9.29207 9.4595C9.38786 9.34787 9.51777 9.28516 9.65323 9.28516H12.5134C12.6489 9.28516 12.7788 9.34787 12.8746 9.4595C12.9704 9.57113 13.0242 9.72253 13.0242 9.88039V12.9756Z" fill="#304CD9"/>
<path d="M11.2754 7.61933H9.66548C9.59626 7.6187 9.52783 7.6022 9.46408 7.57075C9.40033 7.5393 9.34253 7.49353 9.29396 7.43604C9.24539 7.37856 9.20702 7.31049 9.18103 7.23572C9.15503 7.16095 9.14193 7.08095 9.14247 7.00028V5.35742H9.75538V6.90504H11.1855V5.35742H11.7984V7.00028C11.7989 7.08095 11.7858 7.16095 11.7598 7.23572C11.7338 7.31049 11.6955 7.37856 11.6469 7.43604C11.5983 7.49353 11.5405 7.5393 11.4768 7.57075C11.413 7.6022 11.3446 7.6187 11.2754 7.61933Z" fill="#304CD9"/>
</svg>
