<svg width="20" height="20" viewBox="0 0 19 22" fill="none" xmlns="http://www.w3.org/2000/svg">
<path d="M15.629 22H3.37097C2.47693 22 1.61951 21.6358 0.987333 20.9874C0.355154 20.3391 0 19.4597 0 18.5429V3.45714C0 2.54025 0.355154 1.66091 0.987333 1.01257C1.61951 0.364233 2.47693 0 3.37097 0H12.5645C12.8083 0.000220065 13.0419 0.0997009 13.2142 0.276571L18.7303 5.97143C18.9028 6.14808 18.9998 6.38774 19 6.63771V18.5429C19 19.4597 18.6448 20.3391 18.0127 20.9874C17.3805 21.6358 16.5231 22 15.629 22ZM3.37097 1.88571C2.96459 1.88571 2.57485 2.05128 2.2875 2.34598C2.00014 2.64068 1.83871 3.04037 1.83871 3.45714V18.5429C1.83871 18.9596 2.00014 19.3593 2.2875 19.654C2.57485 19.9487 2.96459 20.1143 3.37097 20.1143H15.629C16.0354 20.1143 16.4251 19.9487 16.7125 19.654C16.9999 19.3593 17.1613 18.9596 17.1613 18.5429V6.98972L12.1845 1.88571H3.37097Z" fill="#CD9A23"/>
<path d="M15.6452 20.8038H13.8064V10.8857H5.83871V20.797H4V10.5714C4 10.1547 4.16143 9.75496 4.44879 9.46026C4.73614 9.16556 5.12588 9 5.53226 9H14.1129C14.5193 9 14.909 9.16556 15.1964 9.46026C15.4837 9.75496 15.6452 10.1547 15.6452 10.5714V20.8038Z" fill="#CD9A23"/>
<path d="M10.0762 6.91479H5.24657C5.03891 6.91314 4.8336 6.86957 4.64236 6.78654C4.45112 6.70352 4.27771 6.58268 4.13201 6.43092C3.98631 6.27916 3.87118 6.09946 3.7932 5.90207C3.71522 5.70468 3.67592 5.49347 3.67754 5.2805V0.943359H5.51625V5.02907H9.80657V0.943359H11.6453V5.2805C11.6469 5.49347 11.6076 5.70468 11.5296 5.90207C11.4516 6.09946 11.3365 6.27916 11.1908 6.43092C11.0451 6.58268 10.8717 6.70352 10.6805 6.78654C10.4892 6.86957 10.2839 6.91314 10.0762 6.91479Z" fill="#CD9A23"/>
<path d="M8.59963 12.0007C8.67849 12.0003 8.75662 12.0163 8.82945 12.0479C8.90228 12.0795 8.96833 12.126 9.02374 12.1846L11.8245 15.1112C11.9369 15.2288 12 15.3882 12 15.5544C12 15.7206 11.9369 15.88 11.8245 15.9976L9.02374 18.8991C8.91095 18.9755 8.77687 19.0101 8.64299 18.9974C8.50911 18.9847 8.38319 18.9254 8.28541 18.829C8.18762 18.7326 8.12364 18.6047 8.10372 18.4658C8.08379 18.3269 8.10908 18.185 8.17552 18.0629L10.5762 15.5544L8.17552 13.0459C8.06313 12.9283 8 12.7689 8 12.6027C8 12.4365 8.06313 12.2771 8.17552 12.1595C8.29134 12.0502 8.44375 11.9932 8.59963 12.0007Z" fill="#CD9A23"/>
</svg>
